<svg xmlns="http://www.w3.org/2000/svg" xmlns:xlink="http://www.w3.org/1999/xlink" width="200" zoomAndPan="magnify" viewBox="0 0 150 149.999998" height="200" preserveAspectRatio="xMidYMid meet" version="1.0"><defs><clipPath id="af8fdc8b05"><path d="M 99.136719 63.527344 L 108.28125 63.527344 L 108.28125 72.671875 L 99.136719 72.671875 Z M 99.136719 63.527344 " clip-rule="nonzero"/></clipPath><clipPath id="25f4261be6"><path d="M 6.882812 6 L 143.382812 6 L 143.382812 148 L 6.882812 148 Z M 6.882812 6 " clip-rule="nonzero"/></clipPath></defs><g clip-path="url(#af8fdc8b05)"><path fill="#ffffff" d="M 99.136719 63.527344 L 108.28125 63.527344 L 108.28125 72.671875 L 99.136719 72.671875 Z M 99.136719 63.527344 " fill-opacity="1" fill-rule="nonzero"/></g><g clip-path="url(#25f4261be6)"><path fill="#ffffff" d="M 108.652344 37.507812 L 108.652344 77.871094 C 108.652344 78.203125 108.621094 78.53125 108.554688 78.855469 C 108.492188 79.183594 108.394531 79.496094 108.269531 79.804688 C 108.140625 80.109375 107.984375 80.398438 107.800781 80.675781 C 107.617188 80.949219 107.410156 81.207031 107.175781 81.441406 C 106.941406 81.675781 106.683594 81.882812 106.410156 82.066406 C 106.132812 82.25 105.84375 82.40625 105.539062 82.535156 C 105.230469 82.660156 104.914062 82.757812 104.589844 82.820312 C 104.265625 82.886719 103.9375 82.917969 103.605469 82.917969 C 103.273438 82.917969 102.945312 82.886719 102.621094 82.820312 C 102.296875 82.757812 101.980469 82.660156 101.675781 82.535156 C 101.371094 82.40625 101.078125 82.25 100.804688 82.066406 C 100.527344 81.882812 100.273438 81.675781 100.039062 81.441406 C 99.804688 81.207031 99.59375 80.949219 99.410156 80.675781 C 99.226562 80.398438 99.070312 80.109375 98.945312 79.804688 C 98.816406 79.496094 98.722656 79.183594 98.65625 78.855469 C 98.59375 78.53125 98.5625 78.203125 98.5625 77.871094 L 98.5625 37.507812 C 98.5625 37.175781 98.59375 36.847656 98.65625 36.523438 C 98.722656 36.199219 98.816406 35.882812 98.945312 35.578125 C 99.070312 35.269531 99.226562 34.980469 99.410156 34.703125 C 99.59375 34.429688 99.804688 34.175781 100.039062 33.941406 C 100.273438 33.707031 100.527344 33.496094 100.804688 33.3125 C 101.078125 33.128906 101.371094 32.972656 101.675781 32.847656 C 101.980469 32.71875 102.296875 32.625 102.621094 32.558594 C 102.945312 32.496094 103.273438 32.460938 103.605469 32.460938 C 103.9375 32.460938 104.265625 32.496094 104.589844 32.558594 C 104.914062 32.625 105.230469 32.71875 105.539062 32.847656 C 105.84375 32.972656 106.132812 33.128906 106.410156 33.3125 C 106.683594 33.496094 106.941406 33.707031 107.175781 33.941406 C 107.410156 34.175781 107.617188 34.429688 107.800781 34.703125 C 107.984375 34.980469 108.140625 35.269531 108.269531 35.578125 C 108.394531 35.882812 108.492188 36.199219 108.554688 36.523438 C 108.621094 36.847656 108.652344 37.175781 108.652344 37.507812 Z M 83.425781 42.554688 C 83.09375 42.554688 82.765625 42.585938 82.441406 42.652344 C 82.113281 42.714844 81.800781 42.8125 81.492188 42.9375 C 81.1875 43.0625 80.894531 43.21875 80.621094 43.402344 C 80.34375 43.589844 80.089844 43.796875 79.855469 44.03125 C 79.621094 44.265625 79.414062 44.519531 79.230469 44.796875 C 79.042969 45.070312 78.890625 45.363281 78.761719 45.667969 C 78.636719 45.972656 78.539062 46.289062 78.476562 46.613281 C 78.410156 46.941406 78.378906 47.269531 78.378906 47.597656 L 78.378906 77.871094 C 78.378906 78.203125 78.410156 78.53125 78.476562 78.855469 C 78.539062 79.183594 78.636719 79.496094 78.761719 79.804688 C 78.890625 80.109375 79.042969 80.398438 79.230469 80.675781 C 79.414062 80.949219 79.621094 81.207031 79.855469 81.441406 C 80.089844 81.675781 80.34375 81.882812 80.621094 82.066406 C 80.894531 82.25 81.1875 82.40625 81.492188 82.535156 C 81.800781 82.660156 82.113281 82.757812 82.441406 82.820312 C 82.765625 82.886719 83.09375 82.917969 83.425781 82.917969 C 83.753906 82.917969 84.082031 82.886719 84.410156 82.820312 C 84.734375 82.757812 85.050781 82.660156 85.355469 82.535156 C 85.660156 82.40625 85.953125 82.25 86.226562 82.066406 C 86.503906 81.882812 86.757812 81.675781 86.992188 81.441406 C 87.226562 81.207031 87.433594 80.949219 87.621094 80.675781 C 87.804688 80.398438 87.957031 80.109375 88.085938 79.804688 C 88.210938 79.496094 88.308594 79.183594 88.371094 78.855469 C 88.4375 78.53125 88.46875 78.203125 88.46875 77.871094 L 88.46875 47.597656 C 88.46875 47.269531 88.4375 46.941406 88.371094 46.613281 C 88.308594 46.289062 88.210938 45.972656 88.085938 45.667969 C 87.957031 45.363281 87.804688 45.070312 87.621094 44.796875 C 87.433594 44.519531 87.226562 44.265625 86.992188 44.03125 C 86.757812 43.796875 86.503906 43.589844 86.226562 43.402344 C 85.953125 43.21875 85.660156 43.0625 85.355469 42.9375 C 85.050781 42.8125 84.734375 42.714844 84.410156 42.652344 C 84.082031 42.585938 83.753906 42.554688 83.425781 42.554688 Z M 63.242188 52.644531 C 62.910156 52.644531 62.582031 52.675781 62.257812 52.742188 C 61.933594 52.804688 61.617188 52.902344 61.3125 53.027344 C 61.003906 53.15625 60.714844 53.3125 60.4375 53.496094 C 60.164062 53.679688 59.910156 53.886719 59.675781 54.121094 C 59.441406 54.355469 59.230469 54.613281 59.046875 54.886719 C 58.863281 55.164062 58.707031 55.453125 58.582031 55.757812 C 58.453125 56.066406 58.359375 56.382812 58.292969 56.707031 C 58.230469 57.03125 58.195312 57.359375 58.195312 57.691406 L 58.195312 77.871094 C 58.195312 78.203125 58.230469 78.53125 58.292969 78.855469 C 58.359375 79.183594 58.453125 79.496094 58.582031 79.804688 C 58.707031 80.109375 58.863281 80.398438 59.046875 80.675781 C 59.230469 80.949219 59.441406 81.207031 59.675781 81.441406 C 59.910156 81.675781 60.164062 81.882812 60.4375 82.066406 C 60.714844 82.25 61.003906 82.40625 61.3125 82.535156 C 61.617188 82.660156 61.933594 82.757812 62.257812 82.820312 C 62.582031 82.886719 62.910156 82.917969 63.242188 82.917969 C 63.574219 82.917969 63.902344 82.886719 64.226562 82.820312 C 64.550781 82.757812 64.867188 82.660156 65.171875 82.535156 C 65.480469 82.40625 65.769531 82.25 66.046875 82.066406 C 66.320312 81.882812 66.574219 81.675781 66.808594 81.441406 C 67.042969 81.207031 67.253906 80.949219 67.4375 80.675781 C 67.621094 80.398438 67.777344 80.109375 67.902344 79.804688 C 68.03125 79.496094 68.125 79.183594 68.191406 78.855469 C 68.253906 78.53125 68.289062 78.203125 68.289062 77.871094 L 68.289062 57.691406 C 68.289062 57.359375 68.253906 57.03125 68.191406 56.707031 C 68.125 56.382812 68.03125 56.066406 67.902344 55.757812 C 67.777344 55.453125 67.621094 55.164062 67.4375 54.886719 C 67.253906 54.613281 67.042969 54.355469 66.808594 54.121094 C 66.574219 53.886719 66.320312 53.679688 66.046875 53.496094 C 65.769531 53.3125 65.480469 53.15625 65.171875 53.027344 C 64.867188 52.902344 64.550781 52.804688 64.226562 52.742188 C 63.902344 52.675781 63.574219 52.644531 63.242188 52.644531 Z M 143.113281 62.128906 C 143.109375 64.675781 142.929688 67.210938 142.578125 69.730469 C 142.226562 72.25 141.703125 74.738281 141.007812 77.1875 C 140.316406 79.636719 139.457031 82.027344 138.433594 84.355469 C 137.410156 86.6875 136.230469 88.9375 134.898438 91.105469 C 133.566406 93.273438 132.089844 95.34375 130.472656 97.308594 C 128.855469 99.273438 127.113281 101.121094 125.242188 102.847656 C 123.371094 104.574219 121.390625 106.164062 119.300781 107.617188 C 117.210938 109.070312 115.03125 110.371094 112.761719 111.527344 C 110.492188 112.679688 108.152344 113.671875 105.746094 114.503906 C 103.34375 115.335938 100.890625 116 98.394531 116.492188 C 95.894531 116.988281 93.375 117.308594 90.835938 117.457031 C 88.292969 117.605469 85.753906 117.578125 83.21875 117.375 C 80.679688 117.175781 78.167969 116.800781 75.679688 116.253906 C 73.195312 115.707031 70.757812 114.992188 68.371094 114.109375 C 65.980469 113.226562 63.667969 112.183594 61.421875 110.984375 C 59.175781 109.78125 57.027344 108.433594 54.96875 106.933594 L 15.511719 146.441406 C 15.277344 146.679688 15.019531 146.890625 14.746094 147.074219 C 14.46875 147.261719 14.175781 147.417969 13.867188 147.546875 C 13.5625 147.675781 13.246094 147.769531 12.917969 147.835938 C 12.589844 147.902344 12.261719 147.933594 11.929688 147.933594 C 11.59375 147.933594 11.265625 147.902344 10.9375 147.835938 C 10.613281 147.769531 10.296875 147.675781 9.988281 147.546875 C 9.679688 147.417969 9.386719 147.261719 9.113281 147.074219 C 8.835938 146.890625 8.582031 146.679688 8.347656 146.441406 C 8.109375 146.207031 7.898438 145.953125 7.710938 145.675781 C 7.527344 145.398438 7.371094 145.105469 7.242188 144.800781 C 7.113281 144.492188 7.015625 144.175781 6.953125 143.847656 C 6.886719 143.523438 6.851562 143.191406 6.851562 142.859375 C 6.851562 142.527344 6.886719 142.195312 6.953125 141.871094 C 7.015625 141.542969 7.113281 141.226562 7.242188 140.917969 C 7.371094 140.613281 7.527344 140.320312 7.710938 140.042969 C 7.898438 139.765625 8.109375 139.511719 8.347656 139.277344 L 47.246094 100.273438 C 46.472656 99.457031 45.726562 98.613281 45.003906 97.746094 C 44.28125 96.882812 43.585938 95.996094 42.917969 95.089844 C 42.25 94.179688 41.609375 93.253906 41 92.308594 C 40.386719 91.363281 39.804688 90.398438 39.25 89.414062 C 38.699219 88.433594 38.175781 87.4375 37.683594 86.421875 C 37.191406 85.410156 36.730469 84.382812 36.300781 83.339844 C 35.871094 82.296875 35.472656 81.242188 35.109375 80.175781 C 34.742188 79.113281 34.410156 78.035156 34.109375 76.949219 C 33.8125 75.863281 33.546875 74.769531 33.3125 73.664062 C 33.078125 72.5625 32.878906 71.453125 32.714844 70.339844 C 32.546875 69.226562 32.417969 68.105469 32.320312 66.984375 C 32.222656 65.863281 32.15625 64.738281 32.128906 63.609375 C 32.101562 62.484375 32.105469 61.359375 32.144531 60.230469 C 32.183594 59.105469 32.257812 57.980469 32.367188 56.859375 C 32.472656 55.738281 32.617188 54.621094 32.792969 53.507812 C 32.96875 52.394531 33.179688 51.289062 33.421875 50.1875 C 33.664062 49.085938 33.941406 47.996094 34.253906 46.910156 C 34.5625 45.828125 34.90625 44.753906 35.28125 43.691406 C 35.65625 42.628906 36.0625 41.582031 36.503906 40.542969 C 36.941406 39.503906 37.414062 38.480469 37.914062 37.472656 C 38.414062 36.464844 38.949219 35.46875 39.511719 34.492188 C 40.070312 33.515625 40.664062 32.558594 41.285156 31.617188 C 41.90625 30.675781 42.554688 29.757812 43.230469 28.855469 C 43.90625 27.953125 44.609375 27.074219 45.339844 26.214844 C 46.070312 25.359375 46.828125 24.523438 47.605469 23.710938 C 48.386719 22.898438 49.195312 22.109375 50.023438 21.347656 C 50.851562 20.585938 51.703125 19.847656 52.578125 19.136719 C 53.453125 18.425781 54.347656 17.738281 55.261719 17.082031 C 56.175781 16.425781 57.113281 15.796875 58.066406 15.199219 C 59.019531 14.597656 59.992188 14.027344 60.980469 13.488281 C 61.96875 12.945312 62.972656 12.4375 63.992188 11.957031 C 65.011719 11.476562 66.046875 11.027344 67.09375 10.613281 C 68.140625 10.195312 69.199219 9.8125 70.269531 9.460938 C 71.339844 9.105469 72.417969 8.789062 73.507812 8.5 C 74.601562 8.214844 75.695312 7.960938 76.800781 7.742188 C 77.90625 7.523438 79.019531 7.339844 80.136719 7.1875 C 81.253906 7.035156 82.371094 6.917969 83.496094 6.832031 C 84.621094 6.75 85.746094 6.699219 86.871094 6.683594 C 88 6.671875 89.125 6.691406 90.25 6.742188 C 91.375 6.796875 92.5 6.882812 93.621094 7.007812 C 94.738281 7.128906 95.855469 7.285156 96.964844 7.472656 C 98.078125 7.664062 99.179688 7.886719 100.277344 8.144531 C 101.375 8.402344 102.464844 8.691406 103.542969 9.015625 C 104.621094 9.339844 105.691406 9.695312 106.75 10.082031 C 107.804688 10.472656 108.851562 10.894531 109.882812 11.34375 C 110.914062 11.796875 111.933594 12.28125 112.9375 12.792969 C 113.9375 13.308594 114.925781 13.851562 115.894531 14.425781 C 116.863281 15 117.816406 15.605469 118.75 16.238281 C 119.679688 16.867188 120.59375 17.527344 121.488281 18.214844 C 122.378906 18.90625 123.25 19.617188 124.097656 20.359375 C 124.949219 21.101562 125.773438 21.867188 126.578125 22.65625 C 127.378906 23.449219 128.15625 24.261719 128.910156 25.101562 C 129.664062 25.941406 130.390625 26.800781 131.089844 27.683594 C 131.789062 28.566406 132.460938 29.46875 133.109375 30.394531 C 133.753906 31.316406 134.371094 32.261719 134.957031 33.222656 C 135.546875 34.183594 136.105469 35.160156 136.632812 36.15625 C 137.160156 37.152344 137.660156 38.160156 138.125 39.1875 C 138.59375 40.214844 139.027344 41.253906 139.433594 42.304688 C 139.835938 43.355469 140.207031 44.417969 140.546875 45.496094 C 140.882812 46.570312 141.191406 47.652344 141.460938 48.746094 C 141.734375 49.839844 141.976562 50.941406 142.179688 52.046875 C 142.386719 53.15625 142.558594 54.269531 142.695312 55.386719 C 142.832031 56.507812 142.9375 57.628906 143.007812 58.753906 C 143.078125 59.878906 143.113281 61.003906 143.113281 62.128906 Z M 133.023438 62.128906 C 133.023438 60.644531 132.949219 59.160156 132.804688 57.679688 C 132.65625 56.199219 132.441406 54.730469 132.148438 53.269531 C 131.859375 51.8125 131.5 50.371094 131.066406 48.949219 C 130.636719 47.523438 130.132812 46.125 129.566406 44.753906 C 128.996094 43.378906 128.359375 42.035156 127.660156 40.722656 C 126.960938 39.414062 126.195312 38.136719 125.367188 36.902344 C 124.542969 35.664062 123.65625 34.472656 122.714844 33.324219 C 121.769531 32.171875 120.773438 31.070312 119.722656 30.019531 C 118.671875 28.96875 117.570312 27.972656 116.417969 27.027344 C 115.269531 26.085938 114.078125 25.199219 112.839844 24.375 C 111.605469 23.546875 110.328125 22.785156 109.019531 22.082031 C 107.707031 21.382812 106.363281 20.746094 104.988281 20.175781 C 103.617188 19.609375 102.21875 19.105469 100.792969 18.675781 C 99.371094 18.242188 97.929688 17.882812 96.472656 17.59375 C 95.011719 17.300781 93.542969 17.085938 92.0625 16.9375 C 90.582031 16.792969 89.097656 16.71875 87.613281 16.71875 C 86.125 16.71875 84.640625 16.792969 83.160156 16.9375 C 81.679688 17.085938 80.210938 17.300781 78.753906 17.59375 C 77.292969 17.882812 75.851562 18.242188 74.429688 18.675781 C 73.007812 19.105469 71.609375 19.609375 70.234375 20.175781 C 68.859375 20.746094 67.515625 21.382812 66.207031 22.082031 C 64.894531 22.785156 63.621094 23.546875 62.382812 24.375 C 61.148438 25.199219 59.953125 26.085938 58.804688 27.027344 C 57.65625 27.972656 56.554688 28.96875 55.503906 30.019531 C 54.449219 31.070312 53.453125 32.171875 52.507812 33.324219 C 51.566406 34.472656 50.679688 35.664062 49.855469 36.902344 C 49.027344 38.136719 48.265625 39.414062 47.5625 40.722656 C 46.863281 42.035156 46.226562 43.378906 45.660156 44.753906 C 45.089844 46.125 44.589844 47.523438 44.15625 48.949219 C 43.726562 50.371094 43.363281 51.8125 43.074219 53.269531 C 42.785156 54.730469 42.566406 56.199219 42.421875 57.679688 C 42.273438 59.160156 42.203125 60.644531 42.203125 62.128906 C 42.203125 63.617188 42.273438 65.101562 42.421875 66.582031 C 42.566406 68.0625 42.785156 69.53125 43.074219 70.988281 C 43.363281 72.449219 43.726562 73.890625 44.15625 75.3125 C 44.589844 76.734375 45.089844 78.132812 45.660156 79.507812 C 46.226562 80.882812 46.863281 82.226562 47.5625 83.535156 C 48.265625 84.847656 49.027344 86.121094 49.855469 87.359375 C 50.679688 88.59375 51.566406 89.789062 52.507812 90.9375 C 53.453125 92.085938 54.449219 93.1875 55.503906 94.238281 C 56.554688 95.292969 57.65625 96.289062 58.804688 97.234375 C 59.953125 98.175781 61.148438 99.0625 62.382812 99.886719 C 63.621094 100.714844 64.894531 101.476562 66.207031 102.179688 C 67.515625 102.878906 68.859375 103.515625 70.234375 104.082031 C 71.609375 104.652344 73.007812 105.152344 74.429688 105.585938 C 75.851562 106.015625 77.292969 106.378906 78.753906 106.667969 C 80.210938 106.957031 81.679688 107.175781 83.160156 107.320312 C 84.640625 107.46875 86.125 107.539062 87.613281 107.539062 C 89.097656 107.539062 90.582031 107.46875 92.0625 107.320312 C 93.542969 107.175781 95.011719 106.957031 96.472656 106.667969 C 97.929688 106.378906 99.371094 106.015625 100.792969 105.585938 C 102.21875 105.152344 103.617188 104.652344 104.988281 104.082031 C 106.363281 103.515625 107.707031 102.878906 109.019531 102.179688 C 110.328125 101.476562 111.605469 100.714844 112.839844 99.886719 C 114.078125 99.0625 115.269531 98.175781 116.417969 97.234375 C 117.570312 96.289062 118.671875 95.292969 119.722656 94.238281 C 120.773438 93.1875 121.769531 92.085938 122.714844 90.9375 C 123.65625 89.789062 124.542969 88.59375 125.367188 87.359375 C 126.195312 86.121094 126.960938 84.847656 127.660156 83.535156 C 128.359375 82.226562 128.996094 80.882812 129.566406 79.507812 C 130.132812 78.132812 130.636719 76.734375 131.066406 75.3125 C 131.5 73.890625 131.859375 72.449219 132.148438 70.988281 C 132.441406 69.53125 132.65625 68.0625 132.804688 66.582031 C 132.949219 65.101562 133.023438 63.617188 133.023438 62.128906 Z M 133.023438 62.128906 " fill-opacity="1" fill-rule="nonzero"/></g></svg>