<svg xmlns="http://www.w3.org/2000/svg" xmlns:xlink="http://www.w3.org/1999/xlink" width="200" zoomAndPan="magnify" viewBox="0 0 150 149.999998" height="200" preserveAspectRatio="xMidYMid meet" version="1.0"><defs><clipPath id="40d3162201"><path d="M 70.425781 123.382812 L 79.570312 123.382812 L 79.570312 127.132812 L 70.425781 127.132812 Z M 70.425781 123.382812 " clip-rule="nonzero"/></clipPath><clipPath id="e9a7f6783c"><path d="M 3.113281 15 L 147 15 L 147 130.5 L 3.113281 130.5 Z M 3.113281 15 " clip-rule="nonzero"/></clipPath></defs><g clip-path="url(#40d3162201)"><path fill="#ffffff" d="M 79.570312 123.382812 L 79.570312 127.132812 L 70.429688 127.132812 L 70.429688 123.382812 Z M 79.570312 123.382812 " fill-opacity="1" fill-rule="nonzero"/></g><path fill="#ffffff" d="M 36.136719 77.484375 C 36.980469 78.328125 38.855469 79.390625 41.425781 80.746094 C 43.875 81.910156 45.582031 83.070312 46.359375 84.109375 C 47.132812 85.136719 47.488281 86.128906 47.488281 87.238281 C 47.488281 89.519531 45.859375 90.632812 42.5 90.632812 C 41.136719 90.632812 39.738281 90.285156 38.21875 89.566406 C 37.449219 89.207031 36.558594 89.167969 35.773438 89.464844 C 35.007812 89.757812 34.40625 90.339844 34.085938 91.097656 L 33.984375 91.320312 C 33.664062 92.074219 33.660156 92.914062 33.980469 93.679688 C 34.296875 94.441406 34.890625 95.027344 35.652344 95.332031 C 37.375 96.019531 39.230469 96.371094 41.160156 96.371094 C 41.382812 96.371094 41.605469 96.367188 41.832031 96.359375 C 45.480469 96.359375 48.460938 95.433594 50.707031 93.609375 C 52.964844 91.636719 54.011719 89.398438 54.011719 86.570312 C 54.011719 85.023438 53.71875 83.507812 53.1875 82.304688 C 52.675781 81.15625 51.890625 80.046875 50.839844 78.996094 C 49.613281 77.925781 47.882812 76.847656 45.835938 75.886719 C 41.71875 73.953125 39.636719 72.039062 39.636719 70.195312 C 39.636719 69.167969 40.035156 68.21875 40.714844 67.652344 C 41.503906 66.996094 42.503906 66.667969 43.699219 66.667969 C 45.105469 66.667969 46.449219 66.953125 47.792969 67.535156 C 48.5625 67.871094 49.410156 67.882812 50.175781 67.570312 C 50.929688 67.273438 51.511719 66.695312 51.828125 65.949219 C 52.160156 65.167969 52.144531 64.273438 51.792969 63.503906 C 51.441406 62.734375 50.777344 62.140625 49.976562 61.878906 C 48.339844 61.347656 46.273438 61.070312 43.828125 61.070312 C 40.691406 61.070312 38.152344 61.953125 36.289062 63.6875 C 34.238281 65.460938 33.246094 67.679688 33.246094 70.460938 C 33.246094 71.722656 33.332031 73.082031 33.945312 74.46875 C 34.625 75.828125 35.328125 76.792969 36.136719 77.484375 " fill-opacity="1" fill-rule="nonzero"/><path fill="#ffffff" d="M 62.964844 95.824219 L 78.3125 95.824219 C 79.886719 95.824219 81.171875 94.539062 81.171875 92.960938 L 81.171875 92.695312 C 81.171875 91.113281 79.886719 89.832031 78.3125 89.832031 L 65.863281 89.832031 L 65.863281 80.375 L 74.179688 80.375 C 75.761719 80.375 77.046875 79.09375 77.046875 77.515625 C 77.046875 75.9375 75.761719 74.65625 74.179688 74.65625 L 65.863281 74.65625 L 65.863281 67.464844 L 78.578125 67.464844 C 80.15625 67.464844 81.4375 66.183594 81.4375 64.601562 L 81.4375 64.335938 C 81.4375 62.757812 80.15625 61.472656 78.578125 61.472656 L 62.964844 61.472656 C 60.890625 61.472656 59.207031 63.15625 59.207031 65.230469 L 59.207031 92.066406 C 59.207031 94.140625 60.890625 95.824219 62.964844 95.824219 " fill-opacity="1" fill-rule="nonzero"/><path fill="#ffffff" d="M 95.496094 69.980469 C 96.90625 67.929688 98.820312 66.929688 101.34375 66.929688 C 106.953125 66.929688 109.796875 70.808594 109.796875 78.449219 C 109.796875 82.351562 109.011719 85.375 107.460938 87.445312 C 106.089844 89.441406 103.835938 90.496094 100.945312 90.496094 C 98.507812 90.496094 96.628906 89.472656 95.371094 87.457031 C 94.078125 85.394531 93.421875 82.359375 93.421875 78.449219 C 93.421875 75.078125 94.140625 72.148438 95.496094 69.980469 Z M 101.078125 96.488281 C 106.128906 96.488281 110.070312 94.832031 112.78125 91.578125 C 115.523438 88.289062 116.855469 83.996094 116.855469 78.449219 C 116.855469 73.003906 115.566406 68.796875 112.910156 65.582031 C 110.199219 62.457031 106.457031 60.9375 101.480469 60.9375 C 96.945312 60.9375 93.417969 62.59375 90.703125 65.992188 C 88 69.363281 86.632812 73.554688 86.632812 78.449219 C 86.632812 84.101562 87.914062 88.519531 90.425781 91.5625 C 92.878906 94.828125 96.460938 96.488281 101.078125 96.488281 " fill-opacity="1" fill-rule="nonzero"/><g clip-path="url(#e9a7f6783c)"><path fill="#ffffff" d="M 138.832031 122.261719 L 11.269531 122.261719 L 11.269531 35.167969 L 138.832031 35.167969 Z M 12.21875 22.011719 C 13.039062 21.191406 14.160156 20.71875 15.300781 20.71875 C 16.4375 20.71875 17.5625 21.191406 18.382812 22.011719 C 19.203125 22.832031 19.675781 23.960938 19.675781 25.09375 C 19.675781 26.234375 19.203125 27.359375 18.382812 28.179688 C 17.5625 29.003906 16.4375 29.46875 15.300781 29.46875 C 14.105469 29.46875 13.007812 29.007812 12.199219 28.164062 C 11.390625 27.34375 10.921875 26.226562 10.921875 25.09375 C 10.921875 23.960938 11.394531 22.832031 12.21875 22.011719 Z M 26.710938 22.011719 C 27.535156 21.191406 28.65625 20.71875 29.796875 20.71875 C 30.933594 20.71875 32.058594 21.191406 32.882812 22.011719 C 33.699219 22.832031 34.171875 23.960938 34.171875 25.09375 C 34.171875 26.234375 33.699219 27.359375 32.882812 28.179688 C 32.058594 29.003906 30.933594 29.46875 29.796875 29.46875 C 28.601562 29.46875 27.5 29.007812 26.695312 28.164062 C 25.886719 27.34375 25.417969 26.226562 25.417969 25.09375 C 25.417969 23.960938 25.890625 22.832031 26.710938 22.011719 Z M 41.207031 22.011719 C 42.027344 21.191406 43.15625 20.71875 44.292969 20.71875 C 45.429688 20.71875 46.554688 21.191406 47.375 22.011719 C 48.199219 22.832031 48.671875 23.960938 48.671875 25.09375 C 48.671875 26.234375 48.199219 27.359375 47.375 28.179688 C 46.554688 29.003906 45.429688 29.46875 44.292969 29.46875 C 43.097656 29.46875 41.996094 29.007812 41.195312 28.164062 C 40.378906 27.34375 39.914062 26.226562 39.914062 25.09375 C 39.914062 23.960938 40.386719 22.832031 41.207031 22.011719 Z M 140.671875 15.023438 L 9.4375 15.023438 C 6.085938 15.023438 3.371094 17.746094 3.371094 21.09375 L 3.371094 124.097656 C 3.371094 127.457031 6.085938 130.171875 9.441406 130.171875 L 140.652344 130.171875 C 144.007812 130.171875 146.730469 127.457031 146.730469 124.097656 L 146.730469 35.167969 L 146.746094 35.167969 L 146.746094 21.09375 C 146.746094 17.746094 144.023438 15.023438 140.671875 15.023438 " fill-opacity="1" fill-rule="nonzero"/></g></svg>