<svg xmlns="http://www.w3.org/2000/svg" xmlns:xlink="http://www.w3.org/1999/xlink" width="200" zoomAndPan="magnify" viewBox="0 0 150 149.999998" height="200" preserveAspectRatio="xMidYMid meet" version="1.0"><defs><clipPath id="91d0e6f13f"><path d="M 80.644531 75 L 84.394531 75 L 84.394531 84.144531 L 80.644531 84.144531 Z M 80.644531 75 " clip-rule="nonzero"/></clipPath><clipPath id="54777a134c"><path d="M 15 11 L 149.664062 11 L 149.664062 146.710938 L 15 146.710938 Z M 15 11 " clip-rule="nonzero"/></clipPath><clipPath id="fc45f2971c"><path d="M 4.164062 3.460938 L 76 3.460938 L 76 73 L 4.164062 73 Z M 4.164062 3.460938 " clip-rule="nonzero"/></clipPath></defs><g clip-path="url(#91d0e6f13f)"><path fill="#ffffff" d="M 80.644531 75 L 84.394531 75 L 84.394531 84.140625 L 80.644531 84.140625 Z M 80.644531 75 " fill-opacity="1" fill-rule="nonzero"/></g><g clip-path="url(#54777a134c)"><path fill="#ffffff" d="M 82.457031 11.980469 C 75.179688 11.96875 68.09375 13.125 61.199219 15.445312 C 60.738281 15.6875 60.394531 16.042969 60.164062 16.507812 C 59.929688 16.96875 59.855469 17.460938 59.9375 17.972656 C 60.019531 18.484375 60.246094 18.925781 60.609375 19.292969 C 60.976562 19.664062 61.414062 19.890625 61.925781 19.976562 C 62.175781 20.011719 62.425781 20.011719 62.675781 19.976562 C 64.949219 19.191406 67.261719 18.546875 69.609375 18.039062 C 69.375 18.511719 69.300781 19.011719 69.390625 19.535156 C 69.484375 20.058594 69.722656 20.503906 70.105469 20.871094 C 70.488281 21.234375 70.941406 21.453125 71.46875 21.523438 C 71.996094 21.589844 72.488281 21.496094 72.953125 21.238281 C 74.96875 19.105469 77.390625 17.660156 80.226562 16.898438 L 80.226562 48.410156 C 77.148438 48.410156 74.046875 48.578125 71.039062 48.820312 C 70.789062 48.902344 70.558594 49.019531 70.347656 49.175781 C 70.136719 49.332031 69.957031 49.515625 69.804688 49.730469 C 69.652344 49.945312 69.539062 50.179688 69.464844 50.433594 C 69.390625 50.683594 69.355469 50.941406 69.363281 51.203125 C 69.371094 51.464844 69.421875 51.71875 69.511719 51.964844 C 69.601562 52.210938 69.730469 52.4375 69.894531 52.644531 C 70.058594 52.847656 70.25 53.019531 70.472656 53.164062 C 70.691406 53.304688 70.929688 53.410156 71.183594 53.476562 L 71.402344 53.476562 C 74.289062 53.257812 77.269531 53.136719 80.226562 53.085938 L 80.226562 76.695312 L 17.859375 76.695312 C 17.539062 76.695312 17.230469 76.757812 16.933594 76.878906 C 16.636719 77.003906 16.375 77.179688 16.148438 77.40625 C 15.917969 77.632812 15.746094 77.894531 15.621094 78.191406 C 15.5 78.488281 15.4375 78.796875 15.4375 79.117188 C 15.4375 80.214844 15.46875 81.3125 15.523438 82.40625 C 15.578125 83.5 15.660156 84.59375 15.769531 85.683594 C 15.878906 86.777344 16.015625 87.863281 16.179688 88.949219 C 16.34375 90.03125 16.53125 91.113281 16.746094 92.1875 C 16.964844 93.261719 17.203125 94.332031 17.472656 95.394531 C 17.742188 96.457031 18.035156 97.511719 18.355469 98.5625 C 18.675781 99.609375 19.019531 100.648438 19.390625 101.679688 C 19.761719 102.714844 20.160156 103.734375 20.582031 104.746094 C 21.003906 105.757812 21.449219 106.761719 21.917969 107.75 C 22.386719 108.742188 22.882812 109.71875 23.402344 110.6875 C 23.917969 111.652344 24.460938 112.605469 25.027344 113.542969 C 25.59375 114.484375 26.179688 115.410156 26.789062 116.320312 C 27.402344 117.230469 28.035156 118.125 28.6875 119.003906 C 29.34375 119.882812 30.019531 120.746094 30.714844 121.59375 C 31.410156 122.441406 32.128906 123.269531 32.867188 124.082031 C 33.605469 124.890625 34.359375 125.683594 35.136719 126.457031 C 35.914062 127.234375 36.707031 127.988281 37.523438 128.722656 C 38.335938 129.457031 39.167969 130.171875 40.015625 130.867188 C 40.863281 131.5625 41.730469 132.234375 42.609375 132.886719 C 43.492188 133.539062 44.390625 134.167969 45.300781 134.773438 C 46.214844 135.382812 47.140625 135.96875 48.082031 136.53125 C 49.023438 137.09375 49.976562 137.632812 50.945312 138.148438 C 51.914062 138.664062 52.894531 139.152344 53.882812 139.621094 C 54.875 140.089844 55.878906 140.53125 56.890625 140.949219 C 57.90625 141.367188 58.929688 141.761719 59.960938 142.128906 C 60.996094 142.496094 62.035156 142.839844 63.085938 143.15625 C 64.136719 143.472656 65.191406 143.765625 66.253906 144.027344 C 67.320312 144.292969 68.390625 144.53125 69.464844 144.746094 C 70.539062 144.957031 71.621094 145.144531 72.707031 145.304688 C 73.789062 145.464844 74.878906 145.597656 75.96875 145.703125 C 77.0625 145.808594 78.152344 145.886719 79.25 145.941406 C 80.34375 145.992188 81.441406 146.019531 82.535156 146.015625 C 83.632812 146.015625 84.726562 145.988281 85.824219 145.933594 C 86.917969 145.875 88.011719 145.796875 89.101562 145.6875 C 90.195312 145.578125 91.28125 145.441406 92.367188 145.28125 C 93.449219 145.117188 94.53125 144.929688 95.605469 144.714844 C 96.679688 144.5 97.75 144.257812 98.8125 143.988281 C 99.875 143.722656 100.929688 143.429688 101.980469 143.109375 C 103.027344 142.789062 104.070312 142.445312 105.101562 142.074219 C 106.132812 141.703125 107.15625 141.308594 108.167969 140.886719 C 109.179688 140.46875 110.183594 140.023438 111.171875 139.550781 C 112.164062 139.082031 113.140625 138.589844 114.109375 138.070312 C 115.074219 137.554688 116.027344 137.011719 116.96875 136.449219 C 117.90625 135.882812 118.832031 135.296875 119.742188 134.683594 C 120.65625 134.074219 121.550781 133.445312 122.429688 132.789062 C 123.308594 132.136719 124.171875 131.460938 125.019531 130.765625 C 125.867188 130.066406 126.695312 129.351562 127.507812 128.613281 C 128.320312 127.875 129.113281 127.121094 129.886719 126.34375 C 130.664062 125.570312 131.417969 124.773438 132.152344 123.960938 C 132.886719 123.148438 133.605469 122.316406 134.296875 121.46875 C 134.992188 120.621094 135.667969 119.757812 136.320312 118.875 C 136.972656 117.992188 137.601562 117.097656 138.210938 116.183594 C 138.820312 115.273438 139.40625 114.347656 139.96875 113.40625 C 140.53125 112.464844 141.070312 111.511719 141.585938 110.542969 C 142.101562 109.578125 142.59375 108.597656 143.0625 107.605469 C 143.53125 106.613281 143.972656 105.613281 144.390625 104.597656 C 144.8125 103.585938 145.203125 102.5625 145.574219 101.53125 C 145.941406 100.496094 146.285156 99.457031 146.601562 98.40625 C 146.921875 97.355469 147.210938 96.300781 147.476562 95.238281 C 147.742188 94.171875 147.980469 93.101562 148.195312 92.027344 C 148.410156 90.953125 148.59375 89.871094 148.753906 88.789062 C 148.914062 87.703125 149.050781 86.617188 149.15625 85.523438 C 149.261719 84.433594 149.34375 83.339844 149.394531 82.246094 C 149.449219 81.148438 149.476562 80.054688 149.472656 78.957031 C 149.472656 77.859375 149.445312 76.765625 149.390625 75.671875 C 149.335938 74.574219 149.257812 73.480469 149.148438 72.390625 C 149.039062 71.300781 148.90625 70.210938 148.742188 69.128906 C 148.582031 68.042969 148.394531 66.964844 148.179688 65.886719 C 147.964844 64.8125 147.722656 63.742188 147.457031 62.679688 C 147.191406 61.617188 146.898438 60.5625 146.578125 59.511719 C 146.261719 58.460938 145.914062 57.421875 145.546875 56.390625 C 145.175781 55.359375 144.78125 54.335938 144.359375 53.324219 C 143.941406 52.308594 143.496094 51.308594 143.027344 50.316406 C 142.558594 49.328125 142.066406 48.347656 141.546875 47.382812 C 141.03125 46.414062 140.488281 45.460938 139.925781 44.519531 C 139.363281 43.582031 138.773438 42.65625 138.164062 41.742188 C 137.554688 40.832031 136.925781 39.9375 136.269531 39.054688 C 135.617188 38.175781 134.941406 37.3125 134.246094 36.464844 C 133.550781 35.617188 132.835938 34.785156 132.097656 33.976562 C 131.363281 33.164062 130.605469 32.367188 129.832031 31.59375 C 129.054688 30.820312 128.261719 30.0625 127.449219 29.328125 C 126.636719 28.589844 125.804688 27.875 124.957031 27.179688 C 124.109375 26.484375 123.246094 25.8125 122.367188 25.15625 C 121.484375 24.503906 120.589844 23.875 119.675781 23.265625 C 118.765625 22.65625 117.839844 22.070312 116.898438 21.507812 C 115.957031 20.941406 115.003906 20.402344 114.035156 19.886719 C 113.070312 19.371094 112.089844 18.878906 111.097656 18.410156 C 110.109375 17.941406 109.105469 17.496094 108.09375 17.078125 C 107.082031 16.65625 106.058594 16.261719 105.023438 15.894531 C 103.992188 15.523438 102.953125 15.179688 101.902344 14.863281 C 100.855469 14.542969 99.796875 14.253906 98.734375 13.984375 C 97.671875 13.71875 96.601562 13.480469 95.523438 13.265625 C 94.449219 13.050781 93.371094 12.863281 92.285156 12.703125 C 91.199219 12.542969 90.113281 12.410156 89.023438 12.300781 C 87.929688 12.195312 86.839844 12.113281 85.742188 12.058594 C 84.648438 12.003906 83.550781 11.980469 82.457031 11.980469 Z M 84.878906 141.097656 L 84.878906 109.730469 C 91.8125 109.636719 98.707031 109.046875 105.554688 107.960938 C 101.457031 126.070312 93.726562 139.132812 84.878906 141.097656 Z M 84.878906 48.3125 L 84.878906 16.921875 C 93.726562 18.886719 101.457031 31.953125 105.554688 50.082031 C 98.707031 48.972656 91.816406 48.382812 84.878906 48.3125 Z M 110.570312 51.003906 C 107.542969 36.3125 102.1875 24.632812 95.472656 17.988281 C 96.9375 18.304688 98.390625 18.671875 99.832031 19.089844 C 101.269531 19.507812 102.691406 19.976562 104.097656 20.496094 C 105.503906 21.015625 106.890625 21.585938 108.253906 22.207031 C 109.621094 22.828125 110.960938 23.496094 112.277344 24.210938 C 113.597656 24.929688 114.886719 25.691406 116.148438 26.5 C 117.410156 27.308594 118.640625 28.160156 119.84375 29.058594 C 121.042969 29.957031 122.210938 30.894531 123.34375 31.878906 C 124.476562 32.859375 125.574219 33.878906 126.632812 34.941406 C 127.695312 36 128.714844 37.097656 129.695312 38.230469 C 130.679688 39.363281 131.617188 40.53125 132.515625 41.730469 C 133.414062 42.933594 134.265625 44.164062 135.074219 45.425781 C 135.882812 46.6875 136.648438 47.980469 137.363281 49.296875 C 138.078125 50.613281 138.746094 51.953125 139.367188 53.320312 C 139.988281 54.683594 140.558594 56.070312 141.078125 57.476562 C 141.597656 58.882812 142.066406 60.304688 142.488281 61.746094 C 142.90625 63.183594 143.269531 64.636719 143.585938 66.101562 C 136.941406 59.363281 125.261719 54.03125 110.570312 51.003906 Z M 111.492188 101.902344 C 112.597656 95.0625 113.1875 88.179688 113.261719 81.25 L 144.652344 81.25 C 142.6875 90.195312 129.625 97.902344 111.542969 102 Z M 108.609375 76.695312 L 84.878906 76.695312 L 84.878906 52.964844 C 92.160156 53.058594 99.382812 53.746094 106.546875 55.027344 C 107.832031 62.191406 108.515625 69.414062 108.609375 76.695312 Z M 84.878906 81.347656 L 108.609375 81.347656 C 108.515625 88.628906 107.828125 95.851562 106.546875 103.019531 C 99.382812 104.289062 92.15625 104.972656 84.878906 105.078125 Z M 111.542969 56.019531 C 129.671875 60.117188 142.734375 67.847656 144.699219 76.695312 L 113.261719 76.695312 C 113.207031 69.761719 112.632812 62.867188 111.542969 56.019531 Z M 95.472656 140.03125 C 102.1875 133.414062 107.589844 121.707031 110.570312 107.015625 C 125.261719 104.011719 136.941406 98.65625 143.585938 91.917969 C 143.269531 93.382812 142.90625 94.835938 142.488281 96.277344 C 142.066406 97.714844 141.597656 99.136719 141.078125 100.542969 C 140.558594 101.949219 139.988281 103.335938 139.367188 104.699219 C 138.746094 106.066406 138.078125 107.40625 137.363281 108.722656 C 136.648438 110.039062 135.882812 111.332031 135.074219 112.59375 C 134.265625 113.855469 133.414062 115.085938 132.515625 116.289062 C 131.617188 117.488281 130.679688 118.65625 129.695312 119.789062 C 128.714844 120.921875 127.695312 122.019531 126.632812 123.078125 C 125.574219 124.140625 124.476562 125.160156 123.34375 126.140625 C 122.210938 127.125 121.042969 128.0625 119.84375 128.960938 C 118.640625 129.859375 117.410156 130.710938 116.148438 131.519531 C 114.886719 132.328125 113.597656 133.09375 112.277344 133.808594 C 110.960938 134.523438 109.621094 135.191406 108.253906 135.8125 C 106.890625 136.433594 105.503906 137.003906 104.097656 137.523438 C 102.691406 138.042969 101.269531 138.511719 99.832031 138.929688 C 98.390625 139.351562 96.9375 139.714844 95.472656 140.03125 Z M 80.226562 105.078125 C 72.949219 104.972656 65.722656 104.285156 58.558594 103.019531 C 57.289062 95.851562 56.601562 88.628906 56.496094 81.347656 L 80.226562 81.347656 Z M 59.574219 107.960938 C 66.417969 109.042969 73.300781 109.632812 80.226562 109.730469 L 80.226562 141.097656 C 71.378906 139.132812 63.648438 126.070312 59.574219 107.960938 Z M 54.558594 107.015625 C 57.5625 121.707031 62.917969 133.414062 69.632812 140.03125 C 68.167969 139.714844 66.714844 139.351562 65.277344 138.933594 C 63.835938 138.515625 62.414062 138.042969 61.007812 137.523438 C 59.601562 137.003906 58.214844 136.433594 56.851562 135.8125 C 55.488281 135.195312 54.144531 134.527344 52.828125 133.808594 C 51.511719 133.09375 50.222656 132.332031 48.960938 131.519531 C 47.699219 130.710938 46.46875 129.859375 45.269531 128.960938 C 44.066406 128.0625 42.898438 127.125 41.765625 126.144531 C 40.632812 125.160156 39.539062 124.140625 38.476562 123.082031 C 37.417969 122.019531 36.398438 120.921875 35.417969 119.789062 C 34.4375 118.65625 33.496094 117.488281 32.601562 116.289062 C 31.703125 115.085938 30.851562 113.855469 30.042969 112.59375 C 29.234375 111.332031 28.472656 110.039062 27.757812 108.722656 C 27.042969 107.40625 26.375 106.066406 25.753906 104.699219 C 25.136719 103.335938 24.566406 101.949219 24.046875 100.542969 C 23.527344 99.136719 23.058594 97.714844 22.640625 96.273438 C 22.222656 94.835938 21.859375 93.382812 21.542969 91.917969 C 28.160156 98.65625 39.867188 104.011719 54.558594 107.015625 Z M 53.613281 102 C 35.507812 97.902344 22.441406 90.195312 20.453125 81.347656 L 51.964844 81.347656 C 52.023438 88.273438 52.570312 95.15625 53.613281 102 Z M 53.613281 102 " fill-opacity="1" fill-rule="nonzero"/></g><g clip-path="url(#fc45f2971c)"><path fill="#ffffff" d="M 15.605469 61.011719 C 15.324219 61.855469 15.179688 62.71875 15.175781 63.609375 C 15.171875 64.496094 15.304688 65.363281 15.582031 66.207031 C 15.855469 67.054688 16.257812 67.832031 16.785156 68.550781 C 17.308594 69.265625 17.9375 69.878906 18.660156 70.394531 C 19.375 70.929688 20.152344 71.335938 21 71.617188 C 21.84375 71.902344 22.714844 72.042969 23.605469 72.042969 C 24.496094 72.042969 25.367188 71.902344 26.210938 71.617188 C 27.058594 71.335938 27.835938 70.929688 28.550781 70.394531 L 38.027344 63.507812 C 38.683594 63.027344 39.417969 62.785156 40.234375 62.78125 C 41.046875 62.78125 41.78125 63.023438 42.4375 63.507812 L 51.941406 70.394531 C 52.652344 70.929688 53.433594 71.335938 54.277344 71.617188 C 55.125 71.902344 55.992188 72.042969 56.882812 72.042969 C 57.777344 72.042969 58.644531 71.902344 59.492188 71.617188 C 60.335938 71.335938 61.117188 70.929688 61.828125 70.394531 C 62.554688 69.878906 63.179688 69.265625 63.707031 68.550781 C 64.234375 67.832031 64.632812 67.054688 64.910156 66.207031 C 65.183594 65.363281 65.320312 64.496094 65.316406 63.609375 C 65.308594 62.71875 65.167969 61.855469 64.882812 61.011719 L 61.246094 49.839844 C 61.125 49.460938 61.0625 49.078125 61.0625 48.679688 C 61.0625 48.285156 61.125 47.898438 61.246094 47.523438 C 61.367188 47.144531 61.546875 46.796875 61.777344 46.476562 C 62.007812 46.15625 62.285156 45.878906 62.605469 45.644531 L 72.105469 38.738281 C 72.816406 38.21875 73.433594 37.601562 73.949219 36.886719 C 74.46875 36.171875 74.863281 35.394531 75.136719 34.558594 C 75.410156 33.71875 75.546875 32.859375 75.550781 31.976562 C 75.550781 31.09375 75.421875 30.234375 75.152344 29.394531 C 74.882812 28.554688 74.492188 27.777344 73.980469 27.058594 C 73.46875 26.339844 72.855469 25.71875 72.148438 25.195312 C 71.441406 24.667969 70.667969 24.265625 69.832031 23.984375 C 69 23.699219 68.140625 23.554688 67.257812 23.539062 L 55.429688 23.539062 C 55.035156 23.539062 54.648438 23.476562 54.273438 23.355469 C 53.894531 23.230469 53.546875 23.054688 53.226562 22.820312 C 52.910156 22.589844 52.632812 22.3125 52.398438 21.992188 C 52.167969 21.671875 51.988281 21.324219 51.867188 20.945312 L 48.230469 9.796875 C 47.960938 8.953125 47.566406 8.167969 47.042969 7.449219 C 46.523438 6.726562 45.90625 6.105469 45.1875 5.582031 C 44.46875 5.058594 43.6875 4.660156 42.84375 4.382812 C 42 4.109375 41.132812 3.96875 40.246094 3.96875 C 39.355469 3.96875 38.488281 4.109375 37.644531 4.382812 C 36.800781 4.660156 36.019531 5.058594 35.300781 5.582031 C 34.582031 6.105469 33.964844 6.726562 33.445312 7.449219 C 32.925781 8.167969 32.527344 8.953125 32.257812 9.796875 L 28.621094 20.945312 C 28.5 21.324219 28.324219 21.671875 28.089844 21.992188 C 27.855469 22.3125 27.582031 22.589844 27.261719 22.820312 C 26.941406 23.054688 26.59375 23.230469 26.21875 23.355469 C 25.839844 23.476562 25.457031 23.539062 25.058594 23.539062 L 13.304688 23.539062 C 12.414062 23.53125 11.546875 23.660156 10.699219 23.929688 C 9.851562 24.203125 9.066406 24.597656 8.347656 25.125 C 7.628906 25.648438 7.011719 26.273438 6.496094 26.996094 C 5.980469 27.71875 5.589844 28.507812 5.328125 29.359375 C 5.042969 30.199219 4.898438 31.066406 4.894531 31.953125 C 4.886719 32.84375 5.023438 33.710938 5.296875 34.554688 C 5.574219 35.402344 5.972656 36.179688 6.503906 36.894531 C 7.03125 37.613281 7.65625 38.226562 8.382812 38.738281 L 17.859375 45.644531 C 18.183594 45.878906 18.460938 46.152344 18.695312 46.472656 C 18.929688 46.792969 19.109375 47.140625 19.230469 47.519531 C 19.355469 47.894531 19.417969 48.28125 19.421875 48.679688 C 19.421875 49.074219 19.363281 49.460938 19.242188 49.839844 Z M 23.652344 51.316406 C 23.933594 50.472656 24.074219 49.605469 24.074219 48.71875 C 24.078125 47.828125 23.941406 46.960938 23.664062 46.117188 C 23.390625 45.269531 22.992188 44.488281 22.46875 43.769531 C 21.945312 43.050781 21.320312 42.433594 20.597656 41.914062 L 11.097656 34.980469 C 10.785156 34.746094 10.515625 34.46875 10.289062 34.148438 C 10.058594 33.828125 9.886719 33.480469 9.769531 33.105469 C 9.652344 32.734375 9.59375 32.351562 9.59375 31.957031 C 9.597656 31.566406 9.660156 31.183594 9.78125 30.808594 C 9.902344 30.4375 10.078125 30.09375 10.308594 29.773438 C 10.535156 29.457031 10.808594 29.179688 11.125 28.949219 C 11.441406 28.714844 11.785156 28.539062 12.15625 28.414062 C 12.53125 28.289062 12.910156 28.222656 13.304688 28.21875 L 25.058594 28.21875 C 25.945312 28.21875 26.8125 28.082031 27.65625 27.808594 C 28.5 27.535156 29.28125 27.136719 29.996094 26.613281 C 30.714844 26.089844 31.332031 25.46875 31.851562 24.75 C 32.371094 24.027344 32.765625 23.246094 33.035156 22.402344 L 36.667969 11.25 C 36.792969 10.875 36.96875 10.523438 37.203125 10.203125 C 37.433594 9.878906 37.710938 9.601562 38.035156 9.367188 C 38.355469 9.136719 38.703125 8.957031 39.082031 8.832031 C 39.460938 8.710938 39.847656 8.648438 40.246094 8.648438 C 40.640625 8.648438 41.03125 8.710938 41.40625 8.832031 C 41.785156 8.957031 42.132812 9.136719 42.457031 9.367188 C 42.777344 9.601562 43.054688 9.878906 43.285156 10.203125 C 43.519531 10.523438 43.699219 10.875 43.820312 11.25 L 47.429688 22.402344 C 47.703125 23.246094 48.101562 24.03125 48.621094 24.75 C 49.144531 25.46875 49.761719 26.089844 50.480469 26.613281 C 51.199219 27.136719 51.984375 27.535156 52.828125 27.808594 C 53.675781 28.085938 54.542969 28.21875 55.429688 28.21875 L 67.160156 28.21875 C 67.554688 28.21875 67.941406 28.28125 68.316406 28.40625 C 68.691406 28.53125 69.039062 28.707031 69.359375 28.941406 C 69.679688 29.171875 69.957031 29.449219 70.1875 29.769531 C 70.417969 30.089844 70.597656 30.4375 70.71875 30.8125 C 70.839844 31.191406 70.902344 31.574219 70.902344 31.972656 C 70.902344 32.367188 70.84375 32.753906 70.722656 33.128906 C 70.601562 33.503906 70.421875 33.851562 70.191406 34.171875 C 69.960938 34.496094 69.6875 34.773438 69.367188 35.003906 L 59.867188 41.914062 C 59.148438 42.433594 58.53125 43.054688 58.011719 43.769531 C 57.492188 44.488281 57.09375 45.265625 56.820312 46.109375 C 56.542969 46.949219 56.40625 47.816406 56.40625 48.699219 C 56.40625 49.585938 56.539062 50.449219 56.8125 51.292969 L 60.449219 62.46875 C 60.578125 62.84375 60.648438 63.230469 60.652344 63.628906 C 60.65625 64.027344 60.597656 64.414062 60.476562 64.792969 C 60.355469 65.171875 60.175781 65.519531 59.9375 65.839844 C 59.699219 66.160156 59.417969 66.433594 59.089844 66.660156 C 58.429688 67.15625 57.683594 67.40625 56.859375 67.410156 C 56.050781 67.402344 55.324219 67.152344 54.679688 66.660156 L 45.175781 59.726562 C 44.457031 59.207031 43.675781 58.8125 42.832031 58.539062 C 41.988281 58.265625 41.121094 58.128906 40.234375 58.128906 C 39.34375 58.128906 38.476562 58.265625 37.632812 58.539062 C 36.789062 58.8125 36.007812 59.207031 35.289062 59.726562 L 25.8125 66.636719 C 25.167969 67.128906 24.441406 67.378906 23.628906 67.386719 C 22.804688 67.382812 22.058594 67.132812 21.398438 66.636719 C 21.074219 66.410156 20.789062 66.136719 20.554688 65.816406 C 20.316406 65.496094 20.136719 65.148438 20.011719 64.769531 C 19.890625 64.390625 19.832031 64 19.835938 63.601562 C 19.839844 63.207031 19.910156 62.820312 20.042969 62.441406 Z M 23.652344 51.316406 " fill-opacity="1" fill-rule="nonzero"/></g></svg>