<svg xmlns="http://www.w3.org/2000/svg" xmlns:xlink="http://www.w3.org/1999/xlink" width="500" zoomAndPan="magnify" viewBox="0 0 375 374.999991" height="500" preserveAspectRatio="xMidYMid meet" version="1.0"><defs><g/></defs><g fill="#ffffff" fill-opacity="1"><g transform="translate(82.237346, 200.999987)"><g><path d="M 12.015625 -7.296875 L 25.890625 -7.296875 L 25.890625 0 L 4.140625 0 L 4.140625 -36.234375 L 12.015625 -36.234375 Z M 12.015625 -7.296875 "/></g></g></g><g fill="#ffffff" fill-opacity="1"><g transform="translate(106.306281, 200.999987)"><g><path d="M 16.921875 0.78125 C 14.023438 0.78125 11.4375 0.132812 9.15625 -1.15625 C 6.882812 -2.457031 5.09375 -4.21875 3.78125 -6.4375 C 2.46875 -8.664062 1.8125 -11.179688 1.8125 -13.984375 C 1.8125 -16.804688 2.46875 -19.332031 3.78125 -21.5625 C 5.09375 -23.789062 6.882812 -25.539062 9.15625 -26.8125 C 11.4375 -28.09375 14.023438 -28.734375 16.921875 -28.734375 C 19.785156 -28.734375 22.359375 -28.09375 24.640625 -26.8125 C 26.921875 -25.539062 28.710938 -23.789062 30.015625 -21.5625 C 31.328125 -19.332031 31.984375 -16.804688 31.984375 -13.984375 C 31.984375 -11.179688 31.328125 -8.664062 30.015625 -6.4375 C 28.710938 -4.21875 26.921875 -2.457031 24.640625 -1.15625 C 22.359375 0.132812 19.785156 0.78125 16.921875 0.78125 Z M 16.921875 -6.3125 C 19.097656 -6.3125 20.875 -7.019531 22.25 -8.4375 C 23.632812 -9.851562 24.328125 -11.703125 24.328125 -13.984375 C 24.328125 -16.253906 23.632812 -18.097656 22.25 -19.515625 C 20.875 -20.929688 19.097656 -21.640625 16.921875 -21.640625 C 14.710938 -21.640625 12.914062 -20.929688 11.53125 -19.515625 C 10.15625 -18.097656 9.46875 -16.253906 9.46875 -13.984375 C 9.46875 -11.703125 10.15625 -9.851562 11.53125 -8.4375 C 12.914062 -7.019531 14.710938 -6.3125 16.921875 -6.3125 Z M 16.921875 -6.3125 "/></g></g></g><g fill="#ffffff" fill-opacity="1"><g transform="translate(137.156011, 200.999987)"><g><path d="M 26.1875 -27.953125 L 31.109375 -27.953125 L 31.109375 -3.265625 C 31.109375 -0.328125 30.53125 2.191406 29.375 4.296875 C 28.21875 6.398438 26.566406 8.019531 24.421875 9.15625 C 22.285156 10.300781 19.753906 10.875 16.828125 10.875 C 13.023438 10.875 9.851562 9.957031 7.3125 8.125 C 4.78125 6.300781 3.207031 3.800781 2.59375 0.625 L 10.09375 0.625 C 10.507812 1.863281 11.363281 2.800781 12.65625 3.4375 C 13.945312 4.082031 15.285156 4.40625 16.671875 4.40625 C 18.597656 4.40625 20.242188 3.828125 21.609375 2.671875 C 22.972656 1.515625 23.65625 -0.0976562 23.65625 -2.171875 L 23.65625 -3.203125 C 22.550781 -2.410156 21.328125 -1.796875 19.984375 -1.359375 C 18.640625 -0.929688 17.207031 -0.71875 15.6875 -0.71875 C 13.09375 -0.71875 10.742188 -1.335938 8.640625 -2.578125 C 6.535156 -3.828125 4.867188 -5.503906 3.640625 -7.609375 C 2.421875 -9.710938 1.8125 -12.078125 1.8125 -14.703125 C 1.8125 -17.328125 2.421875 -19.695312 3.640625 -21.8125 C 4.867188 -23.9375 6.535156 -25.617188 8.640625 -26.859375 C 10.742188 -28.109375 13.09375 -28.734375 15.6875 -28.734375 C 17.507812 -28.734375 19.210938 -28.421875 20.796875 -27.796875 C 22.390625 -27.171875 23.789062 -26.289062 25 -25.15625 Z M 16.5625 -7.453125 C 18.632812 -7.453125 20.34375 -8.132812 21.6875 -9.5 C 23.03125 -10.863281 23.703125 -12.597656 23.703125 -14.703125 C 23.703125 -16.773438 23.035156 -18.488281 21.703125 -19.84375 C 20.378906 -21.207031 18.664062 -21.890625 16.5625 -21.890625 C 14.53125 -21.890625 12.835938 -21.207031 11.484375 -19.84375 C 10.140625 -18.488281 9.46875 -16.773438 9.46875 -14.703125 C 9.46875 -12.597656 10.128906 -10.863281 11.453125 -9.5 C 12.785156 -8.132812 14.488281 -7.453125 16.5625 -7.453125 Z M 16.5625 -7.453125 "/></g></g></g><g fill="#ffffff" fill-opacity="1"><g transform="translate(168.937448, 200.999987)"><g><path d="M 3.625 -31.6875 L 3.625 -38.71875 L 11.1875 -38.71875 L 11.1875 -31.6875 Z M 3.625 0 L 3.625 -27.953125 L 11.1875 -27.953125 L 11.1875 0 Z M 3.625 0 "/></g></g></g><g fill="#ffffff" fill-opacity="1"><g transform="translate(180.790597, 200.999987)"><g><path d="M 13.5625 0.78125 C 11.21875 0.78125 9.164062 0.367188 7.40625 -0.453125 C 5.644531 -1.285156 4.269531 -2.453125 3.28125 -3.953125 C 2.300781 -5.460938 1.8125 -7.21875 1.8125 -9.21875 L 9.15625 -9.21875 C 9.195312 -7.96875 9.644531 -7.03125 10.5 -6.40625 C 11.363281 -5.789062 12.472656 -5.484375 13.828125 -5.484375 C 14.890625 -5.484375 15.816406 -5.71875 16.609375 -6.1875 C 17.410156 -6.65625 17.8125 -7.351562 17.8125 -8.28125 C 17.8125 -9.25 17.285156 -9.929688 16.234375 -10.328125 C 15.179688 -10.722656 13.910156 -11.039062 12.421875 -11.28125 C 11.316406 -11.457031 10.171875 -11.695312 8.984375 -12 C 7.796875 -12.3125 6.695312 -12.757812 5.6875 -13.34375 C 4.6875 -13.9375 3.867188 -14.75 3.234375 -15.78125 C 2.597656 -16.820312 2.28125 -18.171875 2.28125 -19.828125 C 2.28125 -21.585938 2.753906 -23.140625 3.703125 -24.484375 C 4.648438 -25.828125 5.957031 -26.867188 7.625 -27.609375 C 9.300781 -28.359375 11.28125 -28.734375 13.5625 -28.734375 C 15.800781 -28.734375 17.757812 -28.34375 19.4375 -27.5625 C 21.113281 -26.789062 22.414062 -25.703125 23.34375 -24.296875 C 24.28125 -22.898438 24.75 -21.269531 24.75 -19.40625 L 17.546875 -19.40625 C 17.546875 -20.507812 17.175781 -21.335938 16.4375 -21.890625 C 15.695312 -22.441406 14.671875 -22.71875 13.359375 -22.71875 C 12.179688 -22.71875 11.265625 -22.46875 10.609375 -21.96875 C 9.953125 -21.46875 9.625 -20.820312 9.625 -20.03125 C 9.625 -19.101562 10.140625 -18.460938 11.171875 -18.109375 C 12.210938 -17.765625 13.457031 -17.472656 14.90625 -17.234375 C 16.039062 -17.023438 17.210938 -16.773438 18.421875 -16.484375 C 19.628906 -16.191406 20.75 -15.75 21.78125 -15.15625 C 22.820312 -14.570312 23.660156 -13.765625 24.296875 -12.734375 C 24.941406 -11.703125 25.265625 -10.335938 25.265625 -8.640625 C 25.265625 -6.742188 24.78125 -5.085938 23.8125 -3.671875 C 22.84375 -2.253906 21.476562 -1.15625 19.71875 -0.375 C 17.957031 0.394531 15.90625 0.78125 13.5625 0.78125 Z M 13.5625 0.78125 "/></g></g></g><g fill="#ffffff" fill-opacity="1"><g transform="translate(205.014819, 200.999987)"><g><path d="M 17.296875 -6.734375 L 20.703125 -6.734375 L 20.703125 0 L 15.375 0 C 12.300781 0 9.875 -0.882812 8.09375 -2.65625 C 6.320312 -4.4375 5.4375 -6.878906 5.4375 -9.984375 L 5.4375 -21.890625 L 0.359375 -21.890625 L 0.359375 -23.5 L 11.4375 -35.25 L 12.84375 -35.25 L 12.84375 -27.953125 L 20.546875 -27.953125 L 20.546875 -21.890625 L 13 -21.890625 L 13 -10.96875 C 13 -9.625 13.367188 -8.582031 14.109375 -7.84375 C 14.847656 -7.101562 15.910156 -6.734375 17.296875 -6.734375 Z M 17.296875 -6.734375 "/></g></g></g><g fill="#ffffff" fill-opacity="1"><g transform="translate(224.321676, 200.999987)"><g><path d="M 3.625 -31.6875 L 3.625 -38.71875 L 11.1875 -38.71875 L 11.1875 -31.6875 Z M 3.625 0 L 3.625 -27.953125 L 11.1875 -27.953125 L 11.1875 0 Z M 3.625 0 "/></g></g></g><g fill="#ffffff" fill-opacity="1"><g transform="translate(236.174824, 200.999987)"><g><path d="M 16.609375 0.78125 C 13.816406 0.78125 11.296875 0.125 9.046875 -1.1875 C 6.804688 -2.5 5.039062 -4.273438 3.75 -6.515625 C 2.457031 -8.765625 1.8125 -11.285156 1.8125 -14.078125 C 1.8125 -16.867188 2.457031 -19.367188 3.75 -21.578125 C 5.039062 -23.796875 6.804688 -25.539062 9.046875 -26.8125 C 11.296875 -28.09375 13.835938 -28.734375 16.671875 -28.734375 C 19.085938 -28.734375 21.285156 -28.257812 23.265625 -27.3125 C 25.253906 -26.363281 26.910156 -25.023438 28.234375 -23.296875 C 29.566406 -21.566406 30.457031 -19.566406 30.90625 -17.296875 L 23.390625 -17.296875 C 22.773438 -18.671875 21.867188 -19.738281 20.671875 -20.5 C 19.484375 -21.257812 18.128906 -21.640625 16.609375 -21.640625 C 15.265625 -21.640625 14.050781 -21.300781 12.96875 -20.625 C 11.882812 -19.957031 11.03125 -19.050781 10.40625 -17.90625 C 9.78125 -16.769531 9.46875 -15.476562 9.46875 -14.03125 C 9.46875 -12.582031 9.78125 -11.28125 10.40625 -10.125 C 11.03125 -8.96875 11.882812 -8.039062 12.96875 -7.34375 C 14.050781 -6.65625 15.265625 -6.3125 16.609375 -6.3125 C 18.171875 -6.3125 19.53125 -6.71875 20.6875 -7.53125 C 21.84375 -8.34375 22.742188 -9.507812 23.390625 -11.03125 L 31 -11.03125 C 30.550781 -8.675781 29.65625 -6.609375 28.3125 -4.828125 C 26.96875 -3.054688 25.296875 -1.675781 23.296875 -0.6875 C 21.296875 0.289062 19.066406 0.78125 16.609375 0.78125 Z M 16.609375 0.78125 "/></g></g></g><g fill="#ffffff" fill-opacity="1"><g transform="translate(265.575232, 200.999987)"><g><path d="M 13.5625 0.78125 C 11.21875 0.78125 9.164062 0.367188 7.40625 -0.453125 C 5.644531 -1.285156 4.269531 -2.453125 3.28125 -3.953125 C 2.300781 -5.460938 1.8125 -7.21875 1.8125 -9.21875 L 9.15625 -9.21875 C 9.195312 -7.96875 9.644531 -7.03125 10.5 -6.40625 C 11.363281 -5.789062 12.472656 -5.484375 13.828125 -5.484375 C 14.890625 -5.484375 15.816406 -5.71875 16.609375 -6.1875 C 17.410156 -6.65625 17.8125 -7.351562 17.8125 -8.28125 C 17.8125 -9.25 17.285156 -9.929688 16.234375 -10.328125 C 15.179688 -10.722656 13.910156 -11.039062 12.421875 -11.28125 C 11.316406 -11.457031 10.171875 -11.695312 8.984375 -12 C 7.796875 -12.3125 6.695312 -12.757812 5.6875 -13.34375 C 4.6875 -13.9375 3.867188 -14.75 3.234375 -15.78125 C 2.597656 -16.820312 2.28125 -18.171875 2.28125 -19.828125 C 2.28125 -21.585938 2.753906 -23.140625 3.703125 -24.484375 C 4.648438 -25.828125 5.957031 -26.867188 7.625 -27.609375 C 9.300781 -28.359375 11.28125 -28.734375 13.5625 -28.734375 C 15.800781 -28.734375 17.757812 -28.34375 19.4375 -27.5625 C 21.113281 -26.789062 22.414062 -25.703125 23.34375 -24.296875 C 24.28125 -22.898438 24.75 -21.269531 24.75 -19.40625 L 17.546875 -19.40625 C 17.546875 -20.507812 17.175781 -21.335938 16.4375 -21.890625 C 15.695312 -22.441406 14.671875 -22.71875 13.359375 -22.71875 C 12.179688 -22.71875 11.265625 -22.46875 10.609375 -21.96875 C 9.953125 -21.46875 9.625 -20.820312 9.625 -20.03125 C 9.625 -19.101562 10.140625 -18.460938 11.171875 -18.109375 C 12.210938 -17.765625 13.457031 -17.472656 14.90625 -17.234375 C 16.039062 -17.023438 17.210938 -16.773438 18.421875 -16.484375 C 19.628906 -16.191406 20.75 -15.75 21.78125 -15.15625 C 22.820312 -14.570312 23.660156 -13.765625 24.296875 -12.734375 C 24.941406 -11.703125 25.265625 -10.335938 25.265625 -8.640625 C 25.265625 -6.742188 24.78125 -5.085938 23.8125 -3.671875 C 22.84375 -2.253906 21.476562 -1.15625 19.71875 -0.375 C 17.957031 0.394531 15.90625 0.78125 13.5625 0.78125 Z M 13.5625 0.78125 "/></g></g></g></svg>