<svg xmlns="http://www.w3.org/2000/svg" xmlns:xlink="http://www.w3.org/1999/xlink" width="500" zoomAndPan="magnify" viewBox="0 0 375 374.999991" height="500" preserveAspectRatio="xMidYMid meet" version="1.0"><defs><clipPath id="98f1870f0e"><path d="M 52.722656 157 L 96 157 L 96 217 L 52.722656 217 Z M 52.722656 157 " clip-rule="nonzero"/></clipPath><clipPath id="2f85cf9f28"><path d="M 153 157 L 207 157 L 207 219.242188 L 153 219.242188 Z M 153 157 " clip-rule="nonzero"/></clipPath><clipPath id="a8da579c9b"><path d="M 275 155.492188 L 321.972656 155.492188 L 321.972656 219.242188 L 275 219.242188 Z M 275 155.492188 " clip-rule="nonzero"/></clipPath></defs><g clip-path="url(#98f1870f0e)"><path fill="#ffffff" d="M 89.40625 216.683594 L 58.460938 216.683594 C 55.292969 216.683594 52.722656 214.113281 52.722656 210.945312 L 52.722656 162.972656 C 52.722656 159.804688 55.292969 157.234375 58.460938 157.234375 C 61.628906 157.234375 64.199219 159.804688 64.199219 162.972656 L 64.199219 205.203125 L 89.40625 205.203125 C 92.574219 205.203125 95.144531 207.773438 95.144531 210.945312 C 95.144531 214.113281 92.574219 216.683594 89.40625 216.683594 Z M 89.40625 216.683594 " fill-opacity="1" fill-rule="nonzero"/></g><path fill="#ffffff" d="M 137.683594 216.683594 L 106.75 216.683594 C 103.585938 216.683594 101.015625 214.113281 101.015625 210.945312 L 101.015625 162.972656 C 101.015625 159.804688 103.585938 157.234375 106.75 157.234375 L 133.441406 157.234375 C 136.609375 157.234375 139.179688 159.804688 139.179688 162.972656 C 139.179688 166.140625 136.609375 168.710938 133.441406 168.710938 L 112.488281 168.710938 L 112.488281 205.203125 L 137.683594 205.203125 C 140.851562 205.203125 143.417969 207.773438 143.417969 210.945312 C 143.417969 214.113281 140.851562 216.683594 137.683594 216.683594 Z M 137.683594 216.683594 " fill-opacity="1" fill-rule="nonzero"/><path fill="#ffffff" d="M 133.394531 192.699219 L 108.777344 192.699219 C 105.609375 192.699219 103.039062 190.128906 103.039062 186.957031 C 103.039062 183.792969 105.609375 181.21875 108.777344 181.21875 L 133.394531 181.21875 C 136.5625 181.21875 139.132812 183.789062 139.132812 186.957031 C 139.132812 190.128906 136.5625 192.699219 133.394531 192.699219 Z M 133.394531 192.699219 " fill-opacity="1" fill-rule="nonzero"/><g clip-path="url(#2f85cf9f28)"><path fill="#ffffff" d="M 200.574219 219.082031 C 197.402344 219.082031 194.832031 216.511719 194.832031 213.339844 L 194.832031 182.898438 L 186.410156 196.316406 C 185.402344 197.914062 183.664062 198.921875 181.769531 198.996094 C 179.910156 198.996094 178.070312 198.195312 176.941406 196.675781 L 164.863281 180.367188 L 164.863281 213.339844 C 164.863281 216.511719 162.292969 219.082031 159.125 219.082031 C 155.957031 219.082031 153.390625 216.511719 153.390625 213.339844 L 153.390625 162.972656 C 153.390625 160.496094 154.976562 158.300781 157.328125 157.523438 C 159.675781 156.75 162.265625 157.5625 163.738281 159.558594 L 181.164062 183.09375 L 195.714844 159.925781 C 197.074219 157.757812 199.707031 156.753906 202.164062 157.460938 C 204.621094 158.167969 206.316406 160.417969 206.316406 162.976562 L 206.316406 213.34375 C 206.3125 216.511719 203.742188 219.082031 200.574219 219.082031 Z M 200.574219 219.082031 " fill-opacity="1" fill-rule="nonzero"/></g><g clip-path="url(#a8da579c9b)"><path fill="#ffffff" d="M 316.539062 219.082031 C 314.710938 219.082031 312.953125 218.203125 311.859375 216.660156 L 286.554688 180.984375 L 286.554688 213.339844 C 286.554688 216.511719 283.984375 219.082031 280.816406 219.082031 C 277.644531 219.082031 275.074219 216.511719 275.074219 213.339844 L 275.074219 162.972656 C 275.074219 160.476562 276.695312 158.265625 279.074219 157.503906 C 281.4375 156.75 284.050781 157.617188 285.496094 159.652344 L 310.796875 195.332031 L 310.796875 161.644531 C 310.796875 158.476562 313.367188 155.90625 316.539062 155.90625 C 319.707031 155.90625 322.277344 158.476562 322.277344 161.644531 L 322.277344 213.339844 C 322.277344 215.839844 320.660156 218.046875 318.28125 218.804688 C 317.707031 218.992188 317.117188 219.082031 316.539062 219.082031 Z M 316.539062 219.082031 " fill-opacity="1" fill-rule="nonzero"/></g><path fill="#ffffff" d="M 269.257812 186.171875 C 269.257812 187.09375 269.210938 188.011719 269.121094 188.925781 C 269.03125 189.839844 268.894531 190.75 268.714844 191.648438 C 268.535156 192.550781 268.3125 193.441406 268.046875 194.324219 C 267.78125 195.203125 267.472656 196.066406 267.117188 196.917969 C 266.765625 197.765625 266.375 198.597656 265.941406 199.40625 C 265.507812 200.21875 265.035156 201.003906 264.523438 201.769531 C 264.015625 202.535156 263.46875 203.273438 262.882812 203.980469 C 262.300781 204.691406 261.683594 205.375 261.035156 206.023438 C 260.382812 206.671875 259.703125 207.289062 258.992188 207.875 C 258.28125 208.457031 257.542969 209.003906 256.78125 209.515625 C 256.015625 210.027344 255.226562 210.496094 254.417969 210.929688 C 253.605469 211.363281 252.777344 211.757812 251.925781 212.109375 C 251.078125 212.460938 250.210938 212.769531 249.332031 213.035156 C 248.453125 213.304688 247.5625 213.527344 246.660156 213.707031 C 245.757812 213.886719 244.851562 214.019531 243.933594 214.109375 C 243.019531 214.199219 242.101562 214.246094 241.183594 214.246094 C 240.265625 214.246094 239.347656 214.199219 238.433594 214.109375 C 237.515625 214.019531 236.609375 213.886719 235.707031 213.707031 C 234.804688 213.527344 233.914062 213.304688 233.035156 213.035156 C 232.15625 212.769531 231.289062 212.460938 230.441406 212.109375 C 229.589844 211.757812 228.761719 211.363281 227.949219 210.929688 C 227.140625 210.496094 226.351562 210.027344 225.585938 209.515625 C 224.824219 209.003906 224.085938 208.457031 223.375 207.875 C 222.664062 207.289062 221.984375 206.671875 221.332031 206.023438 C 220.683594 205.375 220.066406 204.691406 219.484375 203.980469 C 218.898438 203.273438 218.351562 202.535156 217.84375 201.769531 C 217.332031 201.003906 216.859375 200.21875 216.425781 199.40625 C 215.992188 198.597656 215.601562 197.765625 215.246094 196.917969 C 214.894531 196.066406 214.585938 195.203125 214.320312 194.324219 C 214.054688 193.441406 213.828125 192.550781 213.652344 191.648438 C 213.472656 190.75 213.335938 189.839844 213.246094 188.925781 C 213.15625 188.011719 213.109375 187.09375 213.109375 186.171875 C 213.109375 185.253906 213.15625 184.335938 213.246094 183.421875 C 213.335938 182.507812 213.472656 181.597656 213.652344 180.695312 C 213.828125 179.796875 214.054688 178.902344 214.320312 178.023438 C 214.585938 177.144531 214.894531 176.28125 215.246094 175.429688 C 215.601562 174.582031 215.992188 173.75 216.425781 172.941406 C 216.859375 172.128906 217.332031 171.339844 217.84375 170.578125 C 218.351562 169.8125 218.898438 169.074219 219.484375 168.363281 C 220.066406 167.652344 220.683594 166.972656 221.332031 166.324219 C 221.984375 165.671875 222.664062 165.054688 223.375 164.472656 C 224.085938 163.890625 224.824219 163.34375 225.585938 162.832031 C 226.351562 162.320312 227.140625 161.847656 227.949219 161.414062 C 228.761719 160.980469 229.589844 160.589844 230.441406 160.238281 C 231.289062 159.886719 232.15625 159.578125 233.035156 159.308594 C 233.914062 159.042969 234.804688 158.820312 235.707031 158.640625 C 236.609375 158.460938 237.515625 158.328125 238.433594 158.234375 C 239.347656 158.144531 240.265625 158.101562 241.183594 158.101562 C 242.101562 158.101562 243.019531 158.144531 243.933594 158.234375 C 244.851562 158.328125 245.757812 158.460938 246.660156 158.640625 C 247.5625 158.820312 248.453125 159.042969 249.332031 159.308594 C 250.210938 159.578125 251.078125 159.886719 251.925781 160.238281 C 252.777344 160.589844 253.605469 160.980469 254.417969 161.414062 C 255.226562 161.847656 256.015625 162.320312 256.78125 162.832031 C 257.542969 163.34375 258.28125 163.890625 258.992188 164.472656 C 259.703125 165.054688 260.382812 165.671875 261.035156 166.324219 C 261.683594 166.972656 262.300781 167.652344 262.882812 168.363281 C 263.46875 169.074219 264.015625 169.8125 264.523438 170.578125 C 265.035156 171.339844 265.507812 172.128906 265.941406 172.941406 C 266.375 173.75 266.765625 174.582031 267.117188 175.429688 C 267.472656 176.28125 267.78125 177.144531 268.046875 178.023438 C 268.3125 178.902344 268.535156 179.796875 268.714844 180.695312 C 268.894531 181.597656 269.03125 182.507812 269.121094 183.421875 C 269.210938 184.335938 269.257812 185.253906 269.257812 186.171875 Z M 269.257812 186.171875 " fill-opacity="1" fill-rule="nonzero"/><path fill="#ffffff" d="M 264.84375 186.171875 C 264.84375 199.234375 254.257812 209.820312 241.183594 209.820312 C 228.113281 209.820312 217.523438 199.234375 217.523438 186.171875 C 217.523438 173.109375 228.113281 162.523438 241.183594 162.523438 C 254.257812 162.523438 264.84375 173.109375 264.84375 186.171875 Z M 264.84375 186.171875 " fill-opacity="1" fill-rule="nonzero"/><path fill="#ffffff" d="M 238.375 184.675781 L 227.078125 173.851562 C 227.078125 173.851562 223.707031 172.226562 221.160156 177.621094 C 221.160156 177.621094 219.589844 181.050781 219.734375 183.324219 C 219.734375 183.324219 219.765625 185.714844 223.121094 185.4375 Z M 238.375 184.675781 " fill-opacity="1" fill-rule="nonzero"/><path fill="#ffffff" d="M 242.964844 184.457031 L 253.996094 172.527344 C 253.996094 172.527344 257.339844 170.566406 259.996094 175.707031 C 259.996094 175.707031 261.652344 178.988281 261.558594 181.261719 C 261.558594 181.261719 261.589844 183.65625 258.230469 183.703125 Z M 242.964844 184.457031 " fill-opacity="1" fill-rule="nonzero"/><path fill="#ffffff" d="M 240.144531 183.128906 L 240.066406 167.457031 C 240.066406 167.457031 238.90625 163.972656 233.265625 166.320312 C 233.265625 166.320312 229.707031 167.828125 228.1875 169.632812 C 228.1875 169.632812 226.480469 171.449219 229.019531 173.46875 Z M 240.144531 183.128906 " fill-opacity="1" fill-rule="nonzero"/><path fill="#ffffff" d="M 241.410156 183.070312 L 241.113281 167.410156 C 241.113281 167.410156 242.199219 163.8125 247.886719 165.589844 C 247.886719 165.589844 251.476562 166.753906 253.035156 168.414062 C 253.035156 168.414062 254.78125 170.054688 252.300781 172.328125 Z M 241.410156 183.070312 " fill-opacity="1" fill-rule="nonzero"/><path fill="#ffffff" d="M 238.375 186.316406 L 227.640625 198.402344 C 227.640625 198.402344 224.34375 200.300781 221.496094 194.703125 C 221.496094 194.703125 219.730469 191.148438 219.753906 188.734375 C 219.753906 188.734375 219.65625 186.183594 223.027344 186.3125 Z M 238.375 186.316406 " fill-opacity="1" fill-rule="nonzero"/><path fill="#ffffff" d="M 242.996094 186.316406 L 254.707031 198.410156 C 254.707031 198.410156 258.160156 200.316406 260.5625 194.726562 C 260.5625 194.726562 262.035156 191.160156 261.816406 188.742188 C 261.816406 188.742188 261.707031 186.203125 258.34375 186.328125 Z M 242.996094 186.316406 " fill-opacity="1" fill-rule="nonzero"/><path fill="#ffffff" d="M 240.234375 187.875 L 241.015625 204.511719 C 241.015625 204.511719 240.03125 208.269531 234.257812 206.082031 C 234.257812 206.082031 230.605469 204.65625 228.980469 202.824219 C 228.980469 202.824219 227.175781 200.988281 229.59375 198.707031 Z M 240.234375 187.875 " fill-opacity="1" fill-rule="nonzero"/><path fill="#ffffff" d="M 241.511719 187.875 L 242.0625 204.519531 C 242.0625 204.519531 243.359375 208.269531 248.953125 206.082031 C 248.953125 206.082031 252.496094 204.660156 253.96875 202.832031 C 253.96875 202.832031 255.628906 200.996094 253.011719 198.707031 Z M 241.511719 187.875 " fill-opacity="1" fill-rule="nonzero"/><path fill="#ffffff" d="M 225.027344 176.785156 C 225.617188 177 226.570312 177.839844 227.023438 178.265625 C 227.589844 178.804688 228.4375 179.058594 229.066406 179.519531 C 229.328125 179.710938 229.574219 179.273438 229.316406 179.085938 C 228.15625 178.234375 226.519531 176.804688 225.160156 176.300781 C 224.855469 176.191406 224.726562 176.675781 225.027344 176.785156 Z M 225.027344 176.785156 " fill-opacity="1" fill-rule="nonzero"/><path fill="#ffffff" d="M 223.480469 180.195312 C 224.816406 180.925781 226.492188 181.402344 228.003906 181.527344 C 228.324219 181.554688 228.324219 181.054688 228.003906 181.027344 C 226.605469 180.910156 224.960938 180.433594 223.730469 179.765625 C 223.445312 179.609375 223.195312 180.042969 223.480469 180.195312 Z M 223.480469 180.195312 " fill-opacity="1" fill-rule="nonzero"/><path fill="#ffffff" d="M 229.84375 181.878906 C 230.898438 182.121094 232.007812 182.558594 233.042969 182.871094 C 233.351562 182.964844 233.488281 182.480469 233.175781 182.386719 C 232.113281 182.066406 231.050781 181.644531 229.972656 181.394531 C 229.660156 181.324219 229.527344 181.808594 229.84375 181.878906 Z M 229.84375 181.878906 " fill-opacity="1" fill-rule="nonzero"/><path fill="#ffffff" d="M 232.546875 169.25 C 233.359375 169.835938 233.691406 170.785156 234.230469 171.59375 C 234.402344 171.863281 234.835938 171.609375 234.65625 171.339844 C 234.046875 170.417969 233.710938 169.46875 232.796875 168.816406 C 232.539062 168.628906 232.285156 169.066406 232.546875 169.25 Z M 232.546875 169.25 " fill-opacity="1" fill-rule="nonzero"/><path fill="#ffffff" d="M 237.03125 167.773438 C 237.601562 168.4375 237.566406 169.71875 237.847656 170.535156 C 237.957031 170.839844 238.441406 170.707031 238.332031 170.402344 C 238 169.4375 238.070312 168.210938 237.382812 167.421875 C 237.175781 167.175781 236.820312 167.535156 237.03125 167.773438 Z M 237.03125 167.773438 " fill-opacity="1" fill-rule="nonzero"/><path fill="#ffffff" d="M 236.292969 173.304688 C 236.539062 174.457031 236.992188 175.578125 237.296875 176.726562 C 237.378906 177.039062 237.863281 176.90625 237.78125 176.59375 C 237.480469 175.464844 237.027344 174.308594 236.777344 173.167969 C 236.707031 172.855469 236.230469 172.988281 236.292969 173.304688 Z M 236.292969 173.304688 " fill-opacity="1" fill-rule="nonzero"/><path fill="#ffffff" d="M 228.90625 188.082031 C 229.5 188.082031 230.085938 188.082031 230.675781 188.082031 C 230.996094 188.082031 230.996094 187.582031 230.675781 187.582031 C 230.085938 187.582031 229.5 187.582031 228.90625 187.582031 C 228.585938 187.582031 228.585938 188.082031 228.90625 188.082031 Z M 228.90625 188.082031 " fill-opacity="1" fill-rule="nonzero"/><path fill="#ffffff" d="M 226.257812 190.734375 C 227.097656 190.734375 227.640625 190.695312 228.371094 190.257812 C 228.652344 190.09375 228.398438 189.65625 228.121094 189.824219 C 227.523438 190.144531 226.90625 190.28125 226.257812 190.234375 C 225.9375 190.234375 225.9375 190.734375 226.257812 190.734375 Z M 226.257812 190.734375 " fill-opacity="1" fill-rule="nonzero"/><path fill="#ffffff" d="M 232.351562 188.820312 C 232.757812 188.554688 233.152344 188.292969 233.570312 188.046875 C 233.847656 187.882812 233.597656 187.449219 233.316406 187.617188 C 232.902344 187.863281 232.507812 188.121094 232.101562 188.386719 C 231.828125 188.558594 232.082031 188.996094 232.351562 188.820312 Z M 232.351562 188.820312 " fill-opacity="1" fill-rule="nonzero"/><path fill="#ffffff" d="M 226.648438 194.972656 C 227.398438 194.386719 227.945312 193.722656 228.707031 193.132812 C 228.960938 192.941406 228.714844 192.503906 228.457031 192.703125 C 227.679688 193.304688 227.066406 194.015625 226.296875 194.621094 C 226.039062 194.820312 226.398438 195.171875 226.648438 194.972656 Z M 226.648438 194.972656 " fill-opacity="1" fill-rule="nonzero"/><path fill="#ffffff" d="M 222.609375 189.296875 C 223.855469 189.296875 224.890625 189.066406 226.140625 188.960938 C 226.460938 188.933594 226.460938 188.433594 226.140625 188.460938 C 224.953125 188.558594 223.804688 188.792969 222.609375 188.792969 C 222.289062 188.792969 222.289062 189.296875 222.609375 189.296875 Z M 222.609375 189.296875 " fill-opacity="1" fill-rule="nonzero"/><path fill="#ffffff" d="M 247.453125 167.597656 C 247.28125 169.082031 246.527344 170.578125 246.246094 172.058594 C 246.1875 172.375 246.671875 172.511719 246.730469 172.195312 C 247.027344 170.621094 247.773438 169.171875 247.957031 167.597656 C 247.996094 167.277344 247.492188 167.28125 247.453125 167.597656 Z M 247.453125 167.597656 " fill-opacity="1" fill-rule="nonzero"/><path fill="#ffffff" d="M 249.8125 169.796875 C 249.335938 170.527344 248.828125 171.144531 248.371094 171.894531 C 248.207031 172.171875 248.640625 172.421875 248.808594 172.144531 C 249.25 171.417969 249.785156 170.761719 250.246094 170.046875 C 250.425781 169.777344 249.984375 169.523438 249.8125 169.796875 Z M 249.8125 169.796875 " fill-opacity="1" fill-rule="nonzero"/><path fill="#ffffff" d="M 243.921875 171.246094 C 243.921875 172.613281 243.902344 173.972656 243.800781 175.335938 C 243.777344 175.660156 244.28125 175.65625 244.304688 175.335938 C 244.402344 173.972656 244.425781 172.613281 244.425781 171.246094 C 244.425781 170.921875 243.921875 170.921875 243.921875 171.246094 Z M 243.921875 171.246094 " fill-opacity="1" fill-rule="nonzero"/><path fill="#ffffff" d="M 248.609375 181.519531 C 249.964844 180.667969 250.847656 179.371094 252.363281 178.648438 C 252.65625 178.507812 252.398438 178.074219 252.113281 178.214844 C 250.609375 178.933594 249.726562 180.226562 248.359375 181.085938 C 248.082031 181.257812 248.335938 181.695312 248.609375 181.519531 Z M 248.609375 181.519531 " fill-opacity="1" fill-rule="nonzero"/><path fill="#ffffff" d="M 251.640625 181.21875 C 252.496094 181.015625 252.191406 181.15625 252.921875 180.636719 C 253.179688 180.453125 252.933594 180.015625 252.667969 180.203125 C 252.285156 180.378906 251.898438 180.554688 251.511719 180.730469 C 251.191406 180.808594 251.328125 181.289062 251.640625 181.21875 Z M 251.640625 181.21875 " fill-opacity="1" fill-rule="nonzero"/><path fill="#ffffff" d="M 254.21875 176.898438 C 254.609375 176.070312 255.5 175.351562 256.066406 174.628906 C 256.261719 174.378906 255.914062 174.019531 255.714844 174.273438 C 255.113281 175.039062 254.203125 175.761719 253.789062 176.648438 C 253.648438 176.941406 254.082031 177.195312 254.21875 176.898438 Z M 254.21875 176.898438 " fill-opacity="1" fill-rule="nonzero"/><path fill="#ffffff" d="M 254.832031 181.4375 C 256.449219 181.921875 258.621094 179.6875 259.597656 178.605469 C 259.820312 178.367188 259.464844 178.015625 259.246094 178.253906 C 258.578125 178.992188 256.214844 181.328125 254.960938 180.953125 C 254.65625 180.859375 254.519531 181.34375 254.832031 181.4375 Z M 254.832031 181.4375 " fill-opacity="1" fill-rule="nonzero"/><path fill="#ffffff" d="M 245.984375 187.011719 C 247.546875 188.402344 250.933594 187.265625 252.835938 187.628906 C 253.152344 187.691406 253.285156 187.207031 252.964844 187.144531 C 251.917969 186.945312 250.878906 187.027344 249.808594 187.027344 C 248.882812 187.027344 247.105469 187.34375 246.335938 186.660156 C 246.097656 186.441406 245.742188 186.796875 245.984375 187.011719 Z M 245.984375 187.011719 " fill-opacity="1" fill-rule="nonzero"/><path fill="#ffffff" d="M 249.296875 189.511719 C 250.574219 189.9375 251.882812 190.199219 253.167969 190.613281 C 253.476562 190.714844 253.605469 190.230469 253.296875 190.128906 C 252.015625 189.714844 250.714844 189.457031 249.429688 189.027344 C 249.121094 188.925781 248.992188 189.410156 249.296875 189.511719 Z M 249.296875 189.511719 " fill-opacity="1" fill-rule="nonzero"/><path fill="#ffffff" d="M 252.246094 192.265625 C 253.011719 193.816406 255.453125 194.398438 256.703125 195.414062 C 256.949219 195.617188 257.304688 195.265625 257.054688 195.058594 C 255.792969 194.027344 253.414062 193.5 252.671875 192.011719 C 252.535156 191.726562 252.101562 191.976562 252.246094 192.265625 Z M 252.246094 192.265625 " fill-opacity="1" fill-rule="nonzero"/><path fill="#ffffff" d="M 255.765625 188.378906 C 256.714844 189.105469 258.085938 189.511719 259.242188 189.730469 C 259.558594 189.789062 259.695312 189.308594 259.371094 189.246094 C 258.253906 189.035156 256.941406 188.65625 256.015625 187.945312 C 255.757812 187.746094 255.511719 188.183594 255.765625 188.378906 Z M 255.765625 188.378906 " fill-opacity="1" fill-rule="nonzero"/><path fill="#ffffff" d="M 243.375 192.023438 C 245.316406 193.078125 246.089844 195.308594 247.386719 197.019531 C 247.574219 197.273438 248.011719 197.023438 247.816406 196.765625 C 246.429688 194.933594 245.71875 192.726562 243.628906 191.59375 C 243.34375 191.4375 243.09375 191.871094 243.375 192.023438 Z M 243.375 192.023438 " fill-opacity="1" fill-rule="nonzero"/><path fill="#ffffff" d="M 244.050781 195.910156 C 244.441406 196.679688 244.453125 197.480469 244.84375 198.238281 C 244.988281 198.527344 245.421875 198.277344 245.273438 197.988281 C 244.886719 197.21875 244.871094 196.417969 244.488281 195.660156 C 244.339844 195.371094 243.90625 195.621094 244.050781 195.910156 Z M 244.050781 195.910156 " fill-opacity="1" fill-rule="nonzero"/><path fill="#ffffff" d="M 249.375 197.355469 C 249.917969 198.472656 250.726562 199.539062 251.109375 200.722656 C 251.207031 201.027344 251.691406 200.894531 251.589844 200.589844 C 251.191406 199.339844 250.375 198.28125 249.804688 197.101562 C 249.664062 196.808594 249.234375 197.066406 249.375 197.355469 Z M 249.375 197.355469 " fill-opacity="1" fill-rule="nonzero"/><path fill="#ffffff" d="M 246.136719 199.722656 C 246.476562 201.046875 246.367188 202.210938 246.238281 203.53125 C 246.207031 203.851562 246.710938 203.847656 246.742188 203.53125 C 246.871094 202.171875 246.960938 200.921875 246.621094 199.59375 C 246.539062 199.277344 246.058594 199.410156 246.136719 199.722656 Z M 246.136719 199.722656 " fill-opacity="1" fill-rule="nonzero"/><path fill="#ffffff" d="M 238.839844 189.640625 C 238.488281 191.804688 237.953125 193.765625 237.945312 196.007812 C 237.945312 196.332031 238.445312 196.332031 238.445312 196.007812 C 238.457031 193.832031 238.980469 191.878906 239.324219 189.777344 C 239.375 189.460938 238.890625 189.324219 238.839844 189.640625 Z M 238.839844 189.640625 " fill-opacity="1" fill-rule="nonzero"/><path fill="#ffffff" d="M 236.582031 193.957031 C 235.863281 194.527344 235.617188 195.523438 235.214844 196.332031 C 235.074219 196.617188 235.507812 196.871094 235.652344 196.582031 C 235.960938 195.957031 236.367188 194.765625 236.9375 194.308594 C 237.1875 194.109375 236.835938 193.753906 236.582031 193.957031 Z M 236.582031 193.957031 " fill-opacity="1" fill-rule="nonzero"/><path fill="#ffffff" d="M 232.761719 199.371094 C 232.496094 200.324219 232.234375 201.285156 231.984375 202.246094 C 231.902344 202.558594 232.382812 202.6875 232.46875 202.378906 C 232.71875 201.417969 232.976562 200.457031 233.246094 199.5 C 233.335938 199.1875 232.847656 199.058594 232.761719 199.371094 Z M 232.761719 199.371094 " fill-opacity="1" fill-rule="nonzero"/><path fill="#ffffff" d="M 237.066406 197.71875 C 236.675781 199.445312 235.683594 200.917969 234.769531 202.410156 C 234.597656 202.683594 235.03125 202.9375 235.207031 202.660156 C 236.160156 201.113281 237.140625 199.660156 237.554688 197.847656 C 237.621094 197.535156 237.136719 197.402344 237.066406 197.71875 Z M 237.066406 197.71875 " fill-opacity="1" fill-rule="nonzero"/></svg>