<svg xmlns="http://www.w3.org/2000/svg" xmlns:xlink="http://www.w3.org/1999/xlink" width="200" zoomAndPan="magnify" viewBox="0 0 150 74.999997" height="100" preserveAspectRatio="xMidYMid meet" version="1.0"><defs><g/><clipPath id="6cec0a4bbd"><path d="M 143.734375 37.75 L 149.066406 37.75 L 149.066406 43.082031 L 143.734375 43.082031 Z M 143.734375 37.75 " clip-rule="nonzero"/></clipPath><clipPath id="6c461fd979"><path d="M 146.398438 37.75 C 144.925781 37.75 143.734375 38.941406 143.734375 40.414062 C 143.734375 41.886719 144.925781 43.082031 146.398438 43.082031 C 147.871094 43.082031 149.066406 41.886719 149.066406 40.414062 C 149.066406 38.941406 147.871094 37.75 146.398438 37.75 Z M 146.398438 37.75 " clip-rule="nonzero"/></clipPath><clipPath id="50736529d9"><path d="M 1 16.800781 L 32.433594 16.800781 L 32.433594 49.800781 L 1 49.800781 Z M 1 16.800781 " clip-rule="nonzero"/></clipPath><clipPath id="10535b19c0"><path d="M 19.15625 32.316406 L 5 32.316406 C 4.449219 32.316406 4.050781 31.792969 4.199219 31.265625 L 8.085938 17.410156 C 8.1875 17.050781 8.515625 16.804688 8.886719 16.804688 L 23.046875 16.804688 C 23.59375 16.804688 23.992188 17.328125 23.84375 17.859375 L 19.957031 31.710938 C 19.855469 32.070312 19.53125 32.316406 19.15625 32.316406 Z M 9.960938 42.773438 L 11.964844 35.640625 C 12.109375 35.113281 11.714844 34.585938 11.164062 34.585938 L 3.886719 34.585938 C 3.515625 34.585938 3.1875 34.835938 3.089844 35.191406 L 1.085938 42.324219 C 0.9375 42.855469 1.335938 43.378906 1.882812 43.378906 L 9.164062 43.378906 C 9.535156 43.378906 9.859375 43.132812 9.960938 42.773438 Z M 13.644531 35.191406 L 9.757812 49.046875 C 9.609375 49.574219 10.007812 50.097656 10.554688 50.097656 L 24.714844 50.097656 C 25.085938 50.097656 25.414062 49.851562 25.511719 49.496094 L 29.402344 35.640625 C 29.546875 35.113281 29.152344 34.585938 28.601562 34.585938 L 14.441406 34.585938 C 14.070312 34.585938 13.746094 34.835938 13.644531 35.191406 Z M 23.640625 24.128906 L 21.636719 31.265625 C 21.488281 31.792969 21.886719 32.316406 22.4375 32.316406 L 29.714844 32.316406 C 30.085938 32.316406 30.414062 32.070312 30.511719 31.710938 L 32.515625 24.578125 C 32.664062 24.050781 32.265625 23.527344 31.714844 23.527344 L 24.4375 23.527344 C 24.066406 23.527344 23.738281 23.773438 23.640625 24.128906 Z M 23.640625 24.128906 " clip-rule="nonzero"/></clipPath></defs><g fill="#ffffff" fill-opacity="1"><g transform="translate(36.935559, 42.823313)"><g><path d="M 7.484375 0.125 C 7.171875 0.125 6.90625 0.0195312 6.6875 -0.1875 C 6.476562 -0.40625 6.375 -0.671875 6.375 -0.984375 L 6.375 -15.109375 L 1.359375 -15.109375 C 1.054688 -15.109375 0.804688 -15.207031 0.609375 -15.40625 C 0.421875 -15.601562 0.328125 -15.847656 0.328125 -16.140625 C 0.328125 -16.429688 0.421875 -16.679688 0.609375 -16.890625 C 0.804688 -17.097656 1.054688 -17.203125 1.359375 -17.203125 L 13.625 -17.203125 C 13.914062 -17.203125 14.164062 -17.097656 14.375 -16.890625 C 14.582031 -16.679688 14.6875 -16.429688 14.6875 -16.140625 C 14.6875 -15.847656 14.582031 -15.601562 14.375 -15.40625 C 14.164062 -15.207031 13.914062 -15.109375 13.625 -15.109375 L 8.625 -15.109375 L 8.625 -0.984375 C 8.625 -0.671875 8.507812 -0.40625 8.28125 -0.1875 C 8.0625 0.0195312 7.796875 0.125 7.484375 0.125 Z M 7.484375 0.125 "/></g></g></g><g fill="#ffffff" fill-opacity="1"><g transform="translate(51.942412, 42.823313)"><g><path d="M 3.5 0 C 3.1875 0 2.921875 -0.101562 2.703125 -0.3125 C 2.492188 -0.53125 2.390625 -0.796875 2.390625 -1.109375 L 2.390625 -16.0625 C 2.390625 -16.375 2.492188 -16.640625 2.703125 -16.859375 C 2.921875 -17.085938 3.1875 -17.203125 3.5 -17.203125 L 13.375 -17.203125 C 13.675781 -17.203125 13.925781 -17.097656 14.125 -16.890625 C 14.332031 -16.679688 14.4375 -16.429688 14.4375 -16.140625 C 14.4375 -15.847656 14.332031 -15.601562 14.125 -15.40625 C 13.925781 -15.207031 13.675781 -15.109375 13.375 -15.109375 L 4.625 -15.109375 L 4.625 -9.65625 L 12.5 -9.65625 C 12.789062 -9.65625 13.035156 -9.550781 13.234375 -9.34375 C 13.441406 -9.144531 13.546875 -8.894531 13.546875 -8.59375 C 13.546875 -8.300781 13.441406 -8.054688 13.234375 -7.859375 C 13.035156 -7.660156 12.789062 -7.5625 12.5 -7.5625 L 4.625 -7.5625 L 4.625 -2.09375 L 13.375 -2.09375 C 13.675781 -2.09375 13.925781 -1.988281 14.125 -1.78125 C 14.332031 -1.582031 14.4375 -1.332031 14.4375 -1.03125 C 14.4375 -0.738281 14.332031 -0.492188 14.125 -0.296875 C 13.925781 -0.0976562 13.675781 0 13.375 0 Z M 3.5 0 "/></g></g></g><g fill="#ffffff" fill-opacity="1"><g transform="translate(67.663878, 42.823313)"><g><path d="M 9.984375 0.25 C 8.335938 0.25 6.859375 -0.101562 5.546875 -0.8125 C 4.242188 -1.53125 3.21875 -2.554688 2.46875 -3.890625 C 1.726562 -5.234375 1.359375 -6.800781 1.359375 -8.59375 C 1.359375 -10.382812 1.726562 -11.945312 2.46875 -13.28125 C 3.21875 -14.625 4.242188 -15.65625 5.546875 -16.375 C 6.859375 -17.09375 8.335938 -17.453125 9.984375 -17.453125 C 11.097656 -17.453125 12.09375 -17.316406 12.96875 -17.046875 C 13.851562 -16.785156 14.726562 -16.410156 15.59375 -15.921875 C 15.957031 -15.722656 16.140625 -15.410156 16.140625 -14.984375 C 16.140625 -14.734375 16.046875 -14.515625 15.859375 -14.328125 C 15.679688 -14.140625 15.445312 -14.046875 15.15625 -14.046875 C 14.988281 -14.046875 14.835938 -14.078125 14.703125 -14.140625 C 13.984375 -14.515625 13.28125 -14.800781 12.59375 -15 C 11.90625 -15.195312 11.109375 -15.296875 10.203125 -15.296875 C 8.785156 -15.296875 7.578125 -15.003906 6.578125 -14.421875 C 5.585938 -13.835938 4.84375 -13.039062 4.34375 -12.03125 C 3.84375 -11.019531 3.59375 -9.875 3.59375 -8.59375 C 3.59375 -7.3125 3.84375 -6.164062 4.34375 -5.15625 C 4.84375 -4.144531 5.585938 -3.347656 6.578125 -2.765625 C 7.578125 -2.179688 8.785156 -1.890625 10.203125 -1.890625 C 11.109375 -1.890625 11.90625 -1.988281 12.59375 -2.1875 C 13.28125 -2.382812 13.984375 -2.675781 14.703125 -3.0625 C 14.835938 -3.125 14.988281 -3.15625 15.15625 -3.15625 C 15.445312 -3.15625 15.679688 -3.0625 15.859375 -2.875 C 16.046875 -2.695312 16.140625 -2.476562 16.140625 -2.21875 C 16.140625 -1.789062 15.957031 -1.476562 15.59375 -1.28125 C 14.726562 -0.789062 13.851562 -0.410156 12.96875 -0.140625 C 12.09375 0.117188 11.097656 0.25 9.984375 0.25 Z M 9.984375 0.25 "/></g></g></g><g fill="#ffffff" fill-opacity="1"><g transform="translate(84.78992, 42.823313)"><g><path d="M 3.5 0.125 C 3.1875 0.125 2.921875 0.0195312 2.703125 -0.1875 C 2.492188 -0.40625 2.390625 -0.671875 2.390625 -0.984375 L 2.390625 -16.1875 C 2.390625 -16.5 2.492188 -16.765625 2.703125 -16.984375 C 2.921875 -17.210938 3.1875 -17.328125 3.5 -17.328125 C 3.8125 -17.328125 4.078125 -17.210938 4.296875 -16.984375 C 4.515625 -16.765625 4.625 -16.5 4.625 -16.1875 L 4.625 -9.640625 L 13.96875 -9.640625 L 13.96875 -16.1875 C 13.96875 -16.5 14.070312 -16.765625 14.28125 -16.984375 C 14.5 -17.210938 14.765625 -17.328125 15.078125 -17.328125 C 15.390625 -17.328125 15.65625 -17.210938 15.875 -16.984375 C 16.101562 -16.765625 16.21875 -16.5 16.21875 -16.1875 L 16.21875 -0.984375 C 16.21875 -0.671875 16.101562 -0.40625 15.875 -0.1875 C 15.65625 0.0195312 15.390625 0.125 15.078125 0.125 C 14.765625 0.125 14.5 0.0195312 14.28125 -0.1875 C 14.070312 -0.40625 13.96875 -0.671875 13.96875 -0.984375 L 13.96875 -7.546875 L 4.625 -7.546875 L 4.625 -0.984375 C 4.625 -0.671875 4.515625 -0.40625 4.296875 -0.1875 C 4.078125 0.0195312 3.8125 0.125 3.5 0.125 Z M 3.5 0.125 "/></g></g></g><g fill="#ffffff" fill-opacity="1"><g transform="translate(103.394475, 42.823313)"><g><path d="M 3.5 0.125 C 3.1875 0.125 2.921875 0.0195312 2.703125 -0.1875 C 2.492188 -0.40625 2.390625 -0.671875 2.390625 -0.984375 L 2.390625 -15.703125 C 2.390625 -16.140625 2.546875 -16.519531 2.859375 -16.84375 C 3.171875 -17.164062 3.546875 -17.328125 3.984375 -17.328125 L 4.3125 -17.328125 C 4.832031 -17.328125 5.285156 -17.078125 5.671875 -16.578125 L 15.15625 -2.890625 L 15.15625 -16.1875 C 15.15625 -16.5 15.257812 -16.765625 15.46875 -16.984375 C 15.6875 -17.210938 15.953125 -17.328125 16.265625 -17.328125 C 16.578125 -17.328125 16.84375 -17.210938 17.0625 -16.984375 C 17.28125 -16.765625 17.390625 -16.5 17.390625 -16.1875 L 17.390625 -1.484375 C 17.390625 -1.035156 17.226562 -0.65625 16.90625 -0.34375 C 16.59375 -0.03125 16.210938 0.125 15.765625 0.125 L 15.46875 0.125 C 15.207031 0.125 14.960938 0.0625 14.734375 -0.0625 C 14.503906 -0.1875 14.316406 -0.347656 14.171875 -0.546875 L 4.625 -14.3125 L 4.625 -0.984375 C 4.625 -0.671875 4.515625 -0.40625 4.296875 -0.1875 C 4.078125 0.0195312 3.8125 0.125 3.5 0.125 Z M 3.5 0.125 "/></g></g></g><g fill="#ffffff" fill-opacity="1"><g transform="translate(123.181833, 42.823313)"><g><path d="M 10 0.25 C 8.28125 0.25 6.769531 -0.125 5.46875 -0.875 C 4.175781 -1.632812 3.175781 -2.679688 2.46875 -4.015625 C 1.757812 -5.347656 1.390625 -6.875 1.359375 -8.59375 C 1.390625 -10.320312 1.757812 -11.847656 2.46875 -13.171875 C 3.175781 -14.503906 4.175781 -15.550781 5.46875 -16.3125 C 6.769531 -17.070312 8.28125 -17.453125 10 -17.453125 C 11.726562 -17.453125 13.234375 -17.070312 14.515625 -16.3125 C 15.804688 -15.550781 16.8125 -14.5 17.53125 -13.15625 C 18.25 -11.820312 18.625 -10.300781 18.65625 -8.59375 C 18.625 -6.882812 18.25 -5.359375 17.53125 -4.015625 C 16.8125 -2.679688 15.804688 -1.632812 14.515625 -0.875 C 13.234375 -0.125 11.726562 0.25 10 0.25 Z M 10 -1.84375 C 11.3125 -1.84375 12.453125 -2.140625 13.421875 -2.734375 C 14.398438 -3.328125 15.140625 -4.128906 15.640625 -5.140625 C 16.148438 -6.160156 16.40625 -7.3125 16.40625 -8.59375 C 16.40625 -9.875 16.148438 -11.023438 15.640625 -12.046875 C 15.140625 -13.066406 14.398438 -13.867188 13.421875 -14.453125 C 12.453125 -15.046875 11.3125 -15.34375 10 -15.34375 C 8.675781 -15.34375 7.53125 -15.046875 6.5625 -14.453125 C 5.601562 -13.867188 4.867188 -13.066406 4.359375 -12.046875 C 3.847656 -11.023438 3.59375 -9.875 3.59375 -8.59375 C 3.59375 -7.3125 3.847656 -6.160156 4.359375 -5.140625 C 4.867188 -4.128906 5.601562 -3.328125 6.5625 -2.734375 C 7.53125 -2.140625 8.675781 -1.84375 10 -1.84375 Z M 10 -1.84375 "/></g></g></g><g clip-path="url(#6cec0a4bbd)"><g clip-path="url(#6c461fd979)"><path fill="#614ce1" d="M 143.734375 37.75 L 149.066406 37.75 L 149.066406 43.082031 L 143.734375 43.082031 Z M 143.734375 37.75 " fill-opacity="1" fill-rule="nonzero"/></g></g><g clip-path="url(#50736529d9)"><g clip-path="url(#10535b19c0)"><path fill="#614ce1" d="M 0.9375 16.804688 L 0.9375 49.800781 L 32.433594 49.800781 L 32.433594 16.804688 Z M 0.9375 16.804688 " fill-opacity="1" fill-rule="nonzero"/></g></g></svg>