<svg xmlns="http://www.w3.org/2000/svg" xmlns:xlink="http://www.w3.org/1999/xlink" width="500" zoomAndPan="magnify" viewBox="0 0 375 374.999991" height="500" preserveAspectRatio="xMidYMid meet" version="1.0"><defs><clipPath id="695f55f547"><path d="M 83.75 298.875 L 87.5 298.875 L 87.5 303.027344 L 83.75 303.027344 Z M 83.75 298.875 " clip-rule="nonzero"/></clipPath></defs><path fill="#caddff" d="M 122.925781 18.417969 C 145.652344 6.378906 172.570312 11.847656 189.777344 15.347656 C 257.597656 29.128906 316.761719 78.511719 342.074219 156.277344 C 347.996094 174.476562 374.976562 267.015625 309.273438 321.726562 C 251.191406 370.085938 158.492188 357.398438 98.867188 323.042969 C 49.46875 294.582031 0.0117188 238.097656 5.878906 188.175781 C 9.566406 156.785156 31.816406 154.542969 59.730469 96.917969 C 83.894531 47.039062 95.125 33.144531 122.925781 18.417969 " fill-opacity="1" fill-rule="nonzero"/><path fill="#614ce1" d="M 296.464844 344.792969 L 93.335938 344.792969 C 87.027344 344.792969 81.894531 338.507812 82.90625 332.253906 L 126.589844 61.496094 C 127.394531 56.515625 131.402344 52.347656 136.425781 52.347656 L 339.554688 52.347656 C 345.863281 52.347656 350.941406 58.53125 349.929688 64.785156 L 306.246094 335.542969 C 305.441406 340.523438 301.488281 344.792969 296.464844 344.792969 " fill-opacity="1" fill-rule="nonzero"/><path fill="#bcbfdb" d="M 288.355469 344.78125 L 85.226562 344.78125 C 78.917969 344.78125 74.109375 339.136719 75.121094 332.90625 L 118.847656 61.582031 C 119.652344 56.628906 123.929688 52.984375 128.953125 52.984375 L 332.082031 52.984375 C 338.390625 52.984375 343.195312 58.632812 342.1875 64.859375 L 298.460938 336.183594 C 297.65625 341.140625 293.375 344.78125 288.355469 344.78125 " fill-opacity="1" fill-rule="nonzero"/><path fill="#26262c" d="M 128.953125 53.617188 C 124.21875 53.617188 120.226562 57.011719 119.46875 61.683594 L 75.742188 333.007812 C 75.289062 335.792969 76.082031 338.625 77.910156 340.773438 C 79.738281 342.921875 82.402344 344.152344 85.226562 344.152344 L 288.355469 344.152344 C 293.09375 344.152344 297.082031 340.757812 297.839844 336.082031 L 341.566406 64.757812 C 342.015625 61.972656 341.226562 59.144531 339.398438 56.996094 C 337.570312 54.847656 334.90625 53.617188 332.082031 53.617188 Z M 288.355469 345.414062 L 85.226562 345.414062 C 82.035156 345.414062 79.015625 344.019531 76.949219 341.589844 C 74.878906 339.15625 73.988281 335.957031 74.5 332.808594 L 118.226562 61.484375 C 119.082031 56.195312 123.59375 52.355469 128.953125 52.355469 L 332.082031 52.355469 C 335.273438 52.355469 338.289062 53.75 340.359375 56.179688 C 342.429688 58.609375 343.320312 61.8125 342.808594 64.960938 L 299.082031 336.285156 C 298.222656 341.574219 293.710938 345.414062 288.355469 345.414062 " fill-opacity="1" fill-rule="nonzero"/><path fill="#ffffff" d="M 283.6875 336.238281 L 92.457031 336.238281 C 86.515625 336.238281 81.992188 330.921875 82.941406 325.058594 L 124.109375 69.625 C 124.863281 64.960938 128.894531 61.53125 133.621094 61.53125 L 324.851562 61.53125 C 330.792969 61.53125 335.316406 66.847656 334.367188 72.710938 L 293.203125 328.140625 C 292.445312 332.808594 288.414062 336.238281 283.6875 336.238281 " fill-opacity="1" fill-rule="nonzero"/><path fill="#26262c" d="M 220.398438 330.933594 L 151.917969 330.933594 C 151.570312 330.933594 151.285156 330.648438 151.285156 330.300781 C 151.285156 329.953125 151.570312 329.671875 151.917969 329.671875 L 220.398438 329.671875 C 220.746094 329.671875 221.027344 329.953125 221.027344 330.300781 C 221.027344 330.648438 220.746094 330.933594 220.398438 330.933594 " fill-opacity="1" fill-rule="nonzero"/><path fill="#bcbfdb" d="M 243.25 68.480469 L 209.25 68.480469 C 205.046875 68.480469 201.640625 65.074219 201.640625 60.875 L 250.859375 60.875 C 250.859375 65.074219 247.449219 68.480469 243.25 68.480469 " fill-opacity="1" fill-rule="nonzero"/><path fill="#614ce1" d="M 240.828125 151.179688 L 66.179688 151.179688 C 63.003906 151.179688 61.34375 147.757812 61.851562 144.621094 L 67.359375 113.515625 C 67.761719 111.019531 70.300781 108.574219 72.832031 108.574219 L 247.480469 108.574219 C 250.660156 108.574219 252.699219 112.03125 252.191406 115.167969 L 246.6875 146.273438 C 246.28125 148.769531 243.359375 151.179688 240.828125 151.179688 " fill-opacity="1" fill-rule="nonzero"/><path fill="#ffffff" d="M 235.6875 150.605469 L 54.140625 150.605469 C 50.964844 150.605469 48.539062 147.757812 49.050781 144.621094 L 54.554688 113.515625 C 54.960938 111.019531 57.117188 109.183594 59.644531 109.183594 L 241.195312 109.183594 C 244.371094 109.183594 246.792969 112.03125 246.285156 115.167969 L 240.777344 146.273438 C 240.375 148.769531 238.21875 150.605469 235.6875 150.605469 " fill-opacity="1" fill-rule="nonzero"/><path fill="#26262c" d="M 59.644531 109.8125 C 57.414062 109.8125 55.535156 111.414062 55.175781 113.617188 L 49.671875 144.730469 C 49.457031 146.035156 49.832031 147.367188 50.691406 148.378906 C 51.554688 149.394531 52.8125 149.976562 54.140625 149.976562 L 235.6875 149.976562 C 237.921875 149.976562 239.800781 148.375 240.15625 146.171875 L 245.664062 115.058594 C 245.875 113.753906 245.503906 112.417969 244.640625 111.40625 C 243.78125 110.394531 242.523438 109.8125 241.195312 109.8125 Z M 235.6875 151.234375 L 54.140625 151.234375 C 52.441406 151.234375 50.835938 150.492188 49.734375 149.199219 C 48.628906 147.902344 48.15625 146.199219 48.425781 144.519531 L 53.933594 113.40625 C 54.390625 110.597656 56.792969 108.550781 59.644531 108.550781 L 241.195312 108.550781 C 242.894531 108.550781 244.5 109.292969 245.601562 110.589844 C 246.703125 111.886719 247.179688 113.589844 246.90625 115.265625 L 241.398438 146.382812 C 240.945312 149.1875 238.542969 151.234375 235.6875 151.234375 " fill-opacity="1" fill-rule="nonzero"/><path fill="#614ce1" d="M 73.199219 132.667969 C 70.46875 129.9375 70.46875 125.515625 73.199219 122.785156 C 75.925781 120.054688 80.351562 120.054688 83.082031 122.785156 C 85.8125 125.515625 85.8125 129.9375 83.082031 132.667969 C 80.351562 135.398438 75.925781 135.398438 73.199219 132.667969 Z M 84.722656 121.144531 C 81.085938 117.511719 75.195312 117.511719 71.558594 121.144531 C 67.925781 124.78125 67.925781 130.675781 71.558594 134.308594 C 75.195312 137.941406 81.085938 137.941406 84.722656 134.308594 C 88.355469 130.675781 88.355469 124.78125 84.722656 121.144531 " fill-opacity="1" fill-rule="nonzero"/><path fill="#614ce1" d="M 65.765625 141.25 L 64.589844 140.082031 C 64.445312 139.933594 64.445312 139.695312 64.589844 139.550781 L 71.496094 132.644531 L 73.199219 134.347656 L 66.292969 141.25 C 66.148438 141.398438 65.910156 141.398438 65.765625 141.25 " fill-opacity="1" fill-rule="nonzero"/><path fill="#bcbfdb" d="M 174.722656 134.222656 L 106.53125 134.222656 C 103.089844 134.222656 100.296875 131.429688 100.296875 127.988281 C 100.296875 124.546875 103.089844 121.753906 106.53125 121.753906 L 174.722656 121.753906 C 178.167969 121.753906 180.957031 124.546875 180.957031 127.988281 C 180.957031 131.429688 178.167969 134.222656 174.722656 134.222656 " fill-opacity="1" fill-rule="nonzero"/><path fill="#bcbfdb" d="M 207.988281 134.128906 L 197.664062 134.128906 C 194.21875 134.128906 191.429688 131.335938 191.429688 127.894531 C 191.429688 124.449219 194.21875 121.660156 197.664062 121.660156 L 207.988281 121.660156 C 211.429688 121.660156 214.222656 124.449219 214.222656 127.894531 C 214.222656 131.335938 211.429688 134.128906 207.988281 134.128906 " fill-opacity="1" fill-rule="nonzero"/><path fill="#bcbfdb" d="M 203.972656 177.175781 L 135.785156 177.175781 C 132.339844 177.175781 129.546875 174.382812 129.546875 170.941406 C 129.546875 167.496094 132.339844 164.707031 135.785156 164.707031 L 203.972656 164.707031 C 207.417969 164.707031 210.207031 167.496094 210.207031 170.941406 C 210.207031 174.382812 207.417969 177.175781 203.972656 177.175781 " fill-opacity="1" fill-rule="nonzero"/><path fill="#caddff" d="M 218.867188 199.246094 L 190.109375 199.246094 C 186.664062 199.246094 183.871094 196.453125 183.871094 193.011719 C 183.871094 189.570312 186.664062 186.777344 190.109375 186.777344 L 218.867188 186.777344 C 222.3125 186.777344 225.101562 189.570312 225.101562 193.011719 C 225.101562 196.453125 222.3125 199.246094 218.867188 199.246094 " fill-opacity="1" fill-rule="nonzero"/><path fill="#caddff" d="M 268.058594 199.246094 L 239.296875 199.246094 C 235.855469 199.246094 233.0625 196.457031 233.0625 193.011719 C 233.0625 189.570312 235.855469 186.777344 239.296875 186.777344 L 268.058594 186.777344 C 271.5 186.777344 274.289062 189.570312 274.289062 193.011719 C 274.289062 196.457031 271.5 199.246094 268.058594 199.246094 " fill-opacity="1" fill-rule="nonzero"/><path fill="#caddff" d="M 278.285156 246.554688 L 203.753906 246.554688 C 200.3125 246.554688 197.519531 243.761719 197.519531 240.320312 C 197.519531 236.878906 200.3125 234.085938 203.753906 234.085938 L 278.285156 234.085938 C 281.730469 234.085938 284.523438 236.878906 284.523438 240.320312 C 284.523438 243.761719 281.730469 246.554688 278.285156 246.554688 " fill-opacity="1" fill-rule="nonzero"/><path fill="#caddff" d="M 191.757812 271.636719 L 123.332031 271.636719 C 119.886719 271.636719 117.097656 268.84375 117.097656 265.402344 C 117.097656 261.957031 119.886719 259.167969 123.332031 259.167969 L 191.757812 259.167969 C 195.199219 259.167969 197.992188 261.957031 197.992188 265.402344 C 197.992188 268.84375 195.199219 271.636719 191.757812 271.636719 " fill-opacity="1" fill-rule="nonzero"/><path fill="#bcbfdb" d="M 255.042969 271.636719 L 212.765625 271.636719 C 209.320312 271.636719 206.53125 268.84375 206.53125 265.402344 C 206.53125 261.957031 209.320312 259.167969 212.765625 259.167969 L 255.042969 259.167969 C 258.484375 259.167969 261.277344 261.957031 261.277344 265.402344 C 261.277344 268.84375 258.484375 271.636719 255.042969 271.636719 " fill-opacity="1" fill-rule="nonzero"/><path fill="#caddff" d="M 227.273438 295.875 L 184.996094 295.875 C 181.554688 295.875 178.765625 293.082031 178.765625 289.640625 C 178.765625 286.195312 181.554688 283.40625 184.996094 283.40625 L 227.273438 283.40625 C 230.71875 283.40625 233.507812 286.195312 233.507812 289.640625 C 233.507812 293.082031 230.71875 295.875 227.273438 295.875 " fill-opacity="1" fill-rule="nonzero"/><path fill="#caddff" d="M 183.371094 246.554688 L 161.195312 246.554688 C 157.75 246.554688 154.960938 243.765625 154.960938 240.320312 C 154.960938 236.878906 157.75 234.089844 161.195312 234.089844 L 183.371094 234.089844 C 186.816406 234.089844 189.605469 236.878906 189.605469 240.320312 C 189.605469 243.765625 186.816406 246.554688 183.371094 246.554688 " fill-opacity="1" fill-rule="nonzero"/><path fill="#bcbfdb" d="M 247.878906 222.398438 L 215.820312 222.398438 C 212.375 222.398438 209.585938 219.609375 209.585938 216.164062 C 209.585938 212.722656 212.375 209.929688 215.820312 209.929688 L 247.878906 209.929688 C 251.320312 209.929688 254.113281 212.722656 254.113281 216.164062 C 254.113281 219.609375 251.320312 222.398438 247.878906 222.398438 " fill-opacity="1" fill-rule="nonzero"/><path fill="#ffffff" d="M 296.613281 110.078125 C 290.921875 111.636719 285.046875 108.285156 283.488281 102.589844 C 281.929688 96.894531 285.28125 91.015625 290.96875 89.457031 C 296.660156 87.898438 302.535156 91.25 304.09375 96.945312 C 305.652344 102.640625 302.300781 108.519531 296.613281 110.078125 Z M 315.042969 96.097656 L 313.949219 92.09375 L 309.417969 92.296875 C 309 91.417969 308.511719 90.582031 307.960938 89.796875 L 310.359375 85.957031 L 307.410156 83.035156 L 303.59375 85.480469 C 302.796875 84.933594 301.957031 84.457031 301.082031 84.046875 L 301.242188 79.515625 L 297.226562 78.464844 L 295.140625 82.484375 C 294.191406 82.410156 293.226562 82.417969 292.25 82.503906 L 290.121094 78.503906 L 286.121094 79.597656 L 286.328125 84.128906 C 285.445312 84.546875 284.609375 85.035156 283.828125 85.582031 L 279.988281 83.183594 L 277.070312 86.136719 L 279.511719 89.957031 C 278.96875 90.753906 278.488281 91.597656 278.082031 92.46875 L 273.550781 92.3125 L 272.5 96.332031 L 276.519531 98.414062 C 276.441406 99.367188 276.449219 100.335938 276.539062 101.308594 L 272.539062 103.4375 L 273.636719 107.441406 L 278.164062 107.238281 C 278.582031 108.121094 279.066406 108.957031 279.617188 109.738281 L 277.21875 113.582031 L 280.171875 116.5 L 283.988281 114.058594 C 284.785156 114.601562 285.625 115.082031 286.496094 115.488281 L 286.34375 120.019531 L 290.355469 121.074219 L 292.4375 117.054688 C 293.390625 117.125 294.355469 117.121094 295.328125 117.03125 L 297.460938 121.035156 L 301.460938 119.9375 L 301.257812 115.40625 C 302.136719 114.988281 302.972656 114.5 303.753906 113.949219 L 307.59375 116.351562 L 310.511719 113.398438 L 308.066406 109.578125 C 308.613281 108.78125 309.09375 107.941406 309.5 107.066406 L 314.03125 107.222656 L 315.082031 103.207031 L 311.0625 101.121094 C 311.136719 100.167969 311.128906 99.203125 311.042969 98.226562 L 315.042969 96.097656 " fill-opacity="1" fill-rule="nonzero"/><path fill="#26262c" d="M 293.804688 89.703125 C 292.917969 89.703125 292.019531 89.824219 291.136719 90.066406 C 285.792969 91.53125 282.632812 97.074219 284.097656 102.425781 C 284.808594 105.015625 286.480469 107.175781 288.8125 108.503906 C 291.144531 109.839844 293.855469 110.179688 296.445312 109.46875 C 301.792969 108.003906 304.949219 102.460938 303.488281 97.109375 C 302.777344 94.519531 301.101562 92.359375 298.769531 91.027344 C 297.230469 90.152344 295.527344 89.703125 293.804688 89.703125 Z M 293.773438 111.09375 C 291.832031 111.09375 289.917969 110.589844 288.1875 109.601562 C 285.5625 108.101562 283.679688 105.671875 282.878906 102.757812 C 281.234375 96.738281 284.785156 90.496094 290.804688 88.851562 C 293.71875 88.050781 296.765625 88.4375 299.394531 89.933594 C 302.019531 91.429688 303.902344 93.859375 304.699219 96.777344 C 306.347656 102.796875 302.792969 109.039062 296.777344 110.683594 C 295.785156 110.960938 294.777344 111.09375 293.773438 111.09375 Z M 286.988281 119.539062 L 290.027344 120.335938 L 292.070312 116.390625 L 292.488281 116.421875 C 293.394531 116.496094 294.335938 116.488281 295.269531 116.40625 L 295.6875 116.367188 L 297.777344 120.292969 L 300.808594 119.464844 L 300.605469 115.019531 L 300.984375 114.839844 C 301.835938 114.433594 302.644531 113.960938 303.390625 113.4375 L 303.734375 113.195312 L 307.496094 115.550781 L 309.707031 113.3125 L 307.3125 109.566406 L 307.546875 109.222656 C 308.074219 108.457031 308.539062 107.644531 308.929688 106.800781 L 309.101562 106.421875 L 313.546875 106.574219 L 314.34375 103.535156 L 310.402344 101.488281 L 310.4375 101.070312 C 310.503906 100.160156 310.5 99.222656 310.414062 98.285156 L 310.375 97.867188 L 314.300781 95.777344 L 313.46875 92.746094 L 309.03125 92.949219 L 308.851562 92.566406 C 308.445312 91.71875 307.972656 90.90625 307.449219 90.160156 L 307.207031 89.820312 L 309.558594 86.050781 L 307.324219 83.839844 L 303.582031 86.234375 L 303.238281 86 C 302.472656 85.476562 301.660156 85.011719 300.820312 84.621094 L 300.441406 84.445312 L 300.59375 79.996094 L 297.554688 79.199219 L 295.511719 83.144531 L 295.09375 83.113281 C 294.183594 83.039062 293.246094 83.046875 292.308594 83.132812 L 291.894531 83.171875 L 289.804688 79.242188 L 286.773438 80.070312 L 286.976562 84.519531 L 286.597656 84.695312 C 285.746094 85.101562 284.9375 85.574219 284.191406 86.101562 L 283.851562 86.339844 L 280.082031 83.988281 L 277.871094 86.222656 L 280.265625 89.96875 L 280.03125 90.316406 C 279.507812 91.082031 279.042969 91.894531 278.652344 92.734375 L 278.476562 93.113281 L 274.035156 92.960938 L 273.238281 96.003906 L 277.179688 98.046875 L 277.148438 98.460938 C 277.074219 99.375 277.082031 100.3125 277.164062 101.25 L 277.203125 101.667969 L 273.28125 103.757812 L 274.109375 106.792969 L 278.554688 106.589844 L 278.730469 106.964844 C 279.136719 107.816406 279.605469 108.628906 280.132812 109.375 L 280.371094 109.714844 L 278.023438 113.488281 L 280.253906 115.699219 L 284 113.300781 L 284.347656 113.535156 C 285.109375 114.058594 285.925781 114.523438 286.761719 114.917969 L 287.140625 115.09375 Z M 290.683594 121.8125 L 285.695312 120.503906 L 285.855469 115.878906 C 285.210938 115.558594 284.582031 115.203125 283.984375 114.8125 L 280.085938 117.300781 L 276.417969 113.671875 L 278.867188 109.753906 C 278.46875 109.160156 278.105469 108.535156 277.777344 107.882812 L 273.160156 108.097656 L 271.800781 103.121094 L 275.878906 100.945312 C 275.832031 100.21875 275.824219 99.496094 275.863281 98.785156 L 271.761719 96.660156 L 273.070312 91.667969 L 277.691406 91.824219 C 278.011719 91.183594 278.367188 90.554688 278.761719 89.953125 L 276.269531 86.050781 L 279.894531 82.382812 L 283.8125 84.832031 C 284.40625 84.4375 285.03125 84.070312 285.679688 83.746094 L 285.46875 79.125 L 290.445312 77.757812 L 292.613281 81.84375 C 293.339844 81.796875 294.058594 81.789062 294.773438 81.828125 L 296.898438 77.726562 L 301.886719 79.035156 L 301.730469 83.660156 C 302.371094 83.976562 303 84.335938 303.601562 84.726562 L 307.496094 82.234375 L 311.160156 85.863281 L 308.71875 89.78125 C 309.113281 90.375 309.476562 91 309.804688 91.648438 L 314.421875 91.441406 L 315.78125 96.417969 L 311.703125 98.589844 C 311.753906 99.316406 311.757812 100.042969 311.71875 100.753906 L 315.816406 102.878906 L 314.511719 107.867188 L 309.886719 107.710938 C 309.570312 108.355469 309.210938 108.984375 308.820312 109.585938 L 311.3125 113.484375 L 307.6875 117.152344 L 303.769531 114.703125 C 303.175781 115.101562 302.554688 115.464844 301.90625 115.789062 L 302.113281 120.414062 L 297.140625 121.773438 L 294.964844 117.691406 C 294.238281 117.742188 293.519531 117.746094 292.808594 117.710938 L 290.683594 121.8125 " fill-opacity="1" fill-rule="nonzero"/><path fill="#26262c" d="M 306.667969 35.191406 Z M 309.949219 33.035156 C 308.652344 33.035156 307.503906 33.976562 307.285156 35.296875 C 307.171875 36.007812 307.339844 36.722656 307.757812 37.308594 C 308.175781 37.894531 308.800781 38.28125 309.511719 38.398438 C 310.226562 38.515625 310.9375 38.347656 311.523438 37.929688 C 312.109375 37.507812 312.496094 36.886719 312.613281 36.171875 C 312.730469 35.464844 312.566406 34.746094 312.144531 34.164062 C 311.722656 33.578125 311.101562 33.1875 310.390625 33.070312 C 310.242188 33.046875 310.09375 33.035156 309.949219 33.035156 Z M 309.960938 39.695312 C 309.742188 39.695312 309.523438 39.679688 309.304688 39.644531 C 308.261719 39.46875 307.347656 38.902344 306.734375 38.042969 C 306.117188 37.183594 305.875 36.136719 306.042969 35.089844 C 306.398438 32.9375 308.4375 31.472656 310.59375 31.828125 C 311.636719 32 312.550781 32.566406 313.167969 33.425781 C 313.78125 34.285156 314.027344 35.335938 313.859375 36.378906 C 313.6875 37.421875 313.117188 38.335938 312.257812 38.953125 C 311.578125 39.4375 310.777344 39.695312 309.960938 39.695312 " fill-opacity="1" fill-rule="nonzero"/><path fill="#26262c" d="M 19.585938 80.929688 L 19.589844 80.929688 Z M 22.863281 78.769531 C 22.304688 78.769531 21.761719 78.941406 21.296875 79.277344 C 20.710938 79.695312 20.324219 80.320312 20.207031 81.03125 C 19.964844 82.5 20.960938 83.890625 22.429688 84.132812 C 23.140625 84.25 23.855469 84.082031 24.441406 83.664062 C 25.027344 83.242188 25.414062 82.621094 25.53125 81.910156 C 25.648438 81.199219 25.484375 80.480469 25.0625 79.894531 C 24.644531 79.308594 24.019531 78.925781 23.308594 78.808594 C 23.160156 78.78125 23.011719 78.769531 22.863281 78.769531 Z M 22.878906 85.429688 C 22.660156 85.429688 22.445312 85.414062 22.226562 85.375 C 20.070312 85.019531 18.609375 82.980469 18.964844 80.824219 C 19.136719 79.785156 19.703125 78.867188 20.5625 78.253906 C 21.421875 77.636719 22.46875 77.390625 23.515625 77.5625 C 24.558594 77.734375 25.472656 78.304688 26.085938 79.164062 C 26.703125 80.019531 26.949219 81.070312 26.777344 82.113281 C 26.605469 83.15625 26.035156 84.070312 25.175781 84.6875 C 24.496094 85.175781 23.699219 85.429688 22.878906 85.429688 " fill-opacity="1" fill-rule="nonzero"/><path fill="#caddff" d="M 36.722656 89.667969 C 37.179688 86.890625 39.804688 85.011719 42.578125 85.46875 C 45.355469 85.925781 47.238281 88.546875 46.78125 91.324219 C 46.320312 94.105469 43.699219 95.984375 40.921875 95.523438 C 38.144531 95.070312 36.265625 92.445312 36.722656 89.667969 " fill-opacity="1" fill-rule="nonzero"/><path fill="#26262c" d="M 284.230469 26.359375 C 283.859375 28.621094 285.394531 30.757812 287.652344 31.132812 C 288.746094 31.3125 289.84375 31.058594 290.746094 30.410156 C 291.648438 29.761719 292.242188 28.804688 292.421875 27.710938 C 292.796875 25.449219 291.261719 23.308594 289 22.9375 C 287.90625 22.757812 286.808594 23.015625 285.90625 23.660156 C 285.003906 24.304688 284.410156 25.265625 284.230469 26.359375 Z M 288.328125 32.449219 C 288.039062 32.449219 287.742188 32.425781 287.445312 32.375 C 284.5 31.890625 282.5 29.101562 282.984375 26.152344 C 283.21875 24.726562 283.996094 23.476562 285.171875 22.636719 C 286.347656 21.792969 287.777344 21.460938 289.207031 21.691406 C 290.632812 21.929688 291.882812 22.707031 292.722656 23.882812 C 293.566406 25.058594 293.902344 26.488281 293.667969 27.914062 C 293.230469 30.566406 290.929688 32.449219 288.328125 32.449219 " fill-opacity="1" fill-rule="nonzero"/><path fill="#26262c" d="M 258.613281 20.539062 C 258.414062 20.539062 258.222656 20.449219 258.097656 20.277344 L 256.046875 17.394531 C 255.84375 17.113281 255.910156 16.71875 256.195312 16.515625 C 256.480469 16.316406 256.871094 16.382812 257.074219 16.664062 L 259.125 19.542969 C 259.328125 19.828125 259.261719 20.222656 258.980469 20.421875 C 258.867188 20.503906 258.738281 20.539062 258.613281 20.539062 " fill-opacity="1" fill-rule="nonzero"/><path fill="#26262c" d="M 265.796875 30.617188 C 265.597656 30.617188 265.40625 30.527344 265.28125 30.355469 L 263.230469 27.472656 C 263.027344 27.191406 263.09375 26.796875 263.375 26.597656 C 263.660156 26.394531 264.054688 26.457031 264.257812 26.746094 L 266.308594 29.621094 C 266.511719 29.90625 266.445312 30.296875 266.160156 30.503906 C 266.050781 30.578125 265.921875 30.617188 265.796875 30.617188 " fill-opacity="1" fill-rule="nonzero"/><path fill="#26262c" d="M 254.726562 28.792969 C 254.53125 28.792969 254.339844 28.703125 254.214844 28.53125 C 254.011719 28.25 254.074219 27.855469 254.359375 27.652344 L 257.226562 25.582031 C 257.507812 25.378906 257.902344 25.445312 258.105469 25.726562 C 258.308594 26.007812 258.246094 26.402344 257.960938 26.605469 L 255.09375 28.675781 C 254.984375 28.753906 254.851562 28.792969 254.726562 28.792969 " fill-opacity="1" fill-rule="nonzero"/><path fill="#26262c" d="M 264.761719 21.554688 C 264.566406 21.554688 264.375 21.464844 264.25 21.292969 C 264.046875 21.011719 264.113281 20.617188 264.394531 20.414062 L 267.261719 18.34375 C 267.542969 18.140625 267.9375 18.203125 268.140625 18.484375 C 268.34375 18.765625 268.28125 19.160156 267.996094 19.367188 L 265.132812 21.433594 C 265.019531 21.515625 264.890625 21.554688 264.761719 21.554688 " fill-opacity="1" fill-rule="nonzero"/><path fill="#26262c" d="M 22.804688 193.554688 C 22.605469 193.554688 22.414062 193.460938 22.289062 193.289062 L 20.238281 190.410156 C 20.035156 190.125 20.101562 189.734375 20.386719 189.53125 C 20.671875 189.328125 21.0625 189.394531 21.265625 189.679688 L 23.316406 192.558594 C 23.519531 192.839844 23.453125 193.234375 23.167969 193.4375 C 23.058594 193.515625 22.929688 193.554688 22.804688 193.554688 " fill-opacity="1" fill-rule="nonzero"/><path fill="#26262c" d="M 29.988281 203.632812 C 29.789062 203.632812 29.597656 203.539062 29.472656 203.367188 L 27.421875 200.488281 C 27.21875 200.207031 27.285156 199.8125 27.570312 199.609375 C 27.851562 199.40625 28.246094 199.472656 28.449219 199.757812 L 30.5 202.636719 C 30.703125 202.917969 30.636719 203.3125 30.351562 203.515625 C 30.242188 203.59375 30.113281 203.632812 29.988281 203.632812 " fill-opacity="1" fill-rule="nonzero"/><path fill="#26262c" d="M 18.917969 201.808594 C 18.722656 201.808594 18.527344 201.71875 18.40625 201.546875 C 18.203125 201.265625 18.265625 200.871094 18.546875 200.667969 L 21.414062 198.597656 C 21.699219 198.394531 22.09375 198.460938 22.296875 198.738281 C 22.5 199.023438 22.433594 199.417969 22.152344 199.621094 L 19.285156 201.691406 C 19.171875 201.769531 19.042969 201.808594 18.917969 201.808594 " fill-opacity="1" fill-rule="nonzero"/><path fill="#26262c" d="M 28.953125 194.566406 C 28.757812 194.566406 28.566406 194.476562 28.441406 194.304688 C 28.238281 194.023438 28.300781 193.628906 28.585938 193.425781 L 31.453125 191.355469 C 31.734375 191.152344 32.128906 191.21875 32.332031 191.5 C 32.535156 191.78125 32.472656 192.175781 32.191406 192.378906 L 29.320312 194.449219 C 29.210938 194.527344 29.082031 194.566406 28.953125 194.566406 " fill-opacity="1" fill-rule="nonzero"/><path fill="#ffffff" d="M 17.917969 42.636719 C 17.933594 30.023438 28.171875 19.75 40.785156 19.695312 C 53.398438 19.640625 63.613281 29.820312 63.597656 42.433594 C 63.578125 55.046875 53.339844 65.316406 40.726562 65.371094 C 28.113281 65.425781 17.898438 55.246094 17.917969 42.636719 " fill-opacity="1" fill-rule="nonzero"/><path fill="#26262c" d="M 40.890625 20.324219 C 40.855469 20.324219 40.824219 20.324219 40.789062 20.324219 C 28.539062 20.378906 18.5625 30.386719 18.546875 42.636719 C 18.539062 48.566406 20.839844 54.132812 25.027344 58.308594 C 29.191406 62.457031 34.726562 64.738281 40.621094 64.742188 C 40.65625 64.742188 40.6875 64.738281 40.722656 64.738281 C 52.972656 64.6875 62.949219 54.679688 62.964844 42.433594 C 62.972656 36.5 60.671875 30.9375 56.484375 26.761719 C 52.316406 22.609375 46.785156 20.324219 40.890625 20.324219 Z M 40.621094 66 C 34.390625 66 28.542969 63.589844 24.136719 59.199219 C 19.710938 54.785156 17.277344 48.902344 17.285156 42.632812 C 17.304688 29.695312 27.84375 19.125 40.785156 19.066406 C 40.820312 19.066406 40.855469 19.066406 40.890625 19.066406 C 47.121094 19.066406 52.96875 21.480469 57.375 25.867188 C 61.800781 30.28125 64.234375 36.167969 64.226562 42.433594 C 64.207031 55.371094 53.667969 65.945312 40.726562 66 C 40.691406 66 40.65625 66 40.621094 66 " fill-opacity="1" fill-rule="nonzero"/><path fill="#614ce1" d="M 52.34375 31.933594 L 45.382812 36.023438 C 45.023438 36.234375 45.011719 36.75 45.363281 36.976562 L 46.390625 37.636719 C 46.652344 37.804688 46.726562 38.152344 46.5625 38.414062 L 43.335938 43.445312 C 43.167969 43.707031 42.820312 43.78125 42.558594 43.613281 L 36.570312 39.773438 C 36.3125 39.605469 35.964844 39.683594 35.796875 39.945312 L 28.59375 51.105469 C 28.425781 51.371094 28.503906 51.714844 28.765625 51.882812 L 30.953125 53.285156 C 31.210938 53.453125 31.558594 53.378906 31.726562 53.117188 L 36.921875 45.089844 C 37.089844 44.824219 37.4375 44.75 37.695312 44.917969 L 43.683594 48.757812 C 43.945312 48.921875 44.289062 48.847656 44.457031 48.585938 L 49.6875 40.429688 C 49.855469 40.167969 50.203125 40.09375 50.464844 40.261719 L 51.574219 40.972656 C 51.929688 41.203125 52.398438 40.972656 52.4375 40.554688 L 53.183594 32.464844 C 53.226562 32.011719 52.738281 31.699219 52.34375 31.933594 " fill-opacity="1" fill-rule="nonzero"/><path fill="#614ce1" d="M 145.246094 29.824219 C 159.039062 29.824219 172.082031 36.066406 185.789062 52.320312 L 129.011719 52.394531 C 123.621094 52.394531 119.074219 56.25 118.230469 61.574219 C 117.226562 67.894531 117.210938 75.808594 118.304688 79.996094 C 119.835938 85.832031 121.304688 89.960938 122.523438 92.824219 C 124.066406 96.433594 122.894531 100.632812 119.726562 102.953125 L 117.234375 104.777344 C 113.671875 107.386719 108.703125 106.828125 105.820312 103.480469 C 102.074219 99.132812 97.210938 92.601562 94.019531 84.972656 C 86.027344 65.859375 92.125 35.699219 118.6875 30.433594 C 124.351562 29.308594 142.300781 29.824219 145.246094 29.824219 " fill-opacity="1" fill-rule="nonzero"/><path fill="#ffffff" d="M 150.25 51.890625 C 148.808594 48.6875 144.984375 47.332031 141.769531 48.761719 C 139.289062 49.867188 136.070312 51.449219 135.136719 52.609375 C 134.019531 53.992188 132.210938 58.3125 133.71875 61.621094 C 135.074219 64.585938 138.863281 65.367188 141.441406 63.375 C 142.792969 62.328125 144.195312 60.585938 145.058594 57.667969 C 145.539062 56.050781 146.636719 54.652344 148.183594 53.984375 C 148.605469 53.800781 149.058594 53.664062 149.546875 53.605469 C 150.195312 53.527344 150.609375 52.878906 150.398438 52.261719 C 150.363281 52.148438 150.3125 52.027344 150.25 51.890625 " fill-opacity="1" fill-rule="nonzero"/><path fill="#26262c" d="M 144.441406 48.820312 C 143.632812 48.820312 142.8125 48.988281 142.027344 49.335938 C 137.355469 51.417969 136.011719 52.527344 135.628906 53.003906 C 134.660156 54.203125 132.902344 58.3125 134.292969 61.359375 C 134.832031 62.539062 135.875 63.398438 137.144531 63.714844 C 138.503906 64.050781 139.929688 63.742188 141.054688 62.875 C 142.605469 61.679688 143.75 59.867188 144.457031 57.488281 C 145.011719 55.609375 146.28125 54.117188 147.933594 53.40625 C 148.441406 53.183594 148.960938 53.039062 149.472656 52.980469 C 149.640625 52.957031 149.726562 52.855469 149.765625 52.796875 C 149.800781 52.738281 149.855469 52.617188 149.800781 52.464844 C 149.769531 52.371094 149.730469 52.261719 149.675781 52.148438 C 148.734375 50.058594 146.640625 48.820312 144.441406 48.820312 Z M 138.238281 65.109375 C 137.773438 65.109375 137.304688 65.050781 136.839844 64.9375 C 135.195312 64.53125 133.847656 63.417969 133.148438 61.882812 C 131.539062 58.359375 133.328125 53.84375 134.648438 52.210938 C 135.457031 51.207031 137.765625 49.855469 141.515625 48.183594 C 145.078125 46.601562 149.253906 48.144531 150.824219 51.628906 L 150.824219 51.632812 C 150.894531 51.789062 150.953125 51.929688 150.996094 52.058594 C 151.15625 52.535156 151.097656 53.046875 150.832031 53.46875 C 150.5625 53.894531 150.125 54.171875 149.621094 54.230469 C 149.230469 54.277344 148.832031 54.390625 148.4375 54.558594 C 147.125 55.125 146.117188 56.324219 145.664062 57.847656 C 144.878906 60.484375 143.589844 62.511719 141.828125 63.871094 C 140.777344 64.683594 139.519531 65.109375 138.238281 65.109375 " fill-opacity="1" fill-rule="nonzero"/><path fill="#ffffff" d="M 126.253906 111.332031 C 126.675781 112.027344 127.15625 112.863281 127.464844 114.375 L 128.730469 121.386719 L 124.527344 121.394531 C 123.828125 121.394531 123.160156 121.652344 122.632812 122.109375 C 122.632812 122.113281 122.628906 122.113281 122.625 122.117188 C 122.0625 122.605469 121.808594 123.359375 121.949219 124.089844 C 122.234375 125.570312 123.339844 129.875 123.351562 130.550781 C 123.367188 131.5625 123.527344 132.988281 122.859375 133.804688 L 122.683594 134.015625 C 121.980469 134.855469 120.636719 134.644531 120.242188 133.625 L 116.488281 123.75 C 115.996094 122.488281 115.960938 121.09375 116.382812 119.800781 L 118.566406 113.125 C 119.058594 111.621094 118.636719 109.972656 117.488281 108.890625 L 109.277344 102.054688 C 106.304688 99.292969 111.890625 94.175781 111.890625 94.175781 C 113.734375 92.882812 116.308594 93.386719 117.523438 95.152344 L 126.253906 111.332031 " fill-opacity="1" fill-rule="nonzero"/><path fill="#26262c" d="M 112.285156 94.667969 C 111.355469 95.535156 109.042969 98.101562 109.035156 100.066406 C 109.03125 100.675781 109.25 101.175781 109.703125 101.597656 L 117.890625 108.40625 C 119.242188 109.675781 119.730469 111.59375 119.164062 113.320312 L 116.980469 119.996094 C 116.605469 121.148438 116.640625 122.398438 117.074219 123.519531 L 120.832031 133.402344 C 120.933594 133.667969 121.15625 133.847656 121.441406 133.894531 C 121.730469 133.941406 122.011719 133.835938 122.199219 133.609375 L 122.375 133.402344 C 122.796875 132.886719 122.761719 131.851562 122.730469 131.019531 C 122.726562 130.859375 122.722656 130.707031 122.71875 130.5625 C 122.714844 130.21875 122.242188 128.214844 121.933594 126.886719 C 121.683594 125.8125 121.445312 124.800781 121.332031 124.210938 C 121.148438 123.257812 121.484375 122.273438 122.214844 121.640625 C 122.863281 121.074219 123.683594 120.765625 124.523438 120.761719 L 127.976562 120.757812 L 126.84375 114.488281 C 126.566406 113.136719 126.152344 112.378906 125.714844 111.660156 C 125.707031 111.648438 125.703125 111.640625 125.699219 111.628906 L 116.984375 95.484375 C 116.492188 94.785156 115.710938 94.296875 114.828125 94.136719 C 113.925781 93.972656 113.027344 94.164062 112.285156 94.667969 Z M 121.582031 135.167969 C 121.46875 135.167969 121.355469 135.15625 121.238281 135.136719 C 120.511719 135.019531 119.921875 134.539062 119.65625 133.855469 L 115.898438 123.972656 C 115.359375 122.585938 115.316406 121.03125 115.785156 119.605469 L 117.96875 112.929688 C 118.378906 111.664062 118.023438 110.257812 117.054688 109.351562 L 108.871094 102.542969 C 108.132812 101.855469 107.769531 101.027344 107.773438 100.058594 C 107.785156 97.117188 111.316406 93.847656 111.464844 93.710938 C 111.484375 93.691406 111.507812 93.675781 111.527344 93.660156 C 112.550781 92.941406 113.800781 92.671875 115.050781 92.894531 C 116.273438 93.117188 117.363281 93.808594 118.042969 94.796875 C 118.054688 94.816406 118.066406 94.835938 118.078125 94.855469 L 126.800781 111.019531 C 127.273438 111.800781 127.765625 112.699219 128.082031 114.25 L 129.351562 121.273438 C 129.382812 121.457031 129.335938 121.648438 129.214844 121.789062 C 129.09375 121.933594 128.917969 122.015625 128.730469 122.015625 L 124.527344 122.023438 C 123.988281 122.023438 123.464844 122.222656 123.046875 122.585938 C 122.648438 122.929688 122.46875 123.460938 122.570312 123.972656 C 122.679688 124.539062 122.910156 125.539062 123.160156 126.597656 C 123.664062 128.753906 123.972656 130.09375 123.980469 130.542969 C 123.980469 130.679688 123.988281 130.824219 123.992188 130.976562 C 124.027344 132.019531 124.070312 133.320312 123.347656 134.203125 L 123.164062 134.417969 C 122.765625 134.902344 122.191406 135.167969 121.582031 135.167969 " fill-opacity="1" fill-rule="nonzero"/><path fill="#ffffff" d="M 138.445312 41.324219 C 138.839844 41.226562 139.203125 41.039062 139.515625 40.777344 L 144.328125 36.785156 C 144.84375 36.464844 145.507812 36.511719 145.96875 36.898438 L 149.410156 39.820312 C 149.855469 40.191406 150.492188 40.21875 150.972656 39.890625 L 155.328125 36.90625 L 157.453125 37.585938 C 157.617188 37.640625 157.796875 37.550781 157.855469 37.386719 L 159.25 33.472656 C 159.847656 32.109375 161.890625 29.878906 161.355469 29.375 C 161.355469 29.375 155.117188 15.539062 148.253906 18.777344 C 147.257812 19.246094 146.492188 20.089844 146.050781 21.097656 L 145.128906 23.203125 C 144.203125 25.3125 139.492188 30.148438 134.542969 31.40625 C 133.886719 31.574219 132.179688 31.707031 130.847656 31.792969 C 129.855469 31.855469 129.191406 32.820312 129.460938 33.777344 C 129.777344 34.90625 130.371094 36.476562 131.460938 38.292969 C 132.898438 40.671875 135.675781 41.960938 138.386719 41.335938 C 138.40625 41.332031 138.425781 41.328125 138.445312 41.324219 " fill-opacity="1" fill-rule="nonzero"/><path fill="#26262c" d="M 160.921875 29.832031 Z M 150.382812 18.914062 C 149.75 18.914062 149.132812 19.058594 148.519531 19.347656 C 147.695312 19.738281 147.019531 20.453125 146.625 21.351562 L 145.707031 23.457031 C 144.738281 25.660156 139.980469 30.679688 134.699219 32.019531 C 134.132812 32.164062 132.847656 32.300781 130.886719 32.425781 C 130.605469 32.445312 130.363281 32.578125 130.199219 32.808594 C 130.035156 33.039062 129.988281 33.332031 130.066406 33.605469 C 130.34375 34.589844 130.902344 36.144531 132 37.96875 C 133.328125 40.167969 135.835938 41.277344 138.246094 40.726562 L 138.296875 40.714844 C 138.585938 40.640625 138.863281 40.5 139.113281 40.296875 L 143.925781 36.304688 C 143.949219 36.285156 143.972656 36.269531 143.996094 36.253906 C 144.746094 35.789062 145.699219 35.855469 146.371094 36.414062 L 149.820312 39.339844 C 150.039062 39.527344 150.367188 39.539062 150.617188 39.371094 L 154.96875 36.386719 C 155.128906 36.277344 155.332031 36.246094 155.519531 36.304688 L 157.359375 36.898438 L 158.65625 33.261719 C 158.660156 33.25 158.667969 33.234375 158.671875 33.222656 C 158.921875 32.65625 159.371094 31.984375 159.808594 31.339844 C 160.171875 30.804688 160.710938 30.007812 160.800781 29.675781 C 160.792969 29.664062 160.785156 29.648438 160.78125 29.636719 C 160.742188 29.550781 156.832031 21 152.03125 19.230469 C 151.464844 19.019531 150.917969 18.914062 150.382812 18.914062 Z M 137.003906 42.125 C 134.574219 42.125 132.253906 40.824219 130.921875 38.617188 C 129.984375 37.058594 129.285156 35.488281 128.851562 33.949219 C 128.667969 33.304688 128.785156 32.621094 129.171875 32.082031 C 129.554688 31.542969 130.148438 31.207031 130.808594 31.167969 C 132.636719 31.050781 133.910156 30.917969 134.390625 30.796875 C 139.007812 29.625 143.660156 24.988281 144.550781 22.949219 L 145.472656 20.847656 C 145.988281 19.667969 146.878906 18.730469 147.984375 18.210938 C 149.414062 17.53125 150.925781 17.476562 152.46875 18.046875 C 157.546875 19.917969 161.425781 28.027344 161.886719 29.027344 C 162.433594 29.714844 161.730469 30.75 160.855469 32.046875 C 160.453125 32.636719 160.039062 33.25 159.835938 33.710938 L 158.449219 37.601562 C 158.273438 38.089844 157.753906 38.347656 157.257812 38.1875 L 155.425781 37.601562 L 151.328125 40.410156 C 150.617188 40.898438 149.664062 40.851562 149.007812 40.304688 L 145.558594 37.378906 C 145.316406 37.179688 144.972656 37.148438 144.691406 37.304688 L 139.917969 41.265625 C 139.523438 41.589844 139.0625 41.824219 138.589844 41.9375 L 138.527344 41.953125 C 138.019531 42.070312 137.507812 42.125 137.003906 42.125 " fill-opacity="1" fill-rule="nonzero"/><path fill="#26262c" d="M 171.484375 23.914062 C 169.875 20.875 167.21875 22.246094 165.679688 13.613281 C 164.753906 8.425781 160.585938 13.785156 160.230469 12.464844 C 158.921875 7.585938 158.96875 7.75 157.210938 6.050781 C 156.042969 4.925781 153.035156 5.554688 151.335938 6.933594 C 149.09375 8.75 146.851562 13.84375 144.214844 18.78125 C 142.847656 21.339844 144 25.363281 148.828125 24.585938 C 150.339844 24.34375 150.4375 21.992188 151.761719 22.265625 C 155.203125 22.964844 152.371094 25.875 154.390625 26.894531 C 156.328125 27.875 157.359375 28.136719 159.863281 28.902344 C 162.890625 29.820312 162.777344 33.386719 167.585938 32.101562 C 170.089844 31.429688 173.6875 28.074219 171.484375 23.914062 " fill-opacity="1" fill-rule="nonzero"/><path fill="#ffffff" d="M 304.773438 310.09375 C 305.019531 310.472656 314.332031 323.792969 314.332031 323.792969 C 314.332031 323.792969 313.027344 328.414062 310.617188 329.074219 L 299.539062 317.085938 L 304.773438 310.09375 " fill-opacity="1" fill-rule="nonzero"/><path fill="#26262c" d="M 300.359375 317.046875 L 310.789062 328.332031 C 312.199219 327.632812 313.246094 325.152344 313.640625 323.902344 C 312.335938 322.03125 306.527344 313.726562 304.753906 311.171875 Z M 310.617188 329.703125 C 310.445312 329.703125 310.277344 329.632812 310.152344 329.5 L 299.078125 317.515625 C 298.871094 317.292969 298.851562 316.953125 299.035156 316.710938 L 304.269531 309.714844 C 304.394531 309.550781 304.585938 309.464844 304.796875 309.464844 C 305.003906 309.472656 305.195312 309.578125 305.304688 309.753906 C 305.519531 310.089844 312.269531 319.738281 314.847656 323.429688 C 314.957031 323.585938 314.992188 323.78125 314.941406 323.964844 C 314.796875 324.472656 313.460938 328.949219 310.785156 329.679688 C 310.726562 329.695312 310.671875 329.703125 310.617188 329.703125 " fill-opacity="1" fill-rule="nonzero"/><path fill="#ffffff" d="M 320.589844 327.335938 C 320.589844 327.335938 317.8125 338.097656 313.167969 343.632812 C 308.523438 349.167969 300.808594 347.175781 300.808594 347.175781 C 300.808594 347.175781 300.242188 342.496094 301.207031 341.277344 C 302.175781 340.058594 307.519531 333.554688 307.503906 327.707031 L 309.878906 324.097656 L 311.558594 326.269531 L 313.800781 321.660156 L 320.589844 327.335938 " fill-opacity="1" fill-rule="nonzero"/><path fill="#26262c" d="M 301.386719 346.652344 C 303.007812 346.949219 308.960938 347.671875 312.6875 343.226562 C 316.695312 338.449219 319.335938 329.511719 319.875 327.558594 L 314.019531 322.660156 L 312.125 326.546875 C 312.027344 326.742188 311.839844 326.875 311.621094 326.898438 C 311.40625 326.917969 311.191406 326.828125 311.058594 326.652344 L 309.921875 325.183594 L 308.136719 327.898438 C 308.089844 330.605469 306.925781 335.125 301.808594 341.542969 L 301.703125 341.667969 C 301.195312 342.308594 301.210938 344.824219 301.386719 346.652344 Z M 304.109375 348.164062 C 302.179688 348.164062 300.785156 347.820312 300.652344 347.785156 C 300.398438 347.71875 300.214844 347.507812 300.183594 347.25 C 300.082031 346.425781 299.644531 342.238281 300.714844 340.886719 L 300.820312 340.753906 C 305.835938 334.472656 306.882812 330.191406 306.875 327.710938 C 306.875 327.582031 306.914062 327.464844 306.980469 327.359375 L 309.355469 323.753906 C 309.46875 323.582031 309.65625 323.476562 309.859375 323.46875 C 310.066406 323.464844 310.257812 323.554688 310.378906 323.714844 L 311.4375 325.082031 L 313.238281 321.382812 C 313.324219 321.207031 313.484375 321.082031 313.671875 321.042969 C 313.863281 321.003906 314.0625 321.050781 314.210938 321.175781 L 320.996094 326.851562 C 321.183594 327.007812 321.261719 327.257812 321.203125 327.492188 C 321.085938 327.9375 318.332031 338.457031 313.652344 344.039062 C 310.792969 347.445312 306.894531 348.164062 304.109375 348.164062 " fill-opacity="1" fill-rule="nonzero"/><path fill="#ffffff" d="M 316.832031 328.128906 C 316.832031 328.128906 313.90625 344.039062 302.664062 345.222656 L 316.832031 328.128906 " fill-opacity="1" fill-rule="nonzero"/><path fill="#26262c" d="M 302.660156 345.851562 C 302.34375 345.851562 302.070312 345.609375 302.035156 345.289062 C 302 344.941406 302.25 344.632812 302.597656 344.59375 C 313.238281 343.476562 316.183594 328.167969 316.210938 328.015625 C 316.277344 327.671875 316.605469 327.445312 316.949219 327.507812 C 317.289062 327.570312 317.515625 327.902344 317.449219 328.242188 C 317.332031 328.910156 314.3125 344.628906 302.726562 345.847656 C 302.707031 345.851562 302.683594 345.851562 302.660156 345.851562 " fill-opacity="1" fill-rule="nonzero"/><path fill="#ffffff" d="M 299.011719 322.75 C 299.0625 323.320312 298.472656 331.300781 296 336.316406 C 296 336.316406 297.867188 340.019531 301.367188 339.359375 C 301.367188 339.359375 305.710938 329.816406 306.5625 322.554688 L 299.011719 322.75 " fill-opacity="1" fill-rule="nonzero"/><path fill="#26262c" d="M 296.714844 336.289062 C 297.164062 337.027344 298.613281 339.035156 300.933594 338.785156 C 301.648438 337.152344 304.933594 329.445312 305.84375 323.203125 L 299.628906 323.363281 C 299.507812 325.507812 298.769531 331.90625 296.714844 336.289062 Z M 300.5625 340.0625 C 297.921875 340.0625 296.085938 337.878906 295.441406 336.597656 C 295.351562 336.421875 295.347656 336.210938 295.4375 336.035156 C 297.765625 331.320312 298.4375 323.582031 298.386719 322.804688 C 298.375 322.632812 298.433594 322.457031 298.550781 322.332031 C 298.664062 322.207031 298.828125 322.125 298.996094 322.121094 L 306.550781 321.925781 C 306.742188 321.914062 306.910156 321.996094 307.035156 322.128906 C 307.15625 322.265625 307.214844 322.449219 307.195312 322.628906 C 306.335938 329.90625 302.121094 339.222656 301.941406 339.617188 C 301.859375 339.804688 301.6875 339.9375 301.488281 339.976562 C 301.167969 340.035156 300.859375 340.0625 300.5625 340.0625 " fill-opacity="1" fill-rule="nonzero"/><path fill="#ffffff" d="M 304.097656 334.636719 C 304.097656 334.636719 304.75 342.328125 304.109375 346.394531 C 303.945312 347.414062 303.210938 348.242188 302.226562 348.550781 C 299.089844 349.523438 289.707031 352.488281 280.789062 352.203125 C 278.742188 352.136719 277.65625 350.761719 277.390625 349.984375 C 276.65625 347.84375 277.675781 344.933594 280.839844 342.070312 C 285.4375 337.910156 296.085938 331.632812 296.085938 331.632812 L 299.320312 335.519531 L 298.484375 339.332031 L 304.097656 334.636719 " fill-opacity="1" fill-rule="nonzero"/><path fill="#26262c" d="M 295.949219 332.449219 C 293.863281 333.699219 285.222656 338.953125 281.261719 342.539062 C 278.511719 345.027344 277.285156 347.734375 277.988281 349.78125 C 278.152344 350.257812 278.976562 351.511719 280.808594 351.570312 C 289.484375 351.851562 298.496094 349.050781 301.890625 347.992188 L 302.042969 347.945312 C 302.8125 347.707031 303.367188 347.074219 303.488281 346.292969 C 303.960938 343.308594 303.710938 338.226562 303.558594 335.910156 L 298.890625 339.8125 C 298.6875 339.988281 298.394531 340.011719 298.160156 339.871094 C 297.929688 339.730469 297.816406 339.460938 297.871094 339.199219 L 298.640625 335.683594 Z M 282.035156 352.851562 C 281.613281 352.851562 281.191406 352.847656 280.769531 352.832031 C 278.316406 352.753906 277.097656 351.070312 276.796875 350.191406 C 275.914062 347.617188 277.230469 344.484375 280.417969 341.605469 C 285.011719 337.445312 295.332031 331.347656 295.769531 331.089844 C 296.035156 330.933594 296.375 330.992188 296.574219 331.226562 L 299.808594 335.113281 C 299.933594 335.261719 299.980469 335.460938 299.9375 335.652344 L 299.5 337.664062 L 303.695312 334.152344 C 303.875 334 304.121094 333.964844 304.339844 334.050781 C 304.558594 334.144531 304.707031 334.347656 304.726562 334.582031 C 304.753906 334.898438 305.378906 342.398438 304.734375 346.488281 C 304.535156 347.746094 303.648438 348.765625 302.414062 349.152344 L 302.265625 349.199219 C 298.980469 350.21875 290.507812 352.851562 282.035156 352.851562 " fill-opacity="1" fill-rule="nonzero"/><path fill="#ffffff" d="M 299.96875 346.136719 C 299.96875 346.136719 292.675781 349.425781 281.363281 349.699219 L 299.96875 346.136719 " fill-opacity="1" fill-rule="nonzero"/><path fill="#26262c" d="M 281.363281 350.328125 C 281.027344 350.328125 280.742188 350.058594 280.734375 349.714844 C 280.726562 349.367188 281 349.078125 281.347656 349.070312 C 292.40625 348.800781 299.640625 345.59375 299.707031 345.5625 C 300.027344 345.417969 300.398438 345.5625 300.542969 345.878906 C 300.6875 346.195312 300.542969 346.570312 300.226562 346.710938 C 299.925781 346.847656 292.691406 350.054688 281.378906 350.328125 C 281.378906 350.328125 281.371094 350.328125 281.363281 350.328125 " fill-opacity="1" fill-rule="nonzero"/><path fill="#26262c" d="M 282.855469 218.359375 C 282.855469 218.359375 268.820312 249.464844 268.765625 270.703125 C 268.714844 291.9375 301.828125 321.242188 301.828125 321.242188 L 308.035156 315.859375 C 308.035156 315.859375 294.621094 298.246094 292.503906 282.390625 C 290.390625 266.539062 299.179688 242.5 299.179688 242.5 L 301.574219 221.359375 L 282.855469 218.359375 " fill-opacity="1" fill-rule="nonzero"/><path fill="#26262c" d="M 316.484375 218.359375 C 316.484375 218.359375 324.058594 265.027344 307.78125 326.558594 L 296.226562 324.683594 C 296.226562 324.683594 302.628906 271.234375 289.941406 242.796875 L 287.113281 217.097656 L 316.484375 218.359375 " fill-opacity="1" fill-rule="nonzero"/><path fill="#ffffff" d="M 296.09375 271.375 C 296.089844 271.375 296.089844 271.375 296.089844 271.375 C 295.746094 271.375 295.460938 271.089844 295.464844 270.742188 C 295.503906 263.769531 293.535156 250.460938 290.734375 246.367188 C 290.539062 246.078125 290.613281 245.6875 290.898438 245.492188 C 291.1875 245.292969 291.578125 245.367188 291.773438 245.65625 C 294.8125 250.097656 296.765625 263.699219 296.726562 270.75 C 296.722656 271.09375 296.441406 271.375 296.09375 271.375 " fill-opacity="1" fill-rule="nonzero"/><path fill="#bcbfdb" d="M 297.054688 311.585938 C 297.042969 311.585938 297.035156 311.585938 297.019531 311.585938 C 296.671875 311.566406 296.40625 311.269531 296.425781 310.921875 C 296.789062 304.417969 296.59375 296.203125 296.589844 296.125 C 296.582031 295.777344 296.859375 295.488281 297.207031 295.476562 C 297.546875 295.484375 297.84375 295.742188 297.851562 296.09375 C 297.851562 296.171875 298.050781 304.4375 297.683594 310.992188 C 297.664062 311.328125 297.386719 311.585938 297.054688 311.585938 " fill-opacity="1" fill-rule="nonzero"/><path fill="#26262c" d="M 313.335938 146.941406 C 314.648438 149.582031 312.785156 150.515625 313.695312 155.644531 C 314.367188 159.410156 315.71875 160.851562 314.820312 162.726562 C 314.007812 164.414062 312.058594 165.023438 310.773438 165.425781 C 304.925781 167.246094 299.292969 164.285156 295.835938 162.464844 C 293.035156 160.992188 289.199219 158.972656 289.460938 156.925781 C 289.710938 154.90625 293.667969 155.1875 295.527344 151.800781 C 297.023438 149.074219 295.304688 147.363281 296.878906 145.058594 C 298.917969 142.078125 303.667969 142.203125 304.429688 142.21875 C 307.488281 142.300781 311.71875 143.691406 313.335938 146.941406 " fill-opacity="1" fill-rule="nonzero"/><path fill="#ffffff" d="M 280.671875 162.550781 L 296.046875 166.398438 C 296.324219 166.460938 296.605469 166.304688 296.703125 166.035156 C 297.75 163.089844 296.121094 159.792969 295.648438 158.9375 C 295.574219 158.804688 295.445312 158.710938 295.296875 158.667969 C 294.535156 158.460938 293.847656 158.191406 293.230469 157.863281 C 292.46875 157.457031 292.15625 156.523438 292.503906 155.734375 C 293.066406 154.460938 293.679688 152.746094 294.023438 152.042969 C 294.105469 151.871094 294.105469 151.667969 294 151.511719 C 293.734375 151.121094 293.328125 150.824219 293.375 150.242188 C 293.394531 150.023438 293.546875 149.828125 293.761719 149.761719 C 295.691406 149.195312 297.183594 146.292969 298.472656 145.414062 C 299.089844 144.992188 299.503906 144.882812 300.195312 144.503906 C 300.3125 144.441406 300.449219 144.414062 300.578125 144.441406 C 303.859375 145.152344 298.828125 149.226562 303.128906 151.613281 C 303.34375 151.734375 303.472656 151.976562 303.421875 152.214844 C 303.351562 152.574219 303.363281 153.050781 303.410156 153.488281 C 303.410156 153.496094 303.410156 153.5 303.410156 153.503906 C 303.453125 153.949219 303.976562 154.164062 304.324219 153.878906 C 304.972656 153.351562 305.640625 153.199219 306.03125 153.429688 C 306.589844 153.753906 306.550781 154.828125 306.355469 155.472656 C 305.960938 156.757812 304.625 157.347656 303.859375 157.589844 C 303.566406 157.679688 303.402344 157.984375 303.488281 158.277344 C 303.996094 160.046875 305.535156 165.566406 305.652344 168.074219 C 305.664062 168.332031 305.84375 168.546875 306.097656 168.601562 L 309.03125 169.246094 C 313.445312 170.214844 318.691406 172.886719 322.070312 175.890625 C 322.070312 175.890625 328.300781 180.757812 327.980469 181.078125 C 318.847656 190.367188 300.90625 184.558594 294.261719 181.613281 C 287.824219 178.753906 280.238281 162.457031 280.671875 162.550781 " fill-opacity="1" fill-rule="nonzero"/><path fill="#26262c" d="M 296.195312 165.789062 L 296.199219 165.789062 Z M 281.636719 163.445312 C 283.171875 166.964844 289.28125 178.714844 294.515625 181.039062 C 296.816406 182.054688 317.035156 190.613281 327.171875 180.988281 C 326.382812 180.175781 323.929688 178.148438 321.679688 176.390625 C 318.339844 173.425781 313.214844 170.808594 308.890625 169.863281 L 305.957031 169.222656 C 305.429688 169.105469 305.046875 168.644531 305.019531 168.105469 C 304.90625 165.652344 303.351562 160.097656 302.878906 158.457031 C 302.699219 157.828125 303.046875 157.183594 303.667969 156.988281 C 304.3125 156.785156 305.441406 156.300781 305.75 155.292969 C 305.9375 154.667969 305.835938 154.046875 305.710938 153.972656 C 305.636719 153.929688 305.242188 153.945312 304.71875 154.371094 C 304.378906 154.648438 303.914062 154.71875 303.507812 154.546875 C 303.101562 154.378906 302.820312 154.003906 302.78125 153.566406 C 302.722656 152.984375 302.726562 152.511719 302.789062 152.152344 C 300.074219 150.625 300.59375 148.386719 300.9375 146.90625 C 301.082031 146.28125 301.226562 145.640625 301.058594 145.367188 C 300.957031 145.210938 300.695312 145.117188 300.476562 145.066406 C 300.203125 145.214844 299.972656 145.324219 299.753906 145.425781 C 299.421875 145.585938 299.164062 145.707031 298.828125 145.933594 C 298.40625 146.222656 297.90625 146.828125 297.375 147.472656 C 296.421875 148.621094 295.347656 149.921875 294 150.351562 C 294.003906 150.492188 294.085938 150.605469 294.277344 150.839844 C 294.359375 150.945312 294.445312 151.050781 294.515625 151.160156 C 294.746094 151.496094 294.773438 151.945312 294.585938 152.324219 C 294.417969 152.667969 294.164062 153.308594 293.894531 153.992188 C 293.640625 154.636719 293.351562 155.367188 293.078125 155.988281 C 292.863281 156.480469 293.058594 157.058594 293.523438 157.308594 C 294.109375 157.621094 294.761719 157.875 295.460938 158.0625 C 295.777344 158.144531 296.039062 158.351562 296.199219 158.636719 C 296.738281 159.621094 298.417969 163.082031 297.292969 166.25 C 297.09375 166.816406 296.496094 167.148438 295.910156 167.019531 Z M 313.917969 186.753906 C 304.707031 186.757812 295.535156 182.867188 294.003906 182.191406 C 290.527344 180.648438 286.910156 175.546875 284.488281 171.539062 C 283.160156 169.339844 279.785156 163.191406 280.054688 162.367188 C 280.15625 162.058594 280.488281 161.867188 280.800781 161.9375 C 280.808594 161.941406 280.816406 161.941406 280.820312 161.945312 L 296.125 165.773438 C 297.027344 163.140625 295.601562 160.171875 295.109375 159.269531 C 294.328125 159.058594 293.597656 158.773438 292.933594 158.421875 C 291.886719 157.867188 291.445312 156.578125 291.921875 155.484375 C 292.1875 154.882812 292.472656 154.164062 292.722656 153.527344 C 293 152.816406 293.246094 152.203125 293.433594 151.808594 C 293.390625 151.75 293.34375 151.691406 293.296875 151.636719 C 293.039062 151.320312 292.6875 150.886719 292.746094 150.191406 C 292.785156 149.710938 293.125 149.296875 293.578125 149.160156 C 294.585938 148.863281 295.550781 147.699219 296.402344 146.667969 C 296.992188 145.957031 297.550781 145.28125 298.117188 144.894531 C 298.535156 144.609375 298.863281 144.453125 299.21875 144.289062 C 299.417969 144.191406 299.636719 144.09375 299.890625 143.953125 C 300.148438 143.8125 300.4375 143.773438 300.707031 143.824219 C 301.382812 143.972656 301.847656 144.257812 302.121094 144.695312 C 302.574219 145.410156 302.375 146.273438 302.164062 147.1875 C 301.828125 148.636719 301.515625 150 303.433594 151.066406 C 303.890625 151.320312 304.140625 151.847656 304.039062 152.347656 C 304.003906 152.5 303.976562 152.792969 304.023438 153.316406 C 304.84375 152.6875 305.726562 152.523438 306.34375 152.882812 C 307.253906 153.417969 307.207031 154.835938 306.953125 155.660156 C 306.492188 157.183594 305 157.882812 304.109375 158.171875 C 304.734375 160.347656 306.144531 165.492188 306.277344 168 L 309.164062 168.632812 C 313.675781 169.621094 319.03125 172.351562 322.484375 175.421875 C 328.566406 180.167969 328.597656 180.6875 328.621094 181.003906 C 328.632812 181.179688 328.554688 181.394531 328.429688 181.523438 C 324.554688 185.464844 319.226562 186.753906 313.917969 186.753906 " fill-opacity="1" fill-rule="nonzero"/><path fill="#26262c" d="M 297.96875 159.816406 C 297.234375 159.816406 296.375 159.707031 295.476562 159.371094 C 295.152344 159.246094 294.984375 158.882812 295.109375 158.558594 C 295.230469 158.230469 295.59375 158.066406 295.921875 158.1875 C 298.019531 158.980469 299.847656 158.253906 299.867188 158.25 C 300.191406 158.117188 300.554688 158.273438 300.6875 158.597656 C 300.820312 158.917969 300.664062 159.285156 300.339844 159.414062 C 300.28125 159.441406 299.328125 159.816406 297.96875 159.816406 " fill-opacity="1" fill-rule="nonzero"/><path fill="#26262c" d="M 311.070312 145.582031 C 311.070312 145.582031 312.058594 139.585938 316.8125 141.210938 C 321.566406 142.832031 316.957031 147.757812 313.363281 148.140625 C 309.769531 148.519531 311.070312 145.582031 311.070312 145.582031 " fill-opacity="1" fill-rule="nonzero"/><path fill="#ffffff" d="M 230.066406 139.921875 C 230.066406 139.921875 228.441406 136.476562 228.171875 134.835938 C 227.5 130.730469 226.058594 125.59375 223.0625 122.160156 C 221.996094 120.9375 220.667969 119.992188 218.15625 119.746094 C 214.734375 119.414062 210.035156 116.398438 209.378906 119.5625 C 208.8125 122.292969 213.316406 121.878906 214.980469 123.855469 C 215.847656 124.882812 219.617188 129.097656 217.066406 131.222656 C 215.242188 132.742188 213.058594 132.082031 212.503906 133.101562 C 212.195312 133.671875 212.34375 134.351562 212.765625 134.847656 C 214.183594 136.511719 218.484375 134.894531 218.484375 134.894531 C 219.355469 134.527344 220.398438 135.601562 220.902344 136.402344 L 224.4375 142.058594 L 230.066406 139.921875 " fill-opacity="1" fill-rule="nonzero"/><path fill="#26262c" d="M 218.855469 134.183594 C 219.9375 134.183594 220.953125 135.300781 221.433594 136.070312 L 224.695312 141.285156 L 229.210938 139.570312 C 228.726562 138.480469 227.761719 136.230469 227.550781 134.9375 C 226.933594 131.1875 225.574219 125.996094 222.589844 122.574219 C 221.714844 121.574219 220.566406 120.617188 218.09375 120.375 C 216.945312 120.261719 215.703125 119.878906 214.5 119.507812 C 212.875 119.003906 211.195312 118.484375 210.453125 118.921875 C 210.308594 119.007812 210.101562 119.179688 209.996094 119.6875 C 209.792969 120.671875 210.5 121.03125 212.28125 121.660156 C 213.402344 122.0625 214.675781 122.511719 215.464844 123.449219 L 215.578125 123.585938 C 216.449219 124.605469 218.757812 127.320312 218.554688 129.648438 C 218.484375 130.472656 218.117188 131.164062 217.46875 131.707031 C 216.367188 132.621094 215.148438 132.839844 214.257812 132.996094 C 213.703125 133.097656 213.175781 133.191406 213.058594 133.398438 C 212.859375 133.769531 213.023438 134.179688 213.246094 134.4375 C 214.167969 135.519531 217.253906 134.683594 218.261719 134.304688 C 218.460938 134.222656 218.660156 134.183594 218.855469 134.183594 Z M 224.175781 142.832031 L 220.367188 136.738281 C 219.851562 135.914062 219.082031 135.328125 218.726562 135.476562 C 218.222656 135.664062 213.941406 137.199219 212.285156 135.253906 C 211.667969 134.53125 211.539062 133.566406 211.953125 132.800781 C 212.355469 132.054688 213.171875 131.910156 214.039062 131.753906 C 214.875 131.609375 215.820312 131.4375 216.660156 130.738281 C 217.050781 130.414062 217.257812 130.023438 217.300781 129.539062 C 217.457031 127.734375 215.320312 125.226562 214.617188 124.402344 L 214.5 124.261719 C 213.929688 123.585938 212.878906 123.214844 211.859375 122.851562 C 210.28125 122.289062 208.316406 121.589844 208.761719 119.433594 C 208.914062 118.695312 209.269531 118.15625 209.8125 117.835938 C 211.035156 117.113281 212.898438 117.691406 214.875 118.300781 C 216.015625 118.652344 217.195312 119.019531 218.21875 119.117188 C 221.132812 119.40625 222.542969 120.605469 223.539062 121.746094 C 226.71875 125.390625 228.152344 130.820312 228.792969 134.734375 C 229.046875 136.269531 230.617188 139.617188 230.636719 139.652344 L 230.925781 140.269531 L 224.175781 142.832031 " fill-opacity="1" fill-rule="nonzero"/><path fill="#ffffff" d="M 318.824219 230.453125 C 318.824219 230.453125 313.234375 226.738281 310.226562 226.082031 C 308.394531 225.679688 306.109375 226.710938 304.9375 227.496094 C 304.324219 227.902344 304.382812 228.8125 305.042969 229.136719 C 306.117188 229.667969 307.722656 229.972656 308.511719 230.449219 C 310.417969 231.59375 313.785156 239.824219 323.328125 233.757812 L 322.082031 229.210938 L 318.824219 230.453125 " fill-opacity="1" fill-rule="nonzero"/><path fill="#26262c" d="M 309.363281 226.625 C 308 226.625 306.371094 227.292969 305.28125 228.019531 C 305.144531 228.113281 305.136719 228.25 305.140625 228.308594 C 305.144531 228.363281 305.171875 228.5 305.320312 228.570312 C 305.792969 228.804688 306.402344 229 306.992188 229.1875 C 307.695312 229.410156 308.359375 229.621094 308.835938 229.910156 C 309.304688 230.191406 309.765625 230.726562 310.34375 231.40625 C 312.484375 233.902344 315.695312 237.644531 322.597656 233.472656 L 321.65625 230.046875 L 319.050781 231.042969 C 318.859375 231.117188 318.648438 231.089844 318.476562 230.976562 C 318.421875 230.941406 312.945312 227.320312 310.089844 226.699219 C 309.859375 226.648438 309.617188 226.625 309.363281 226.625 Z M 316.960938 236.601562 C 313.144531 236.601562 310.847656 233.921875 309.390625 232.226562 C 308.921875 231.679688 308.480469 231.164062 308.1875 230.988281 C 307.835938 230.78125 307.242188 230.589844 306.609375 230.386719 C 305.972656 230.1875 305.320312 229.976562 304.761719 229.703125 C 304.25 229.449219 303.921875 228.957031 303.882812 228.390625 C 303.847656 227.820312 304.109375 227.289062 304.585938 226.972656 C 306.023438 226.011719 308.398438 225.039062 310.359375 225.464844 C 313.097656 226.0625 317.71875 228.984375 318.902344 229.75 L 321.855469 228.621094 C 322.019531 228.558594 322.207031 228.570312 322.363281 228.648438 C 322.523438 228.730469 322.640625 228.871094 322.6875 229.042969 L 323.9375 233.589844 C 324.007812 233.859375 323.898438 234.144531 323.667969 234.292969 C 321.023438 235.972656 318.8125 236.601562 316.960938 236.601562 " fill-opacity="1" fill-rule="nonzero"/><path fill="#ffffff" d="M 221.839844 140.019531 L 229.65625 136.765625 C 229.65625 136.765625 248.164062 149.527344 255.929688 153.011719 C 264.089844 156.667969 283.636719 162.058594 289.226562 163.566406 C 290.097656 163.800781 290.699219 164.574219 290.730469 165.46875 C 290.84375 168.660156 291.925781 176.039062 299.328125 178.269531 C 309.214844 181.253906 315.320312 175.988281 317.664062 173.324219 C 318.347656 172.542969 319.5 172.40625 320.355469 172.996094 C 326.539062 177.277344 348.648438 193.546875 350.617188 208.832031 C 352.722656 227.476562 322.316406 236.414062 322.316406 236.414062 L 320.097656 228.488281 C 320.097656 228.488281 329.859375 222.527344 328.722656 212.6875 C 326.8125 205.417969 323.703125 203.5 321.472656 202.765625 C 320.289062 202.375 319.195312 203.050781 319.027344 204.289062 C 318.078125 211.15625 318.394531 216.128906 318.773438 218.933594 C 318.980469 220.480469 317.945312 221.921875 316.417969 222.234375 C 296.066406 226.398438 277.4375 219.605469 269.632812 215.761719 C 266.855469 214.390625 265.300781 211.371094 265.777344 208.308594 C 267.039062 200.234375 269.632812 190.679688 271.074219 185.675781 C 271.578125 183.925781 270.398438 182.140625 268.59375 181.925781 C 264.664062 181.464844 260.542969 180.523438 256.375 178.90625 C 229.875 168.613281 221.839844 140.019531 221.839844 140.019531 " fill-opacity="1" fill-rule="nonzero"/><path fill="#26262c" d="M 320.828125 228.765625 L 322.746094 235.617188 C 326.992188 234.230469 351.847656 225.367188 349.992188 208.902344 C 348.066406 193.988281 326.542969 178.046875 319.996094 173.515625 C 319.40625 173.105469 318.605469 173.203125 318.136719 173.738281 C 315.871094 176.320312 309.480469 181.992188 299.148438 178.875 C 291.328125 176.515625 290.21875 168.730469 290.101562 165.492188 C 290.082031 164.867188 289.664062 164.335938 289.066406 164.175781 C 283.300781 162.617188 263.847656 157.25 255.671875 153.585938 C 248.371094 150.3125 232.027344 139.160156 229.582031 137.480469 L 222.609375 140.378906 C 223.878906 144.324219 232.691406 169.03125 256.601562 178.316406 C 260.429688 179.804688 264.492188 180.808594 268.671875 181.304688 C 269.710938 181.425781 270.640625 181.996094 271.21875 182.871094 C 271.804688 183.75 271.972656 184.835938 271.679688 185.847656 C 270.246094 190.820312 267.65625 200.367188 266.398438 208.40625 C 265.960938 211.21875 267.371094 213.945312 269.910156 215.195312 C 275.265625 217.832031 294.4375 226.09375 316.289062 221.617188 C 317.496094 221.371094 318.3125 220.230469 318.148438 219.019531 C 317.742188 216.03125 317.457031 211.039062 318.402344 204.203125 C 318.507812 203.417969 318.910156 202.769531 319.53125 202.382812 C 320.15625 201.996094 320.914062 201.917969 321.671875 202.167969 C 325.308594 203.363281 327.8125 206.75 329.332031 212.527344 L 329.347656 212.617188 C 330.394531 221.691406 322.722656 227.480469 320.828125 228.765625 Z M 321.882812 237.199219 L 319.363281 228.199219 L 319.769531 227.949219 C 319.863281 227.894531 329.140625 222.09375 328.101562 212.804688 C 326.234375 205.742188 323.3125 204.035156 321.277344 203.367188 C 320.882812 203.238281 320.5 203.265625 320.199219 203.453125 C 319.898438 203.640625 319.707031 203.96875 319.648438 204.375 C 318.726562 211.066406 319 215.941406 319.398438 218.847656 C 319.648438 220.714844 318.394531 222.472656 316.542969 222.851562 C 294.296875 227.402344 274.800781 219.007812 269.355469 216.324219 C 266.320312 214.832031 264.628906 211.570312 265.15625 208.214844 C 266.417969 200.101562 269.027344 190.5 270.46875 185.5 C 270.660156 184.84375 270.546875 184.136719 270.171875 183.566406 C 269.796875 183.003906 269.195312 182.632812 268.519531 182.554688 C 264.234375 182.046875 260.070312 181.019531 256.144531 179.496094 C 242.296875 174.117188 233.542969 163.714844 228.636719 155.9375 C 223.328125 147.523438 221.253906 140.261719 221.234375 140.1875 L 221.082031 139.652344 L 229.734375 136.050781 L 230.015625 136.25 C 230.199219 136.375 248.558594 149.015625 256.191406 152.4375 C 264.277344 156.066406 283.652344 161.40625 289.394531 162.960938 C 290.527344 163.265625 291.320312 164.265625 291.363281 165.445312 C 291.464844 168.414062 292.472656 175.546875 299.507812 177.667969 C 309.140625 180.574219 315.082031 175.308594 317.1875 172.910156 C 318.082031 171.890625 319.597656 171.707031 320.710938 172.476562 C 327.371094 177.085938 349.25 193.3125 351.242188 208.753906 C 352.132812 216.644531 347.414062 224.039062 337.589844 230.148438 C 330.261719 234.707031 322.570312 237 322.496094 237.019531 L 321.882812 237.199219 " fill-opacity="1" fill-rule="nonzero"/><path fill="#26262c" d="M 293.429688 215.5 C 293.351562 215.5 293.269531 215.484375 293.191406 215.457031 C 276.820312 208.742188 274.425781 190.265625 274.402344 190.078125 C 274.359375 189.734375 274.605469 189.417969 274.953125 189.378906 C 275.292969 189.339844 275.609375 189.582031 275.652344 189.929688 C 275.675781 190.105469 277.996094 207.859375 293.667969 214.289062 C 293.988281 214.421875 294.144531 214.789062 294.015625 215.109375 C 293.910156 215.355469 293.679688 215.5 293.429688 215.5 " fill-opacity="1" fill-rule="nonzero"/><path fill="#ffffff" d="M 41.304688 344.667969 L 27.980469 344.667969 L 32.777344 335.28125 L 43.371094 336.210938 L 41.304688 344.667969 " fill-opacity="1" fill-rule="nonzero"/><path fill="#26262c" d="M 29.007812 344.039062 L 40.808594 344.039062 L 42.585938 336.773438 L 33.144531 335.945312 Z M 41.304688 345.296875 L 27.980469 345.296875 C 27.761719 345.296875 27.558594 345.183594 27.441406 344.996094 C 27.328125 344.808594 27.320312 344.578125 27.417969 344.382812 L 32.214844 334.996094 C 32.332031 334.765625 32.578125 334.632812 32.832031 334.652344 L 43.425781 335.582031 C 43.609375 335.597656 43.777344 335.695312 43.882812 335.84375 C 43.992188 335.992188 44.027344 336.183594 43.984375 336.359375 L 41.917969 344.816406 C 41.847656 345.097656 41.59375 345.296875 41.304688 345.296875 " fill-opacity="1" fill-rule="nonzero"/><path fill="#ffffff" d="M 31.546875 343.894531 L 37.511719 339.210938 C 38.226562 338.652344 38.441406 337.65625 38.007812 336.910156 C 36.792969 334.847656 33.492188 327.050781 29.421875 324.324219 C 28.3125 323.578125 26.796875 323.855469 25.984375 324.941406 L 7.726562 349.355469 C 6.886719 350.476562 7.257812 352.082031 8.507812 352.667969 C 10.007812 353.371094 12.410156 353.71875 15.945312 352.191406 C 21.671875 349.714844 28.230469 346.125 30.28125 344.984375 C 30.644531 344.78125 30.964844 344.519531 31.230469 344.203125 C 31.328125 344.09375 31.429688 343.984375 31.546875 343.894531 " fill-opacity="1" fill-rule="nonzero"/><path fill="#26262c" d="M 28.039062 324.535156 C 27.453125 324.535156 26.871094 324.808594 26.488281 325.320312 L 8.230469 349.730469 C 7.9375 350.125 7.832031 350.621094 7.953125 351.09375 C 8.066406 351.539062 8.363281 351.90625 8.777344 352.097656 C 10.597656 352.949219 12.988281 352.78125 15.695312 351.609375 C 21.4375 349.128906 28.078125 345.488281 29.976562 344.433594 C 30.273438 344.265625 30.53125 344.054688 30.753906 343.796875 C 30.84375 343.691406 30.980469 343.535156 31.15625 343.398438 L 37.121094 338.714844 C 37.585938 338.351562 37.734375 337.695312 37.460938 337.226562 C 37.210938 336.800781 36.886719 336.164062 36.476562 335.359375 C 34.875 332.207031 32.191406 326.9375 29.074219 324.847656 C 28.757812 324.636719 28.398438 324.535156 28.039062 324.535156 Z M 11.355469 353.890625 C 10.027344 353.890625 8.996094 353.59375 8.242188 353.242188 C 7.484375 352.886719 6.933594 352.214844 6.730469 351.398438 C 6.519531 350.558594 6.699219 349.675781 7.222656 348.976562 L 25.480469 324.5625 C 26.496094 323.203125 28.382812 322.867188 29.773438 323.800781 C 33.167969 326.074219 35.941406 331.53125 37.601562 334.785156 C 37.984375 335.542969 38.316406 336.191406 38.550781 336.585938 C 39.144531 337.609375 38.863281 338.953125 37.898438 339.707031 L 31.933594 344.390625 C 31.867188 344.441406 31.800781 344.511719 31.710938 344.613281 C 31.394531 344.984375 31.015625 345.296875 30.589844 345.535156 C 28.675781 346.597656 21.992188 350.261719 16.195312 352.769531 C 14.277344 353.597656 12.671875 353.890625 11.355469 353.890625 " fill-opacity="1" fill-rule="nonzero"/><path fill="#ffffff" d="M 7.414062 351.203125 C 7.40625 351.214844 7.394531 351.21875 7.382812 351.214844 C 7.207031 351.148438 7.035156 351.082031 6.878906 351.007812 C 5.628906 350.421875 5.257812 348.8125 6.09375 347.691406 L 24.355469 323.28125 C 25.167969 322.191406 26.683594 321.917969 27.792969 322.664062 C 28 322.800781 28.203125 322.945312 28.40625 323.09375 C 28.417969 323.101562 28.417969 323.121094 28.410156 323.132812 L 7.414062 351.203125 " fill-opacity="1" fill-rule="nonzero"/><path fill="#26262c" d="M 26.410156 322.871094 C 25.824219 322.871094 25.242188 323.144531 24.859375 323.65625 L 6.601562 348.070312 C 6.304688 348.460938 6.203125 348.957031 6.324219 349.429688 C 6.433594 349.878906 6.734375 350.246094 7.148438 350.4375 C 7.160156 350.441406 7.171875 350.449219 7.1875 350.453125 L 27.535156 323.25 C 27.503906 323.226562 27.472656 323.207031 27.441406 323.183594 C 27.128906 322.972656 26.769531 322.871094 26.410156 322.871094 Z M 7.378906 351.84375 C 7.308594 351.84375 7.238281 351.832031 7.167969 351.804688 C 6.972656 351.734375 6.785156 351.660156 6.613281 351.578125 C 5.855469 351.226562 5.304688 350.554688 5.101562 349.734375 C 4.890625 348.894531 5.070312 348.011719 5.589844 347.3125 L 23.851562 322.902344 C 24.867188 321.539062 26.753906 321.207031 28.144531 322.136719 C 28.359375 322.28125 28.570312 322.433594 28.78125 322.589844 C 29.058594 322.792969 29.125 323.222656 28.917969 323.503906 L 7.917969 351.582031 C 7.796875 351.746094 7.585938 351.84375 7.378906 351.84375 " fill-opacity="1" fill-rule="nonzero"/><path fill="#26262c" d="M 25.53125 344.121094 C 25.207031 344.121094 24.929688 343.871094 24.902344 343.546875 L 24.484375 338.765625 C 24.453125 338.417969 24.710938 338.113281 25.058594 338.082031 C 25.402344 338.054688 25.710938 338.308594 25.742188 338.65625 L 26.160156 343.4375 C 26.1875 343.78125 25.933594 344.085938 25.585938 344.117188 C 25.566406 344.117188 25.546875 344.121094 25.53125 344.121094 " fill-opacity="1" fill-rule="nonzero"/><path fill="#26262c" d="M 22.109375 345.957031 C 21.785156 345.957031 21.507812 345.710938 21.480469 345.382812 L 21.0625 340.601562 C 21.03125 340.253906 21.289062 339.949219 21.636719 339.917969 C 21.980469 339.890625 22.289062 340.144531 22.316406 340.492188 L 22.734375 345.269531 C 22.765625 345.617188 22.511719 345.925781 22.164062 345.953125 C 22.144531 345.957031 22.125 345.957031 22.109375 345.957031 " fill-opacity="1" fill-rule="nonzero"/><path fill="#ffffff" d="M 125.023438 336.417969 L 114.9375 336.273438 C 114.222656 336.261719 113.574219 336.707031 113.292969 337.398438 C 112.363281 339.675781 110.464844 345.003906 110.636719 350.085938 C 110.683594 351.476562 111.765625 352.578125 113.082031 352.597656 L 142.671875 353.019531 C 144.03125 353.042969 145.085938 351.746094 144.832031 350.339844 C 144.527344 348.652344 143.4375 346.421875 140.222656 344.386719 C 135.015625 341.089844 128.457031 337.777344 126.390625 336.75 C 125.964844 336.539062 125.496094 336.425781 125.023438 336.417969 " fill-opacity="1" fill-rule="nonzero"/><path fill="#26262c" d="M 114.914062 336.902344 C 114.464844 336.902344 114.058594 337.191406 113.875 337.636719 C 113.035156 339.699219 111.097656 345.046875 111.269531 350.066406 C 111.304688 351.117188 112.105469 351.953125 113.09375 351.96875 L 142.679688 352.390625 C 143.125 352.394531 143.542969 352.199219 143.839844 351.847656 C 144.167969 351.464844 144.304688 350.957031 144.210938 350.449219 C 143.84375 348.390625 142.347656 346.480469 139.882812 344.921875 C 134.671875 341.621094 128.023438 338.265625 126.109375 337.316406 C 125.765625 337.144531 125.394531 337.054688 125.015625 337.046875 L 114.929688 336.902344 C 114.925781 336.902344 114.917969 336.902344 114.914062 336.902344 Z M 142.703125 353.652344 C 142.6875 353.652344 142.675781 353.652344 142.664062 353.652344 L 113.074219 353.226562 C 111.414062 353.203125 110.066406 351.835938 110.007812 350.109375 C 109.832031 344.84375 111.835938 339.300781 112.707031 337.160156 C 113.089844 336.226562 113.972656 335.648438 114.949219 335.644531 L 125.03125 335.789062 C 125.601562 335.796875 126.15625 335.929688 126.671875 336.1875 C 128.597656 337.144531 135.296875 340.523438 140.558594 343.855469 C 144.058594 346.070312 145.148438 348.542969 145.453125 350.226562 C 145.609375 351.105469 145.371094 351.992188 144.804688 352.664062 C 144.269531 353.292969 143.503906 353.652344 142.703125 353.652344 " fill-opacity="1" fill-rule="nonzero"/><path fill="#ffffff" d="M 144.683594 349.769531 C 144.695312 349.769531 144.707031 349.777344 144.707031 349.789062 C 144.757812 349.976562 144.800781 350.160156 144.832031 350.339844 C 145.085938 351.746094 144.03125 353.042969 142.671875 353.019531 L 113.082031 352.597656 C 111.765625 352.578125 110.683594 351.476562 110.636719 350.085938 C 110.628906 349.828125 110.628906 349.566406 110.628906 349.308594 C 110.628906 349.292969 110.640625 349.28125 110.65625 349.285156 L 144.683594 349.769531 " fill-opacity="1" fill-rule="nonzero"/><path fill="#26262c" d="M 111.265625 349.921875 C 111.265625 349.972656 111.265625 350.019531 111.269531 350.066406 C 111.304688 351.117188 112.105469 351.953125 113.09375 351.96875 L 142.679688 352.390625 C 143.125 352.394531 143.542969 352.199219 143.839844 351.847656 C 144.167969 351.464844 144.304688 350.957031 144.210938 350.449219 C 144.207031 350.433594 144.203125 350.414062 144.203125 350.394531 Z M 142.703125 353.652344 C 142.6875 353.652344 142.675781 353.652344 142.664062 353.652344 L 113.074219 353.226562 C 111.414062 353.203125 110.066406 351.835938 110.007812 350.109375 C 110 349.839844 110 349.570312 110 349.304688 C 110 349.132812 110.078125 348.953125 110.203125 348.835938 C 110.324219 348.71875 110.503906 348.636719 110.675781 348.652344 L 144.691406 349.140625 C 144.976562 349.144531 145.242188 349.355469 145.316406 349.628906 C 145.371094 349.832031 145.417969 350.03125 145.453125 350.226562 C 145.609375 351.105469 145.371094 351.992188 144.804688 352.664062 C 144.269531 353.292969 143.503906 353.652344 142.703125 353.652344 " fill-opacity="1" fill-rule="nonzero"/><path fill="#26262c" d="M 124.78125 343.167969 C 124.613281 343.167969 124.445312 343.101562 124.324219 342.972656 C 124.085938 342.71875 124.097656 342.316406 124.351562 342.078125 L 127.308594 339.300781 C 127.5625 339.066406 127.960938 339.078125 128.199219 339.332031 C 128.4375 339.585938 128.425781 339.984375 128.171875 340.21875 L 125.214844 342.996094 C 125.09375 343.113281 124.9375 343.167969 124.78125 343.167969 " fill-opacity="1" fill-rule="nonzero"/><path fill="#26262c" d="M 128.175781 344.921875 C 128.011719 344.921875 127.847656 344.855469 127.722656 344.730469 C 127.480469 344.480469 127.488281 344.082031 127.734375 343.839844 L 130.703125 340.957031 C 130.949219 340.714844 131.347656 340.71875 131.59375 340.96875 C 131.835938 341.21875 131.828125 341.617188 131.582031 341.859375 L 128.613281 344.742188 C 128.492188 344.859375 128.335938 344.921875 128.175781 344.921875 " fill-opacity="1" fill-rule="nonzero"/><path fill="#614ce1" d="M 76.269531 286.140625 C 76.269531 286.136719 76.269531 286.136719 76.273438 286.132812 C 76.554688 285.921875 97.863281 270.484375 104.753906 272.421875 C 116.53125 275.734375 114.238281 310.753906 113.996094 320.015625 C 113.757812 329.03125 75.214844 301.167969 73.894531 298.796875 C 72.59375 296.445312 76.191406 286.359375 76.269531 286.140625 " fill-opacity="1" fill-rule="nonzero"/><path fill="#614ce1" d="M 113.605469 317.683594 C 113.644531 317.714844 113.683594 317.75 113.71875 317.785156 C 121.105469 324.378906 124.269531 329.652344 123.742188 338.089844 C 123.226562 346.34375 111.367188 355.097656 73.375 350.800781 C 71.539062 350.683594 69.707031 350.5625 67.875 350.441406 L 36.972656 349.960938 L 36.972656 327.804688 C 36.972656 327.804688 51.902344 326.53125 71.472656 327.460938 C 72.257812 327.5 72.398438 326.359375 71.625 326.210938 C 61.9375 324.375 49.464844 321.523438 45.574219 318.257812 C 37.398438 311.402344 38.265625 300.980469 40.035156 293.554688 C 45.203125 271.886719 77.460938 294.507812 77.683594 294.5625 C 77.6875 294.5625 77.683594 294.5625 77.683594 294.5625 C 77.75 294.601562 82.050781 297.097656 87.726562 300.527344 L 113.605469 317.683594 " fill-opacity="1" fill-rule="nonzero"/><path fill="#caddff" d="M 95.921875 332.132812 C 95.8125 332.132812 95.699219 332.101562 95.597656 332.042969 C 95.527344 332 88.4375 327.855469 71.535156 327.460938 C 71.1875 327.453125 70.910156 327.164062 70.917969 326.816406 C 70.925781 326.472656 71.207031 326.199219 71.550781 326.199219 C 71.554688 326.199219 71.558594 326.199219 71.5625 326.199219 C 88.855469 326.605469 95.953125 330.785156 96.25 330.960938 C 96.546875 331.144531 96.640625 331.53125 96.460938 331.828125 C 96.34375 332.023438 96.132812 332.132812 95.921875 332.132812 " fill-opacity="1" fill-rule="nonzero"/><path fill="#caddff" d="M 111.492188 316.597656 C 111.359375 316.597656 111.222656 316.554688 111.109375 316.46875 C 105.707031 312.335938 97.554688 306.355469 89.152344 302.125 C 88.84375 301.96875 88.71875 301.589844 88.875 301.28125 C 89.03125 300.96875 89.410156 300.84375 89.722656 301 C 98.214844 305.277344 106.433594 311.304688 111.875 315.46875 C 112.152344 315.675781 112.203125 316.070312 111.992188 316.347656 C 111.867188 316.511719 111.679688 316.597656 111.492188 316.597656 " fill-opacity="1" fill-rule="nonzero"/><path fill="#ffffff" d="M 72.695312 212.414062 C 76.453125 208.765625 93.085938 196.382812 123.25 201.183594 C 123.710938 201.257812 124.179688 201.1875 124.59375 200.96875 C 126.667969 199.878906 133.484375 196.585938 137.46875 198.148438 C 142.078125 199.957031 151.96875 205.664062 137.21875 205.875 C 136.871094 205.878906 136.746094 206.339844 137.050781 206.519531 C 138.21875 207.210938 139.824219 208.292969 139.542969 208.898438 C 138.886719 210.320312 131.21875 209.171875 126.707031 208.402344 C 122.191406 207.632812 120.441406 206.875 109.070312 210.507812 C 102.066406 212.746094 92.648438 220.84375 88.871094 224.058594 C 88.871094 224.058594 72.285156 212.8125 72.695312 212.414062 " fill-opacity="1" fill-rule="nonzero"/><path fill="#26262c" d="M 73.566406 212.460938 C 75.378906 214.011719 83.457031 219.621094 88.828125 223.269531 C 92.824219 219.867188 101.972656 212.113281 108.878906 209.90625 C 119.566406 206.492188 121.933594 206.914062 125.863281 207.613281 C 126.167969 207.671875 126.480469 207.726562 126.8125 207.78125 C 136.398438 209.414062 138.453125 208.933594 138.890625 208.683594 C 138.742188 208.480469 138.261719 207.964844 136.726562 207.0625 C 136.347656 206.835938 136.167969 206.398438 136.28125 205.972656 C 136.394531 205.542969 136.769531 205.25 137.210938 205.246094 C 143.78125 205.152344 144.328125 203.960938 144.371094 203.722656 C 144.566406 202.652344 141.167969 200.277344 137.238281 198.738281 C 133.496094 197.269531 126.835938 200.5 124.886719 201.527344 C 124.355469 201.808594 123.753906 201.902344 123.152344 201.808594 C 92.734375 196.964844 76.734375 209.605469 73.566406 212.460938 Z M 88.914062 224.851562 L 88.515625 224.582031 C 72.144531 213.476562 72.089844 212.859375 72.058594 212.492188 L 72.03125 212.195312 L 72.253906 211.960938 C 74.023438 210.242188 90.492188 195.332031 123.347656 200.5625 C 123.683594 200.613281 124.011719 200.5625 124.300781 200.410156 C 126.953125 199.015625 133.574219 195.945312 137.699219 197.5625 C 138.046875 197.699219 146.160156 200.917969 145.609375 203.949219 C 145.328125 205.511719 142.960938 206.328125 138.1875 206.480469 C 139.882812 207.589844 140.464844 208.410156 140.117188 209.164062 C 139.632812 210.207031 137.664062 210.910156 126.601562 209.023438 C 126.265625 208.964844 125.949219 208.910156 125.640625 208.855469 C 121.777344 208.167969 119.652344 207.789062 109.261719 211.109375 C 102.539062 213.253906 93.433594 221 89.546875 224.308594 L 88.914062 224.851562 " fill-opacity="1" fill-rule="nonzero"/><path fill="#ffffff" d="M 116.550781 217.621094 C 116.550781 217.621094 130.070312 224.859375 136.25 224.238281 C 144.941406 223.363281 154.558594 196.863281 155.226562 195.042969 C 155.898438 193.21875 157.777344 183.128906 160.460938 180.183594 C 162.496094 177.953125 164.40625 173.464844 165.210938 171.421875 C 165.53125 170.605469 166.429688 170.121094 167.265625 170.394531 C 168 170.632812 168.546875 171.328125 167.808594 173.152344 C 166.957031 175.257812 165.933594 177.84375 165.222656 179.648438 C 165 180.21875 165.621094 180.734375 166.105469 180.382812 C 167.234375 179.570312 168.65625 178.824219 169.582031 179.34375 C 171.328125 180.324219 172.265625 186.914062 169.449219 191.539062 C 166.632812 196.164062 163.539062 195.078125 162.597656 197.320312 C 161.660156 199.5625 153.867188 228.691406 150.664062 233.726562 C 146.0625 240.972656 116.3125 241.792969 111.484375 241.652344 C 106.652344 241.515625 116.550781 217.621094 116.550781 217.621094 " fill-opacity="1" fill-rule="nonzero"/><path fill="#26262c" d="M 116.871094 218.496094 C 113.742188 226.171875 109.59375 238.488281 111.082031 240.785156 C 111.1875 240.953125 111.308594 241.019531 111.5 241.027344 C 118.8125 241.234375 145.980469 239.929688 150.132812 233.390625 C 152.363281 229.882812 156.980469 214.042969 159.742188 204.582031 C 160.941406 200.46875 161.730469 197.757812 162.015625 197.078125 C 162.511719 195.898438 163.484375 195.460938 164.511719 195 C 165.792969 194.421875 167.390625 193.707031 168.910156 191.210938 C 170.75 188.191406 170.902344 184.203125 170.269531 181.777344 C 169.96875 180.632812 169.558594 180.050781 169.273438 179.894531 C 168.769531 179.609375 167.75 179.972656 166.472656 180.894531 C 166.035156 181.210938 165.453125 181.203125 165.027344 180.871094 C 164.585938 180.527344 164.429688 179.945312 164.636719 179.417969 C 165.351562 177.609375 166.378906 175.011719 167.226562 172.914062 C 167.625 171.929688 167.546875 171.480469 167.460938 171.296875 C 167.417969 171.207031 167.332031 171.082031 167.070312 170.992188 C 166.574219 170.832031 166.003906 171.128906 165.796875 171.652344 C 164.859375 174.035156 162.976562 178.359375 160.925781 180.609375 C 159.019531 182.703125 157.480469 188.851562 156.5625 192.527344 C 156.234375 193.832031 156 194.773438 155.820312 195.261719 L 155.789062 195.347656 C 153.324219 202.0625 144.632812 224.027344 136.3125 224.863281 C 130.707031 225.433594 119.632812 219.925781 116.871094 218.496094 Z M 112.757812 242.300781 C 112.234375 242.300781 111.800781 242.292969 111.464844 242.285156 C 110.855469 242.265625 110.355469 241.984375 110.023438 241.472656 C 107.632812 237.777344 115.109375 219.453125 115.96875 217.378906 L 116.234375 216.734375 L 116.847656 217.0625 C 116.980469 217.136719 130.265625 224.199219 136.183594 223.613281 C 142.226562 223.003906 149.882812 207.773438 154.601562 194.914062 L 154.636719 194.824219 C 154.792969 194.402344 155.03125 193.441406 155.339844 192.222656 C 156.289062 188.433594 157.875 182.085938 159.996094 179.761719 C 161.980469 177.582031 163.894531 173.039062 164.625 171.191406 C 165.082031 170.039062 166.324219 169.425781 167.460938 169.796875 C 167.992188 169.96875 168.390625 170.304688 168.605469 170.765625 C 168.910156 171.425781 168.84375 172.285156 168.394531 173.386719 C 167.5625 175.449219 166.550781 177.996094 165.839844 179.796875 C 167.558594 178.585938 168.917969 178.246094 169.890625 178.792969 C 170.761719 179.285156 171.238281 180.511719 171.488281 181.457031 C 172.210938 184.226562 172.027344 188.519531 169.988281 191.863281 C 168.261719 194.699219 166.394531 195.535156 165.027344 196.148438 C 164.011719 196.605469 163.46875 196.875 163.179688 197.5625 C 162.921875 198.179688 162.050781 201.15625 160.953125 204.933594 C 157.992188 215.078125 153.523438 230.40625 151.195312 234.066406 C 146.734375 241.09375 120.421875 242.300781 112.757812 242.300781 " fill-opacity="1" fill-rule="nonzero"/><path fill="#ffffff" d="M 72.539062 209.554688 L 75.054688 190.144531 L 86.125 195.589844 L 86.816406 209.082031 C 86.796875 211.765625 84.585938 213.335938 84.585938 213.335938 C 81.851562 215.5 77.917969 215.257812 75 213.359375 L 74.324219 212.917969 C 73.195312 212.183594 72.519531 210.914062 72.539062 209.554688 " fill-opacity="1" fill-rule="nonzero"/><path fill="#26262c" d="M 73.167969 209.601562 C 73.164062 210.734375 73.722656 211.777344 74.667969 212.390625 L 75.34375 212.832031 C 78.207031 214.695312 81.847656 214.699219 84.195312 212.839844 C 84.238281 212.808594 86.171875 211.390625 86.183594 209.078125 L 85.515625 195.992188 L 75.566406 191.097656 Z M 79.984375 215.515625 C 78.191406 215.515625 76.324219 214.972656 74.65625 213.886719 L 73.980469 213.449219 C 72.660156 212.585938 71.886719 211.128906 71.910156 209.546875 C 71.910156 209.523438 71.914062 209.5 71.914062 209.476562 L 74.429688 190.0625 C 74.457031 189.859375 74.578125 189.683594 74.757812 189.585938 C 74.9375 189.492188 75.152344 189.488281 75.332031 189.578125 L 86.402344 195.023438 C 86.609375 195.125 86.742188 195.328125 86.753906 195.558594 L 87.441406 209.050781 C 87.425781 212.054688 85.050781 213.777344 84.949219 213.847656 C 83.550781 214.957031 81.800781 215.515625 79.984375 215.515625 " fill-opacity="1" fill-rule="nonzero"/><path fill="#26262c" d="M 88.214844 170.8125 C 84.953125 170.996094 89.402344 173.867188 77.019531 171.738281 C 72.089844 170.886719 75.132812 176.191406 73.851562 175.976562 C 69.125 175.175781 69.289062 175.195312 67.121094 176.039062 C 65.683594 176.597656 65.027344 179.4375 65.535156 181.449219 C 66.203125 184.097656 68.5 184.539062 71.105469 190.003906 C 72.933594 193.84375 72.867188 196.3125 74.535156 196.710938 C 76.21875 197.113281 77.167969 194.804688 79.039062 195.105469 C 81.464844 195.496094 81.457031 199.625 83.933594 201.050781 C 85.492188 201.953125 88.902344 202.0625 93.984375 198.824219 C 94.808594 198.300781 95.144531 197.257812 94.78125 196.351562 C 94.316406 195.183594 93.722656 193.714844 93.035156 192.359375 C 89.765625 185.894531 87.195312 184.644531 87.867188 182.792969 C 88.898438 179.964844 94.132812 180.917969 94.722656 178.621094 C 95.339844 176.238281 92.679688 170.558594 88.214844 170.8125 " fill-opacity="1" fill-rule="nonzero"/><path fill="#ffffff" d="M 78.207031 183.734375 L 79.328125 185.359375 C 79.855469 186.125 80.332031 186.929688 80.75 187.761719 C 81.535156 189.320312 82.90625 192 83.785156 193.4375 C 85.078125 195.550781 91.890625 192.007812 91.890625 192.007812 L 92.164062 190.582031 L 92.953125 190.148438 C 93.105469 190.0625 93.242188 189.949219 93.332031 189.796875 C 93.558594 189.425781 93.507812 188.96875 93.246094 188.664062 C 91.804688 186.976562 88.761719 183.164062 87.421875 179.585938 C 87.421875 179.585938 81.988281 178.824219 78.207031 183.734375 " fill-opacity="1" fill-rule="nonzero"/><path fill="#26262c" d="M 78.992188 183.761719 L 79.847656 185 C 80.390625 185.789062 80.882812 186.625 81.3125 187.476562 C 82.058594 188.964844 83.445312 191.671875 84.324219 193.109375 C 84.945312 194.125 88.695312 192.90625 91.328125 191.585938 L 91.542969 190.460938 C 91.578125 190.277344 91.695312 190.117188 91.859375 190.027344 L 92.648438 189.59375 C 92.714844 189.558594 92.769531 189.515625 92.792969 189.46875 C 92.875 189.339844 92.863281 189.1875 92.765625 189.074219 C 91.183594 187.222656 88.382812 183.660156 86.976562 180.175781 C 85.796875 180.113281 81.960938 180.214844 78.992188 183.761719 Z M 85.429688 194.730469 C 84.476562 194.730469 83.675781 194.46875 83.246094 193.765625 C 82.34375 192.289062 80.941406 189.546875 80.1875 188.042969 C 79.78125 187.238281 79.320312 186.457031 78.808594 185.71875 L 77.6875 184.089844 C 77.53125 183.863281 77.539062 183.5625 77.707031 183.347656 C 81.667969 178.207031 87.273438 178.925781 87.511719 178.960938 C 87.738281 178.992188 87.933594 179.148438 88.011719 179.363281 C 89.339844 182.90625 92.449219 186.761719 93.726562 188.253906 C 94.171875 188.78125 94.230469 189.53125 93.871094 190.125 C 93.730469 190.359375 93.515625 190.554688 93.253906 190.699219 L 92.726562 190.992188 L 92.507812 192.128906 C 92.472656 192.316406 92.351562 192.476562 92.179688 192.566406 C 91.300781 193.027344 87.859375 194.730469 85.429688 194.730469 " fill-opacity="1" fill-rule="nonzero"/><path fill="#ffffff" d="M 80.195312 189.636719 C 80.195312 189.636719 77.503906 185.71875 75.992188 187.328125 C 74.480469 188.941406 77.550781 193.179688 80.195312 189.636719 " fill-opacity="1" fill-rule="nonzero"/><path fill="#26262c" d="M 49.152344 242.832031 C 49.542969 247.835938 49.203125 263.523438 46.660156 268.386719 C 44.136719 273.203125 41.386719 277.648438 40.507812 289.988281 C 40.449219 290.8125 82.125 309.542969 87.320312 299.335938 C 87.441406 299.097656 87.46875 298.828125 87.394531 298.574219 C 86.941406 297.0625 85.40625 290.460938 88.429688 277.703125 C 90.464844 269.105469 94.308594 261.636719 100.847656 252.304688 C 100.863281 252.277344 100.882812 252.25 100.898438 252.222656 C 101.203125 251.679688 104.902344 245.488281 114.605469 243.4375 C 114.828125 243.390625 115.027344 243.277344 115.171875 243.105469 C 116.523438 241.496094 123.5 232.710938 125.585938 220.125 C 125.65625 219.683594 125.429688 219.25 125.027344 219.050781 C 122.402344 217.773438 112.625 213.1875 105.476562 212.144531 C 97.144531 210.929688 100.445312 212.804688 94.496094 210.804688 C 93.671875 210.527344 91.195312 208.640625 90.632812 208.230469 C 87.144531 205.683594 79.441406 209.496094 72.101562 206.574219 C 71.242188 206.230469 70.300781 206.203125 69.414062 206.464844 C 67.234375 207.105469 62.890625 208.027344 58.640625 208.03125 C 44.398438 208.050781 48.753906 237.707031 49.152344 242.832031 " fill-opacity="1" fill-rule="nonzero"/><path fill="#ffffff" d="M 53.476562 264.753906 C 53.363281 264.753906 53.25 264.722656 53.148438 264.660156 C 52.851562 264.480469 52.757812 264.09375 52.9375 263.792969 C 55.621094 259.382812 58.828125 253.214844 59.800781 244.613281 C 61.4375 230.183594 69.296875 219.4375 69.375 219.328125 C 69.582031 219.050781 69.976562 218.992188 70.253906 219.199219 C 70.535156 219.40625 70.59375 219.800781 70.386719 220.082031 C 70.308594 220.183594 62.648438 230.671875 61.054688 244.757812 C 60.054688 253.601562 56.765625 259.925781 54.015625 264.449219 C 53.894531 264.644531 53.6875 264.753906 53.476562 264.753906 " fill-opacity="1" fill-rule="nonzero"/><g clip-path="url(#695f55f547)"><path fill="#614ce1" d="M 83.75 298.875 L 87.5 298.875 L 87.5 303.023438 L 83.75 303.023438 Z M 83.75 298.875 " fill-opacity="1" fill-rule="nonzero"/></g></svg>