<svg xmlns="http://www.w3.org/2000/svg" xmlns:xlink="http://www.w3.org/1999/xlink" width="500" zoomAndPan="magnify" viewBox="0 0 375 374.999991" height="500" preserveAspectRatio="xMidYMid meet" version="1.0"><defs><clipPath id="f65f605b0c"><path d="M 232 179 L 313.1875 179 L 313.1875 223 L 232 223 Z M 232 179 " clip-rule="nonzero"/></clipPath><clipPath id="71a0c98a86"><path d="M 144 153 L 313.1875 153 L 313.1875 183 L 144 183 Z M 144 153 " clip-rule="nonzero"/></clipPath><clipPath id="fbb27dd3c2"><path d="M 61.9375 152.027344 L 225 152.027344 L 225 223 L 61.9375 223 Z M 61.9375 152.027344 " clip-rule="nonzero"/></clipPath></defs><g clip-path="url(#f65f605b0c)"><path fill="#ffffff" d="M 313.058594 204.988281 L 299.234375 222.859375 L 232.289062 222.859375 L 232.289062 179.722656 L 309.007812 179.722656 L 296.636719 195.527344 L 253.910156 195.527344 L 253.910156 204.988281 Z M 313.058594 204.988281 " fill-opacity="1" fill-rule="nonzero"/></g><g clip-path="url(#71a0c98a86)"><path fill="#ffffff" d="M 313.058594 153.320312 L 299.234375 171.40625 L 176.058594 171.40625 C 173.148438 171.40625 170.449219 171.824219 167.960938 172.652344 C 165.457031 173.488281 163.3125 174.648438 161.511719 176.144531 C 159.703125 177.632812 158.289062 179.421875 157.242188 181.492188 C 157.074219 181.839844 156.941406 182.195312 156.792969 182.550781 L 144.265625 164.414062 C 144.851562 163.847656 145.425781 163.261719 146.074219 162.730469 C 149.78125 159.714844 154.195312 157.390625 159.324219 155.769531 C 163.792969 154.347656 168.628906 153.550781 232.289062 153.363281 L 312.847656 153.320312 Z M 313.058594 153.320312 " fill-opacity="1" fill-rule="nonzero"/></g><g clip-path="url(#fbb27dd3c2)"><path fill="#ffffff" d="M 224.816406 204.988281 L 210.992188 222.859375 L 176.058594 222.859375 C 170.03125 222.859375 164.453125 221.960938 159.328125 220.164062 C 154.199219 218.363281 149.78125 215.878906 146.078125 212.730469 C 144.402344 211.308594 142.917969 209.75 141.578125 208.09375 C 140.457031 206.714844 139.453125 205.25 138.5625 203.699219 L 120.039062 176.710938 L 87.398438 222.859375 L 61.9375 222.859375 L 106.527344 159.976562 C 107.984375 157.96875 109.816406 156.167969 112.03125 154.566406 C 114.25 152.976562 117.054688 152.179688 120.457031 152.179688 C 123.710938 152.179688 126.433594 152.933594 128.609375 154.421875 C 130.796875 155.90625 132.648438 157.757812 134.175781 159.976562 L 140.289062 168.828125 C 140.289062 168.828125 159.617188 198.957031 161.460938 200.414062 C 161.816406 200.695312 162.253906 200.917969 162.640625 201.179688 C 164.222656 202.234375 165.949219 203.144531 167.957031 203.792969 C 170.449219 204.589844 173.148438 204.988281 176.058594 204.988281 Z M 224.816406 204.988281 " fill-opacity="1" fill-rule="nonzero"/></g><path fill="#ffffff" d="M 136.34375 222.859375 L 103.734375 222.859375 L 120.039062 199.808594 Z M 136.34375 222.859375 " fill-opacity="1" fill-rule="nonzero"/></svg>