<svg xmlns="http://www.w3.org/2000/svg" xmlns:xlink="http://www.w3.org/1999/xlink" width="500" zoomAndPan="magnify" viewBox="0 0 375 374.999991" height="500" preserveAspectRatio="xMidYMid meet" version="1.0"><defs><clipPath id="ce9610a61d"><path d="M 57.382812 144.5625 L 317.632812 144.5625 L 317.632812 230.8125 L 57.382812 230.8125 Z M 57.382812 144.5625 " clip-rule="nonzero"/></clipPath></defs><path fill="#ffffff" d="M 305.507812 174.9375 C 305.507812 173.875 305.457031 172.855469 305.378906 171.867188 L 305.378906 182.121094 C 305.464844 181.097656 305.507812 180.019531 305.507812 178.867188 Z M 305.507812 174.9375 " fill-opacity="1" fill-rule="nonzero"/><path fill="#ffffff" d="M 305.378906 182.121094 L 305.378906 171.867188 C 304.640625 162.515625 300.175781 156.566406 286.964844 156.566406 L 213.90625 156.566406 C 223.296875 157.789062 227.738281 160.761719 229.71875 166.21875 C 230.933594 169.5625 231.230469 173.832031 231.175781 179.210938 L 212.210938 179.210938 L 212.210938 177.5 C 212.210938 173.054688 208.964844 171.777344 203.324219 171.777344 L 182.644531 171.777344 C 172.648438 171.777344 170.769531 176.476562 170.769531 184.164062 L 170.769531 190.828125 C 170.769531 199.800781 172.648438 203.21875 181.621094 203.21875 L 201.871094 203.21875 C 210.414062 203.21875 212.976562 202.363281 212.976562 194.675781 L 231.945312 194.675781 L 231.945312 200.484375 C 231.945312 204.417969 231.410156 208.035156 229.71875 211.015625 C 227.6875 214.59375 223.984375 217.246094 217.554688 218.429688 L 248.6875 218.429688 L 248.6875 202.367188 L 278.507812 202.367188 C 284.402344 202.367188 286.28125 204.5 286.28125 210.996094 L 286.28125 218.429688 L 305.25 218.429688 L 305.25 207.917969 C 305.25 197.75 300.550781 195.273438 294.910156 194.25 L 294.910156 194.078125 C 302.417969 192.3125 304.847656 188.449219 305.378906 182.121094 Z M 287.050781 180.492188 C 287.050781 184.933594 285.171875 186.984375 280.046875 186.984375 L 248.6875 186.984375 L 248.6875 171.949219 L 278.335938 171.949219 C 284.316406 171.949219 287.050781 172.972656 287.050781 178.441406 Z M 287.050781 180.492188 " fill-opacity="1" fill-rule="nonzero"/><path fill="#ffffff" d="M 153.515625 166.304688 C 156.246094 160.546875 161.402344 157.726562 168.558594 156.566406 L 134.550781 156.566406 L 134.550781 201.511719 L 134.378906 201.511719 L 98.746094 156.566406 L 69.484375 156.566406 L 69.484375 218.429688 L 88.324219 218.429688 L 88.324219 173.484375 L 88.496094 173.484375 L 124.125 218.429688 L 168.554688 218.429688 C 161.402344 217.269531 156.246094 214.449219 153.515625 208.691406 C 152.054688 205.609375 151.289062 201.691406 151.289062 196.726562 L 151.289062 178.269531 C 151.289062 173.304688 152.054688 169.386719 153.515625 166.304688 Z M 153.515625 166.304688 " fill-opacity="1" fill-rule="nonzero"/><g clip-path="url(#ce9610a61d)"><path fill="#ffffff" d="M 317.449219 230.4375 L 57.539062 230.4375 L 57.539062 144.558594 L 317.449219 144.558594 Z M 63.082031 224.894531 L 311.910156 224.894531 L 311.910156 150.101562 L 63.082031 150.101562 Z M 63.082031 224.894531 " fill-opacity="1" fill-rule="nonzero"/></g></svg>